<svg width="59" height="10" viewBox="0 0 59 10" fill="none" xmlns="http://www.w3.org/2000/svg">
<path d="M2.86859 9.30794C2.59879 9.30794 2.34487 9.27223 2.10681 9.20081C1.87669 9.13733 1.67037 9.05401 1.48786 8.95085C1.30535 8.84769 1.14664 8.7485 1.01174 8.65328C0.88478 8.55012 0.789557 8.4668 0.726075 8.40332C0.638787 8.3081 0.559435 8.21684 0.488018 8.12955C0.424536 8.04227 0.392795 7.95101 0.392795 7.85579C0.392795 7.7685 0.4166 7.68121 0.464212 7.59392C0.519759 7.4987 0.591176 7.40745 0.678464 7.32016C0.781622 7.20906 0.872877 7.13368 0.95223 7.094C1.03158 7.04639 1.1149 7.02259 1.20219 7.02259C1.32122 7.02259 1.42438 7.06623 1.51166 7.15352C1.60689 7.23287 1.71798 7.33206 1.84494 7.45109C1.90843 7.4987 1.99175 7.55822 2.09491 7.62963C2.19806 7.69311 2.31709 7.74866 2.45199 7.79627C2.59483 7.84388 2.74956 7.86769 2.9162 7.86769C3.13839 7.86769 3.32884 7.83198 3.48754 7.76056C3.65418 7.68121 3.78908 7.57012 3.89224 7.42728C4.00333 7.28445 4.08268 7.11781 4.1303 6.92736C4.18584 6.72898 4.21362 6.51473 4.21362 6.28461V1.73771C4.21362 1.59488 4.22949 1.45998 4.26123 1.33301C4.29297 1.20605 4.36042 1.10686 4.46358 1.03544C4.56673 0.964025 4.73337 0.928317 4.9635 0.928317C5.17775 0.928317 5.33249 0.964025 5.42771 1.03544C5.53087 1.09892 5.59435 1.18621 5.61816 1.29731C5.6499 1.4084 5.66577 1.5314 5.66577 1.66629V6.36793C5.66577 6.7885 5.59832 7.17732 5.46342 7.53441C5.33645 7.8915 5.14998 8.20494 4.90398 8.47474C4.66593 8.7366 4.37232 8.94292 4.02317 9.09369C3.68195 9.23652 3.2971 9.30794 2.86859 9.30794ZM9.7265 9.31984C9.34561 9.31984 8.97266 9.24842 8.60764 9.10559C8.25055 8.95482 7.9252 8.74454 7.6316 8.47474C7.34593 8.20494 7.11581 7.88753 6.94123 7.52251C6.77459 7.15749 6.69127 6.75676 6.69127 6.32032C6.69127 5.89975 6.77063 5.50695 6.92933 5.14193C7.08804 4.77691 7.30625 4.45553 7.58399 4.1778C7.86172 3.90007 8.17913 3.68581 8.53622 3.53505C8.90124 3.37634 9.29007 3.29699 9.7027 3.29699C10.2582 3.29699 10.7621 3.43189 11.2144 3.70169C11.6667 3.96355 12.0277 4.32063 12.2975 4.77294C12.5673 5.22525 12.7022 5.73708 12.7022 6.30841C12.7022 6.76072 12.6189 7.17336 12.4523 7.54631C12.2856 7.91133 12.0595 8.22874 11.7738 8.49854C11.4881 8.76041 11.1668 8.96275 10.8097 9.10559C10.4605 9.24842 10.0995 9.31984 9.7265 9.31984ZM9.7027 7.9153C9.96456 7.9153 10.2145 7.85182 10.4526 7.72486C10.6986 7.58996 10.897 7.39951 11.0477 7.15352C11.2064 6.90753 11.2858 6.61789 11.2858 6.28461C11.2858 5.97513 11.2144 5.70137 11.0715 5.46331C10.9366 5.22525 10.7502 5.03877 10.5121 4.90388C10.274 4.76898 10.0003 4.70153 9.6908 4.70153C9.39719 4.70153 9.13136 4.77294 8.8933 4.91578C8.65525 5.05068 8.4648 5.24112 8.32197 5.48712C8.18707 5.72517 8.11962 5.99497 8.11962 6.29651C8.11962 6.62979 8.195 6.91943 8.34577 7.16542C8.49654 7.40348 8.69096 7.58996 8.92901 7.72486C9.17501 7.85182 9.4329 7.9153 9.7027 7.9153ZM14.3281 9.23652C14.1138 9.23652 13.9551 9.20478 13.852 9.1413C13.7567 9.07782 13.6972 8.99053 13.6734 8.87943C13.6496 8.76834 13.6377 8.64931 13.6377 8.52235V4.07067C13.6377 3.94371 13.6496 3.82865 13.6734 3.72549C13.6972 3.62233 13.7607 3.53901 13.8639 3.47553C13.967 3.41205 14.1297 3.38031 14.3519 3.38031C14.582 3.38031 14.7486 3.42792 14.8518 3.52314C14.9629 3.61837 15.0184 3.76914 15.0184 3.97545L14.9113 4.30873C14.951 4.22144 15.0184 4.12622 15.1137 4.02306C15.2089 3.9199 15.324 3.81675 15.4589 3.71359C15.6017 3.61043 15.7604 3.52711 15.935 3.46363C16.1095 3.40015 16.2921 3.36841 16.4825 3.36841C16.7444 3.36841 16.9824 3.41205 17.1967 3.49934C17.4189 3.58662 17.6133 3.71359 17.7799 3.88023C17.9545 4.04687 18.1053 4.24922 18.2322 4.48727C18.3671 4.28096 18.5179 4.09448 18.6845 3.92784C18.8512 3.75326 19.0456 3.61837 19.2678 3.52314C19.49 3.41998 19.7399 3.36841 20.0177 3.36841C20.4779 3.36841 20.8628 3.48347 21.1722 3.71359C21.4896 3.94371 21.7277 4.27302 21.8864 4.70153C22.053 5.12209 22.1364 5.62598 22.1364 6.21319V8.52235C22.1364 8.65725 22.1205 8.78024 22.0888 8.89134C22.0649 8.9945 22.0015 9.07782 21.8983 9.1413C21.8031 9.20478 21.6444 9.23652 21.4222 9.23652C21.2 9.23652 21.0373 9.20081 20.9342 9.12939C20.831 9.06591 20.7675 8.98259 20.7437 8.87943C20.7199 8.76834 20.708 8.64534 20.708 8.51045V6.20129C20.708 5.90768 20.6723 5.65376 20.6009 5.4395C20.5295 5.22525 20.4223 5.05861 20.2795 4.93958C20.1446 4.82056 19.9661 4.76104 19.7439 4.76104C19.5058 4.76104 19.2995 4.82056 19.1249 4.93958C18.9583 5.05068 18.8274 5.21335 18.7321 5.4276C18.6369 5.64185 18.5893 5.90372 18.5893 6.21319V8.53425C18.5893 8.66915 18.5695 8.79611 18.5298 8.91514C18.4901 9.02624 18.4108 9.10956 18.2917 9.1651C18.1806 9.22859 18.018 9.25239 17.8037 9.23652C17.6053 9.22859 17.4585 9.18891 17.3633 9.11749C17.276 9.04607 17.2205 8.95879 17.1967 8.85563C17.1808 8.74454 17.1729 8.62947 17.1729 8.51045V6.20129C17.1729 5.90768 17.1372 5.65376 17.0657 5.4395C16.9943 5.21732 16.8872 5.05068 16.7444 4.93958C16.6095 4.82056 16.427 4.76104 16.1968 4.76104C15.9508 4.76104 15.7406 4.82452 15.566 4.95149C15.3993 5.07845 15.2724 5.24906 15.1851 5.46331C15.0978 5.67756 15.0542 5.92355 15.0542 6.20129V8.53425C15.0542 8.66121 15.0383 8.78024 15.0065 8.89134C14.9827 9.00243 14.9193 9.08575 14.8161 9.1413C14.7209 9.20478 14.5582 9.23652 14.3281 9.23652Z" fill="#08D0C2"/>
<path d="M27.4623 9.27223C27.0338 9.27223 26.6172 9.20875 26.2125 9.08178C25.8078 8.95482 25.4309 8.77231 25.0818 8.53425C24.7326 8.29619 24.4231 8.00259 24.1533 7.65344C23.8915 7.29635 23.6852 6.89959 23.5344 6.46315C23.3836 6.01878 23.3082 5.53076 23.3082 4.9991C23.3082 4.49124 23.3836 4.02306 23.5344 3.59456C23.6852 3.15812 23.8915 2.77326 24.1533 2.43998C24.4152 2.1067 24.7207 1.825 25.0699 1.59488C25.4269 1.35682 25.8078 1.17828 26.2125 1.05925C26.6252 0.932284 27.0457 0.868803 27.4742 0.868803C27.871 0.868803 28.2122 0.908479 28.4979 0.987831C28.7836 1.06718 29.0176 1.15447 29.2002 1.24969C29.3827 1.33698 29.5057 1.40443 29.5691 1.45204C29.6802 1.51552 29.7874 1.59091 29.8905 1.6782C29.9937 1.76549 30.0492 1.86864 30.0572 1.98767C30.073 2.07496 30.0651 2.14638 30.0334 2.20192C30.0096 2.25747 29.9778 2.31698 29.9381 2.38047C29.8747 2.47569 29.8072 2.54711 29.7358 2.59472C29.6723 2.63439 29.6009 2.65423 29.5215 2.65423C29.4422 2.65423 29.3708 2.63043 29.3073 2.58282C29.2438 2.5352 29.1605 2.47966 29.0573 2.41618C29.0097 2.38443 28.9145 2.33286 28.7717 2.26144C28.6288 2.19002 28.4463 2.12257 28.2241 2.05909C28.0019 1.98767 27.7321 1.95196 27.4147 1.95196C27.01 1.95196 26.6212 2.02735 26.2482 2.17812C25.8832 2.32095 25.5618 2.52727 25.2841 2.79707C25.0064 3.06687 24.7882 3.39221 24.6295 3.7731C24.4708 4.15399 24.3914 4.5825 24.3914 5.05861C24.3914 5.54266 24.4708 5.9791 24.6295 6.36793C24.7882 6.74882 25.0064 7.07417 25.2841 7.34396C25.5698 7.61376 25.8951 7.82008 26.2602 7.96291C26.6252 8.10575 27.01 8.17716 27.4147 8.17716C27.7163 8.17716 27.9781 8.14542 28.2003 8.08194C28.4304 8.01846 28.6169 7.95101 28.7598 7.87959C28.9105 7.80024 29.0137 7.74073 29.0692 7.70105C29.1565 7.65344 29.2319 7.60583 29.2954 7.55822C29.3668 7.5106 29.4422 7.4868 29.5215 7.4868C29.6009 7.4868 29.6723 7.5106 29.7358 7.55822C29.8072 7.59789 29.8747 7.66534 29.9381 7.76056C29.9778 7.81611 30.0096 7.87959 30.0334 7.95101C30.0651 8.01449 30.073 8.08591 30.0572 8.16526C30.0492 8.28429 29.9937 8.38745 29.8905 8.47474C29.7874 8.55409 29.6802 8.62947 29.5691 8.70089C29.4977 8.73263 29.3708 8.80008 29.1883 8.90324C29.0137 8.99846 28.7836 9.08178 28.4979 9.1532C28.2122 9.23255 27.867 9.27223 27.4623 9.27223ZM31.9853 9.24842C31.8266 9.24842 31.7076 9.22462 31.6283 9.17701C31.5489 9.13733 31.4934 9.07782 31.4616 8.99846C31.4378 8.91911 31.4259 8.82389 31.4259 8.71279V1.48775C31.4259 1.36872 31.4378 1.26953 31.4616 1.19018C31.4854 1.11083 31.533 1.05131 31.6044 1.01164C31.6838 0.964025 31.8028 0.94022 31.9615 0.94022C32.1202 0.94022 32.2353 0.964025 32.3067 1.01164C32.3861 1.05131 32.4376 1.11083 32.4615 1.19018C32.4853 1.26953 32.4972 1.36476 32.4972 1.47585V8.24858H36.4846C36.5878 8.24858 36.6751 8.26048 36.7465 8.28429C36.8179 8.3081 36.8734 8.35571 36.9131 8.42713C36.9607 8.49854 36.9845 8.60567 36.9845 8.7485C36.9845 8.8834 36.9647 8.99053 36.925 9.06988C36.8854 9.1413 36.8298 9.18891 36.7584 9.21271C36.687 9.23652 36.5997 9.24842 36.4965 9.24842H31.9853ZM45.4191 8.48664C45.4826 8.60567 45.5143 8.70883 45.5143 8.79611C45.5223 8.87547 45.4985 8.95085 45.4429 9.02227C45.3874 9.08575 45.3001 9.14527 45.1811 9.20081C44.9906 9.2881 44.8398 9.30794 44.7288 9.26033C44.6256 9.21271 44.5304 9.09765 44.4431 8.91514L41.4674 2.58282L38.5155 8.90324C38.4282 9.08575 38.329 9.20081 38.2179 9.24842C38.1147 9.29603 37.964 9.2762 37.7656 9.18891C37.6465 9.1413 37.5593 9.08178 37.5037 9.01037C37.4561 8.93895 37.4363 8.85166 37.4442 8.7485C37.4601 8.64534 37.4997 8.52632 37.5632 8.39142L40.9793 1.2616C41.027 1.16637 41.0944 1.09099 41.1817 1.03544C41.2769 0.971961 41.3761 0.94022 41.4793 0.94022C41.5507 0.94022 41.6181 0.952122 41.6816 0.975928C41.7451 0.999734 41.8006 1.03544 41.8483 1.08305C41.8959 1.13067 41.9355 1.19415 41.9673 1.2735L45.4191 8.48664ZM39.2296 6.87975L39.6343 5.96323H43.3242L43.717 6.87975H39.2296ZM48.896 9.36745C48.5944 9.36745 48.3088 9.33174 48.039 9.26033C47.7771 9.18891 47.5351 9.09369 47.3129 8.97466C47.0986 8.84769 46.9082 8.70883 46.7416 8.55806C46.5749 8.40729 46.444 8.25652 46.3488 8.10575C46.2615 7.97878 46.2059 7.87563 46.1821 7.79627C46.1583 7.70899 46.1623 7.62567 46.194 7.54631C46.2337 7.46696 46.3091 7.37967 46.4202 7.28445C46.5471 7.18923 46.6582 7.14558 46.7535 7.15352C46.8487 7.15352 46.936 7.18923 47.0153 7.26064C47.1026 7.33206 47.1899 7.42728 47.2772 7.54631C47.4756 7.81611 47.7176 8.01449 48.0033 8.14146C48.2889 8.26048 48.5706 8.32 48.8484 8.32C49.2054 8.32 49.5229 8.27239 49.8006 8.17716C50.0783 8.08194 50.2965 7.93911 50.4552 7.74866C50.6219 7.55028 50.7052 7.29635 50.7052 6.98688C50.7052 6.73295 50.6417 6.5187 50.5148 6.34412C50.3878 6.16955 50.2172 6.02275 50.0029 5.90372C49.7887 5.77675 49.5506 5.66963 49.2888 5.58234C49.0269 5.48712 48.7611 5.39586 48.4913 5.30857C48.277 5.23716 48.0667 5.1578 47.8604 5.07052C47.6541 4.97529 47.4597 4.87213 47.2772 4.76104C47.0947 4.64201 46.932 4.50315 46.7892 4.34444C46.6543 4.18574 46.5471 3.99926 46.4678 3.78501C46.3964 3.57075 46.3607 3.32079 46.3607 3.03512C46.3607 2.59869 46.4638 2.21383 46.6701 1.88055C46.8844 1.54727 47.182 1.28937 47.5628 1.10686C47.9437 0.916414 48.3841 0.821191 48.8841 0.821191C49.1777 0.821191 49.4475 0.848964 49.6935 0.904511C49.9395 0.960058 50.1577 1.03544 50.3481 1.13067C50.5386 1.21795 50.7012 1.31318 50.8361 1.41633C50.971 1.51156 51.0742 1.60281 51.1456 1.6901C51.2884 1.84087 51.3678 1.96783 51.3837 2.07099C51.3995 2.17415 51.34 2.30111 51.2051 2.45188C51.0782 2.59472 50.9552 2.6701 50.8361 2.67804C50.7171 2.68597 50.5862 2.63043 50.4433 2.5114C50.2926 2.33682 50.1339 2.20192 49.9672 2.1067C49.8085 2.01148 49.6379 1.948 49.4554 1.91626C49.2808 1.87658 49.0864 1.85674 48.8722 1.85674C48.6658 1.85674 48.4714 1.88451 48.2889 1.94006C48.1143 1.98767 47.9596 2.06306 47.8247 2.16622C47.6977 2.26937 47.5986 2.39634 47.5271 2.54711C47.4557 2.68994 47.42 2.85658 47.42 3.04703C47.42 3.26128 47.4756 3.44379 47.5867 3.59456C47.7057 3.74533 47.8604 3.87626 48.0509 3.98735C48.2413 4.09051 48.4556 4.18574 48.6936 4.27302C48.9317 4.35238 49.1816 4.43173 49.4435 4.51108C49.7292 4.59837 50.0109 4.70549 50.2886 4.83246C50.5663 4.95149 50.8163 5.10226 51.0385 5.28477C51.2607 5.45934 51.4392 5.68153 51.5741 5.95133C51.709 6.22113 51.7765 6.55441 51.7765 6.95117C51.7765 7.34793 51.6971 7.69708 51.5384 7.99862C51.3876 8.30016 51.1774 8.55409 50.9076 8.76041C50.6378 8.95879 50.3283 9.10956 49.9791 9.21271C49.6379 9.31587 49.2769 9.36745 48.896 9.36745ZM55.4867 9.36745C55.1852 9.36745 54.8995 9.33174 54.6297 9.26033C54.3678 9.18891 54.1258 9.09369 53.9036 8.97466C53.6894 8.84769 53.4989 8.70883 53.3323 8.55806C53.1657 8.40729 53.0347 8.25652 52.9395 8.10575C52.8522 7.97878 52.7967 7.87563 52.7729 7.79627C52.7491 7.70899 52.753 7.62567 52.7848 7.54631C52.8244 7.46696 52.8998 7.37967 53.0109 7.28445C53.1379 7.18923 53.249 7.14558 53.3442 7.15352C53.4394 7.15352 53.5267 7.18923 53.6061 7.26064C53.6934 7.33206 53.7806 7.42728 53.8679 7.54631C54.0663 7.81611 54.3083 8.01449 54.594 8.14146C54.8797 8.26048 55.1614 8.32 55.4391 8.32C55.7962 8.32 56.1136 8.27239 56.3913 8.17716C56.6691 8.08194 56.8873 7.93911 57.046 7.74866C57.2126 7.55028 57.296 7.29635 57.296 6.98688C57.296 6.73295 57.2325 6.5187 57.1055 6.34412C56.9785 6.16955 56.8079 6.02275 56.5937 5.90372C56.3794 5.77675 56.1414 5.66963 55.8795 5.58234C55.6176 5.48712 55.3518 5.39586 55.082 5.30857C54.8678 5.23716 54.6575 5.1578 54.4512 5.07052C54.2449 4.97529 54.0504 4.87213 53.8679 4.76104C53.6854 4.64201 53.5227 4.50315 53.3799 4.34444C53.245 4.18574 53.1379 3.99926 53.0585 3.78501C52.9871 3.57075 52.9514 3.32079 52.9514 3.03512C52.9514 2.59869 53.0546 2.21383 53.2609 1.88055C53.4751 1.54727 53.7727 1.28937 54.1536 1.10686C54.5345 0.916414 54.9749 0.821191 55.4748 0.821191C55.7684 0.821191 56.0382 0.848964 56.2842 0.904511C56.5302 0.960058 56.7484 1.03544 56.9389 1.13067C57.1293 1.21795 57.292 1.31318 57.4269 1.41633C57.5618 1.51156 57.6649 1.60281 57.7364 1.6901C57.8792 1.84087 57.9585 1.96783 57.9744 2.07099C57.9903 2.17415 57.9308 2.30111 57.7959 2.45188C57.6689 2.59472 57.5459 2.6701 57.4269 2.67804C57.3079 2.68597 57.1769 2.63043 57.0341 2.5114C56.8833 2.33682 56.7246 2.20192 56.558 2.1067C56.3993 2.01148 56.2287 1.948 56.0462 1.91626C55.8716 1.87658 55.6772 1.85674 55.4629 1.85674C55.2566 1.85674 55.0622 1.88451 54.8797 1.94006C54.7051 1.98767 54.5504 2.06306 54.4155 2.16622C54.2885 2.26937 54.1893 2.39634 54.1179 2.54711C54.0465 2.68994 54.0108 2.85658 54.0108 3.04703C54.0108 3.26128 54.0663 3.44379 54.1774 3.59456C54.2964 3.74533 54.4512 3.87626 54.6416 3.98735C54.8321 4.09051 55.0463 4.18574 55.2844 4.27302C55.5224 4.35238 55.7724 4.43173 56.0342 4.51108C56.3199 4.59837 56.6016 4.70549 56.8794 4.83246C57.1571 4.95149 57.407 5.10226 57.6292 5.28477C57.8514 5.45934 58.03 5.68153 58.1649 5.95133C58.2998 6.22113 58.3672 6.55441 58.3672 6.95117C58.3672 7.34793 58.2879 7.69708 58.1292 7.99862C57.9784 8.30016 57.7681 8.55409 57.4983 8.76041C57.2285 8.95879 56.919 9.10956 56.5699 9.21271C56.2287 9.31587 55.8676 9.36745 55.4867 9.36745Z" fill="#1B1A1A"/>
</svg>
