<svg width="209" height="32" viewBox="0 0 209 32" fill="none" xmlns="http://www.w3.org/2000/svg">
<path d="M101.593 22.2996V27.0343H98.7522C96.7277 27.0343 95.1495 26.5445 94.0175 25.5649C92.8855 24.5636 92.3195 22.9418 92.3195 20.6996V13.4506H90.0991V8.81387H92.3195V4.37305H97.9032V8.81387H101.56V13.4506H97.9032V20.7649C97.9032 21.3091 98.0339 21.701 98.2951 21.9404C98.5563 22.1799 98.9917 22.2996 99.6012 22.2996H101.593Z" fill="black"/>
<path d="M83.0544 11.8508C83.7075 10.8495 84.5238 10.0658 85.5034 9.4998C86.483 8.91204 87.5715 8.61816 88.7687 8.61816V14.5284H87.234C85.8408 14.5284 84.7959 14.8331 84.0993 15.4427C83.4027 16.0304 83.0544 17.0753 83.0544 18.5774V27.0345H77.4707V8.81408H83.0544V11.8508Z" fill="black"/>
<path d="M54.1987 17.8915C54.1987 16.0194 54.547 14.3759 55.2436 12.9609C55.962 11.5459 56.9307 10.4575 58.1498 9.69559C59.3688 8.93369 60.7294 8.55273 62.2314 8.55273C63.5158 8.55273 64.6369 8.81396 65.5947 9.33641C66.5743 9.85886 67.3254 10.5446 67.8478 11.3936V8.81396H73.4315V27.0344H67.8478V24.4548C67.3036 25.3038 66.5417 25.9895 65.5621 26.5119C64.6042 27.0344 63.4831 27.2956 62.1988 27.2956C60.7185 27.2956 59.3688 26.9147 58.1498 26.1528C56.9307 25.3691 55.962 24.2698 55.2436 22.8548C54.547 21.4181 54.1987 19.7636 54.1987 17.8915ZM67.8478 17.9242C67.8478 16.531 67.456 15.4317 66.6723 14.6262C65.9104 13.8208 64.9743 13.418 63.8641 13.418C62.7539 13.418 61.8069 13.8208 61.0233 14.6262C60.2614 15.4099 59.8804 16.4983 59.8804 17.8915C59.8804 19.2847 60.2614 20.3949 61.0233 21.2221C61.8069 22.0276 62.7539 22.4303 63.8641 22.4303C64.9743 22.4303 65.9104 22.0276 66.6723 21.2221C67.456 20.4167 67.8478 19.3174 67.8478 17.9242Z" fill="black"/>
<path d="M43.9913 8.61816C46.2553 8.61816 48.0512 9.30388 49.3791 10.6753C50.7288 12.0467 51.4036 13.9515 51.4036 16.3896V27.0345H45.8526V17.1406C45.8526 15.9651 45.5369 15.0617 44.9056 14.4304C44.2961 13.7774 43.4471 13.4508 42.3587 13.4508C41.2702 13.4508 40.4104 13.7774 39.7791 14.4304C39.1695 15.0617 38.8648 15.9651 38.8648 17.1406V27.0345H33.3137V17.1406C33.3137 15.9651 32.9981 15.0617 32.3668 14.4304C31.7572 13.7774 30.9082 13.4508 29.8198 13.4508C28.7314 13.4508 27.8715 13.7774 27.2402 14.4304C26.6307 15.0617 26.3259 15.9651 26.3259 17.1406V27.0345H20.7422V8.81408H26.3259V11.0998C26.8919 10.3379 27.632 9.73925 28.5463 9.30388C29.4606 8.84674 30.4946 8.61816 31.6484 8.61816C33.0198 8.61816 34.2389 8.91204 35.3056 9.4998C36.394 10.0876 37.243 10.9256 37.8525 12.0141C38.4838 11.0127 39.3437 10.1964 40.4321 9.5651C41.5206 8.93381 42.707 8.61816 43.9913 8.61816Z" fill="black"/>
<path d="M8.947 27.263C7.2708 27.263 5.76875 26.9909 4.44085 26.4467C3.11295 25.9024 2.04627 25.097 1.24082 24.0303C0.457146 22.9637 0.0435377 21.6793 0 20.1773H5.9429C6.02997 21.0262 6.32385 21.6793 6.82454 22.1365C7.32522 22.5718 7.97829 22.7895 8.78373 22.7895C9.61095 22.7895 10.264 22.6045 10.7429 22.2344C11.2218 21.8426 11.4613 21.3092 11.4613 20.6344C11.4613 20.0684 11.2654 19.6004 10.8735 19.2303C10.5035 18.8603 10.0354 18.5555 9.46945 18.316C8.92523 18.0766 8.14155 17.8045 7.11842 17.4997C5.63813 17.0426 4.42996 16.5854 3.4939 16.1283C2.55784 15.6711 1.75239 14.9963 1.07756 14.1038C0.402724 13.2113 0.0653066 12.0466 0.0653066 10.6099C0.0653066 8.47656 0.838101 6.81126 2.38369 5.61397C3.92928 4.39493 5.9429 3.7854 8.42455 3.7854C10.9497 3.7854 12.9851 4.39493 14.5307 5.61397C16.0763 6.81126 16.9035 8.48745 17.0124 10.6426H10.9715C10.928 9.90242 10.6559 9.32555 10.1552 8.91194C9.65449 8.47656 9.01231 8.25888 8.22863 8.25888C7.55379 8.25888 7.00957 8.44391 6.59596 8.81398C6.18236 9.16228 5.97555 9.67384 5.97555 10.3487C5.97555 11.0888 6.32385 11.6657 7.02046 12.0793C7.71706 12.4929 8.8055 12.9392 10.2858 13.4181C11.7661 13.9187 12.9634 14.3977 13.8776 14.8548C14.8137 15.3119 15.6192 15.9759 16.294 16.8466C16.9688 17.7174 17.3062 18.8385 17.3062 20.2099C17.3062 21.516 16.9688 22.7024 16.294 23.7691C15.6409 24.8358 14.6831 25.6848 13.4205 26.3161C12.1579 26.9473 10.6667 27.263 8.947 27.263Z" fill="black"/>
<path d="M201.62 27.7685C200.031 27.7685 198.616 27.4964 197.375 26.9522C196.135 26.408 195.155 25.6678 194.437 24.7318C193.718 23.774 193.316 22.7073 193.229 21.5318H198.747C198.812 22.1631 199.106 22.6746 199.629 23.0665C200.151 23.4583 200.793 23.6542 201.555 23.6542C202.252 23.6542 202.785 23.5236 203.155 23.2624C203.547 22.9794 203.743 22.6202 203.743 22.1848C203.743 21.6624 203.471 21.2814 202.927 21.042C202.382 20.7808 201.501 20.4978 200.282 20.193C198.975 19.8882 197.887 19.5726 197.016 19.2461C196.146 18.8978 195.395 18.3644 194.763 17.6461C194.132 16.9059 193.816 15.9154 193.816 14.6746C193.816 13.6297 194.099 12.6828 194.665 11.8338C195.253 10.9631 196.102 10.2773 197.212 9.77666C198.344 9.27598 199.683 9.02563 201.229 9.02563C203.514 9.02563 205.31 9.59162 206.616 10.7236C207.944 11.8556 208.706 13.3576 208.902 15.2297H203.743C203.656 14.5984 203.373 14.0978 202.894 13.7277C202.437 13.3576 201.827 13.1726 201.065 13.1726C200.412 13.1726 199.912 13.3032 199.563 13.5644C199.215 13.8039 199.041 14.1413 199.041 14.5767C199.041 15.0991 199.313 15.491 199.857 15.7522C200.423 16.0134 201.294 16.2746 202.469 16.5359C203.819 16.8842 204.918 17.2325 205.767 17.5808C206.616 17.9073 207.357 18.4515 207.988 19.2134C208.641 19.9535 208.978 20.9549 209 22.2175C209 23.2842 208.695 24.242 208.086 25.091C207.498 25.9182 206.638 26.5712 205.506 27.0502C204.396 27.5291 203.101 27.7685 201.62 27.7685Z" fill="black"/>
<path d="M185.158 27.5073L179.607 19.8665V27.5073H174.023V3.34399H179.607V16.6991L185.125 9.28686H192.015L184.439 18.4297L192.08 27.5073H185.158Z" fill="black"/>
<path d="M130.626 15.7523C131.954 16.0353 133.02 16.6993 133.826 17.7442C134.631 18.7673 135.034 19.9428 135.034 21.2707C135.034 23.1863 134.359 24.7102 133.009 25.8421C131.681 26.9523 129.82 27.5074 127.426 27.5074H116.748V4.58496H127.066C129.396 4.58496 131.213 5.1183 132.52 6.18496C133.847 7.25163 134.511 8.69925 134.511 10.5278C134.511 11.8775 134.152 12.9986 133.434 13.8911C132.737 14.7836 131.801 15.404 130.626 15.7523ZM122.332 13.8584H125.989C126.903 13.8584 127.6 13.6625 128.079 13.2707C128.579 12.8571 128.83 12.2584 128.83 11.4748C128.83 10.6911 128.579 10.0925 128.079 9.67885C127.6 9.26524 126.903 9.05844 125.989 9.05844H122.332V13.8584ZM126.446 23.0013C127.382 23.0013 128.101 22.7945 128.601 22.3809C129.124 21.9455 129.385 21.3251 129.385 20.5197C129.385 19.7142 129.113 19.0829 128.569 18.6258C128.046 18.1687 127.317 17.9401 126.381 17.9401H122.332V23.0013H126.446Z" fill="black"/>
<g clip-path="url(#clip0_100_3167)">
<path d="M144.518 5.9476H144.516C144.385 5.94733 144.255 5.97255 144.134 6.02181C144.012 6.07107 143.902 6.1434 143.81 6.23462C143.715 6.32649 143.641 6.43584 143.59 6.55631C143.539 6.67678 143.513 6.80597 143.513 6.93639V21.7631C143.513 22.3068 143.966 22.7502 144.522 22.7516C146.868 22.7571 150.799 23.2368 153.511 26.0205V10.5039C153.511 10.3196 153.463 10.1465 153.372 10.0032C151.147 6.48721 146.87 5.953 144.518 5.9476ZM165.073 21.7631V6.9363C165.073 6.67096 164.968 6.42172 164.776 6.23453C164.684 6.14333 164.574 6.07102 164.453 6.02176C164.331 5.9725 164.202 5.94726 164.07 5.94751H164.068C161.717 5.953 157.44 6.48721 155.214 10.0032C155.124 10.1465 155.076 10.3196 155.076 10.5039V26.0204C157.787 23.2367 161.718 22.757 164.064 22.7515C164.62 22.7501 165.073 22.3067 165.073 21.7631Z" fill="#08D0C2"/>
<path d="M168.817 7.54858H168.007V21.5567C168.007 23.1254 166.729 24.4046 165.158 24.4085C162.952 24.4137 159.314 24.8451 156.738 27.2832C161.193 26.1924 165.89 26.9015 168.567 27.5115C168.731 27.5493 168.901 27.5495 169.065 27.5121C169.229 27.4747 169.383 27.4007 169.514 27.2955C169.646 27.1912 169.752 27.0585 169.824 26.9074C169.897 26.7562 169.935 26.5906 169.934 26.4228V8.66574C169.934 8.04976 169.433 7.54858 168.817 7.54858ZM140.637 21.5567V7.54858H139.827C139.211 7.54858 138.709 8.04976 138.709 8.66574V26.4225C138.709 26.7642 138.863 27.0823 139.129 27.2952C139.261 27.4004 139.414 27.4745 139.578 27.5119C139.742 27.5493 139.913 27.5491 140.077 27.5112C142.753 26.9011 147.45 26.1921 151.905 27.2829C149.329 24.8449 145.692 24.4136 143.486 24.4084C141.915 24.4046 140.637 23.1254 140.637 21.5567Z" fill="#08D0C2"/>
</g>
<defs>
<clipPath id="clip0_100_3167">
<rect width="31.2247" height="31.2245" fill="white" transform="translate(138.709)"/>
</clipPath>
</defs>
</svg>
