<svg width="22" height="22" viewBox="0 0 22 22" fill="none" xmlns="http://www.w3.org/2000/svg">
<path d="M13.2982 2.92684C13.17 2.79868 13.0067 2.7114 12.8289 2.67605C12.6512 2.6407 12.4669 2.65885 12.2994 2.72821C12.1319 2.79758 11.9888 2.91504 11.888 3.06575C11.7873 3.21646 11.7335 3.39365 11.7335 3.57492V6.78325C9.10043 6.81052 6.58431 7.87485 4.73095 9.74537C2.87759 11.6159 1.83649 14.1417 1.8335 16.7749V18.4249C1.8335 18.6216 1.89678 18.8131 2.01398 18.9711C2.13118 19.129 2.29608 19.2451 2.48433 19.3022C2.57048 19.3285 2.66008 19.3418 2.75016 19.3416C2.90112 19.3415 3.04973 19.3041 3.18277 19.2328C3.31582 19.1615 3.4292 19.0584 3.51283 18.9328C7.0145 13.6803 10.3722 13.3063 11.7335 13.4144V16.7749C11.7335 16.9562 11.7873 17.1334 11.888 17.2841C11.9888 17.4348 12.1319 17.5523 12.2994 17.6216C12.4669 17.691 12.6512 17.7091 12.8289 17.6738C13.0067 17.6384 13.17 17.5512 13.2982 17.423L19.8982 10.823C20.0701 10.6511 20.1666 10.418 20.1666 10.1749C20.1666 9.93185 20.0701 9.69874 19.8982 9.52684L13.2982 2.92684Z" fill="#1B1A1A"/>
</svg>
