<svg width="26" height="27" viewBox="0 0 26 27" fill="none" xmlns="http://www.w3.org/2000/svg">
<path d="M23.8331 5.37501V9.16668C23.8331 9.454 23.719 9.72955 23.5158 9.93271C23.3126 10.1359 23.0371 10.25 22.7498 10.25C22.4625 10.25 22.1869 10.1359 21.9837 9.93271C21.7806 9.72955 21.6664 9.454 21.6664 9.16668V5.37501C21.6664 4.88859 21.6101 4.83334 21.1248 4.83334H17.3331C17.0458 4.83334 16.7702 4.71921 16.5671 4.51604C16.3639 4.31288 16.2498 4.03733 16.2498 3.75001C16.2498 3.46269 16.3639 3.18714 16.5671 2.98398C16.7702 2.78081 17.0458 2.66668 17.3331 2.66668H21.1248C21.4879 2.63722 21.8531 2.68706 22.1951 2.81275C22.537 2.93844 22.8476 3.13697 23.1052 3.39459C23.3628 3.65221 23.5613 3.96275 23.687 4.30471C23.8127 4.64668 23.8626 5.01188 23.8331 5.37501ZM8.66643 2.66668H4.87477C4.51163 2.63722 4.14643 2.68706 3.80447 2.81275C3.46251 2.93844 3.15196 3.13697 2.89434 3.39459C2.63672 3.65221 2.43819 3.96275 2.3125 4.30471C2.18681 4.64668 2.13697 5.01188 2.16643 5.37501V9.16668C2.16643 9.454 2.28057 9.72955 2.48373 9.93271C2.6869 10.1359 2.96245 10.25 3.24977 10.25C3.53708 10.25 3.81263 10.1359 4.0158 9.93271C4.21896 9.72955 4.3331 9.454 4.3331 9.16668V5.37501C4.3331 4.88859 4.38943 4.83334 4.87477 4.83334H8.66643C8.95375 4.83334 9.2293 4.71921 9.43247 4.51604C9.63563 4.31288 9.74977 4.03733 9.74977 3.75001C9.74977 3.46269 9.63563 3.18714 9.43247 2.98398C9.2293 2.78081 8.95375 2.66668 8.66643 2.66668ZM8.66643 22.1667H4.87477C4.38943 22.1667 4.3331 22.1114 4.3331 21.625V17.8333C4.3331 17.546 4.21896 17.2705 4.0158 17.0673C3.81263 16.8641 3.53708 16.75 3.24977 16.75C2.96245 16.75 2.6869 16.8641 2.48373 17.0673C2.28057 17.2705 2.16643 17.546 2.16643 17.8333V21.625C2.13697 21.9881 2.18681 22.3533 2.3125 22.6953C2.43819 23.0373 2.63672 23.3478 2.89434 23.6054C3.15196 23.8631 3.46251 24.0616 3.80447 24.1873C4.14643 24.313 4.51163 24.3628 4.87477 24.3333H8.66643C8.95375 24.3333 9.2293 24.2192 9.43247 24.016C9.63563 23.8129 9.74977 23.5373 9.74977 23.25C9.74977 22.9627 9.63563 22.6871 9.43247 22.484C9.2293 22.2808 8.95375 22.1667 8.66643 22.1667ZM22.7498 16.75C22.4625 16.75 22.1869 16.8641 21.9837 17.0673C21.7806 17.2705 21.6664 17.546 21.6664 17.8333V21.625C21.6664 22.1114 21.6101 22.1667 21.1248 22.1667H17.3331C17.0458 22.1667 16.7702 22.2808 16.5671 22.484C16.3639 22.6871 16.2498 22.9627 16.2498 23.25C16.2498 23.5373 16.3639 23.8129 16.5671 24.016C16.7702 24.2192 17.0458 24.3333 17.3331 24.3333H21.1248C21.4879 24.3628 21.8531 24.313 22.1951 24.1873C22.537 24.0616 22.8476 23.8631 23.1052 23.6054C23.3628 23.3478 23.5613 23.0373 23.687 22.6953C23.8127 22.3533 23.8626 21.9881 23.8331 21.625V17.8333C23.8331 17.546 23.719 17.2705 23.5158 17.0673C23.3126 16.8641 23.0371 16.75 22.7498 16.75Z" fill="black"/>
</svg>
