<svg width="25" height="24" viewBox="0 0 25 24" fill="none" xmlns="http://www.w3.org/2000/svg">
<path d="M15.5817 2.5H15.7168C15.8253 3.83992 15.3138 4.84111 14.6923 5.56613C14.0824 6.28615 13.2472 6.98448 11.8965 6.87852C11.8064 5.55779 12.3186 4.63086 12.9394 3.9075C13.5151 3.23337 14.5705 2.63349 15.5817 2.5ZM19.6707 16.4465V16.4841C19.2911 17.6338 18.7496 18.6191 18.0888 19.5335C17.4856 20.3637 16.7464 21.4808 15.4265 21.4808C14.286 21.4808 13.5284 20.7474 12.3595 20.7274C11.1231 20.7074 10.4431 21.3406 9.31257 21.5H8.92712C8.09697 21.3799 7.42701 20.7224 6.93893 20.13C5.49973 18.3796 4.38758 16.1186 4.18066 13.2252V12.375C4.26827 10.3042 5.27446 8.62058 6.61188 7.80462C7.31771 7.37077 8.28803 7.00116 9.36847 7.16636C9.83152 7.23811 10.3046 7.39663 10.7192 7.55348C11.1122 7.7045 11.6036 7.97231 12.0692 7.95813C12.3845 7.94895 12.6983 7.78459 13.0161 7.66862C13.9472 7.33239 14.86 6.94693 16.0631 7.12798C17.5089 7.34657 18.5352 7.989 19.1692 8.98017C17.9461 9.7586 16.9792 10.9317 17.1444 12.9349C17.2912 14.7545 18.3491 15.8191 19.6707 16.4465Z" fill="black"/>
</svg>
