<svg width="960" height="1000" viewBox="0 0 960 1000" fill="none" xmlns="http://www.w3.org/2000/svg">
<g clip-path="url(#clip0_70_2729)">
<rect width="960" height="1000" fill="#08D0C2" fill-opacity="0.05"/>
<g filter="url(#filter0_d_70_2729)">
<rect x="104.582" y="159" width="672.3" height="899.663" transform="rotate(7.73884 104.582 159)" fill="white"/>
</g>
<path d="M416.695 201.415L377.097 492.802L187.871 467.087L157.323 691.871L479.632 735.671L436.981 1049.53" stroke="white" stroke-width="3.26359"/>
<path d="M-15.3927 1041.85L3.82879 900.403L544.907 1037.77L683.012 895.226L650.784 1132.38L-15.3927 1041.85Z" fill="white"/>
<g opacity="0.1" filter="url(#filter1_f_70_2729)">
<rect x="104.582" y="159" width="25.0209" height="899.663" transform="rotate(7.73884 104.582 159)" fill="url(#paint0_linear_70_2729)"/>
</g>
<path d="M217.174 522.416L215.636 533.735L230.835 535.801L229.859 542.98L214.66 540.914L213.034 552.88L230.174 555.209L229.172 562.582L202.977 559.022L209.121 513.813L235.315 517.372L234.313 524.746L217.174 522.416ZM262.196 530.05C266.465 530.63 269.729 532.457 271.991 535.531C274.257 538.562 275.063 542.492 274.407 547.321L271.55 568.341L262.495 567.11L265.185 547.319C265.571 544.473 265.156 542.199 263.938 540.497C262.726 538.751 260.891 537.711 258.434 537.377C255.933 537.037 253.844 537.544 252.167 538.897C250.539 540.213 249.531 542.294 249.145 545.139L246.455 564.931L237.4 563.7L242.27 527.869L251.324 529.099L250.718 533.562C252.136 532.174 253.831 531.175 255.802 530.564C257.823 529.917 259.954 529.745 262.196 530.05ZM299.144 535.005C301.817 535.368 304.094 536.227 305.974 537.58C307.86 538.89 309.271 540.465 310.207 542.305L310.901 537.196L320.02 538.435L315.116 574.525C314.665 577.845 313.595 580.708 311.907 583.113C310.213 585.562 307.926 587.359 305.048 588.505C302.164 589.694 298.824 590.03 295.03 589.515C289.942 588.823 285.921 587.069 282.966 584.252C280.054 581.441 278.661 577.959 278.787 573.804L287.777 575.025C288.029 576.728 288.866 578.16 290.289 579.319C291.75 580.528 293.601 581.284 295.844 581.589C298.474 581.946 300.717 581.439 302.572 580.066C304.421 578.736 305.563 576.476 305.996 573.286L306.752 567.723C305.36 569.247 303.552 570.428 301.33 571.268C299.151 572.114 296.747 572.358 294.117 572.001C291.098 571.59 288.444 570.439 286.154 568.547C283.864 566.655 282.177 564.208 281.092 561.206C280.055 558.167 279.786 554.815 280.284 551.15C280.777 547.528 281.925 544.412 283.728 541.803C285.575 539.199 287.83 537.31 290.493 536.135C293.199 534.966 296.083 534.589 299.144 535.005ZM308.466 555.111C308.765 552.912 308.589 550.978 307.937 549.309C307.292 547.596 306.292 546.23 304.937 545.212C303.588 544.15 302.073 543.505 300.391 543.277C298.71 543.048 297.102 543.247 295.568 543.873C294.033 544.499 292.705 545.548 291.583 547.02C290.509 548.455 289.826 550.251 289.533 552.407C289.24 554.563 289.414 556.518 290.053 558.274C290.742 559.992 291.739 561.379 293.045 562.435C294.394 563.497 295.888 564.139 297.526 564.362C299.208 564.59 300.837 564.394 302.414 563.774C303.998 563.111 305.326 562.062 306.399 560.627C307.478 559.149 308.167 557.31 308.466 555.111ZM339.554 528.837L333.05 576.698L323.995 575.468L330.499 527.607L339.554 528.837ZM352.037 538.438C350.442 538.222 349.173 537.544 348.229 536.406C347.335 535.23 346.991 533.888 347.196 532.379C347.401 530.87 348.088 529.69 349.258 528.839C350.476 527.95 351.883 527.614 353.479 527.831C355.074 528.048 356.319 528.744 357.213 529.92C358.156 531.058 358.525 532.382 358.32 533.891C358.115 535.4 357.403 536.599 356.185 537.487C355.015 538.338 353.633 538.655 352.037 538.438ZM355.92 543.313L351.051 579.145L341.996 577.914L346.865 542.083L355.92 543.313ZM373.629 582.806C370.697 582.407 368.137 581.533 365.95 580.181C363.768 578.787 362.11 577.091 360.976 575.092C359.886 573.099 359.425 570.995 359.595 568.778L368.714 570.018C368.699 571.421 369.212 572.654 370.253 573.718C371.337 574.787 372.764 575.442 374.531 575.683C376.256 575.917 377.64 575.754 378.682 575.193C379.767 574.638 380.383 573.821 380.53 572.743C380.688 571.579 380.202 570.635 379.071 569.91C377.988 569.148 376.201 568.246 373.707 567.205C371.122 566.195 369.014 565.228 367.383 564.303C365.795 563.385 364.472 562.129 363.415 560.537C362.401 558.95 362.058 556.949 362.387 554.534C362.656 552.551 363.463 550.816 364.807 549.33C366.193 547.85 368.008 546.779 370.249 546.117C372.534 545.462 375.121 545.33 378.01 545.723C382.279 546.303 385.539 547.844 387.79 550.345C390.046 552.804 391.058 555.861 390.825 559.519L382.158 558.341C382.222 556.9 381.771 555.697 380.804 554.731C379.886 553.728 378.544 553.107 376.776 552.867C375.137 552.644 373.824 552.773 372.837 553.254C371.892 553.74 371.347 554.522 371.2 555.6C371.036 556.807 371.514 557.817 372.633 558.627C373.759 559.395 375.549 560.275 378.005 561.268C380.505 562.266 382.548 563.224 384.136 564.143C385.724 565.061 387.022 566.336 388.03 567.966C389.087 569.558 389.476 571.544 389.197 573.921C388.915 575.991 388.081 577.766 386.695 579.246C385.351 580.732 383.537 581.803 381.252 582.458C379.016 583.077 376.475 583.193 373.629 582.806ZM420.36 551.544C423.076 551.913 425.409 552.845 427.358 554.339C429.312 555.79 430.713 557.759 431.561 560.246C432.458 562.695 432.687 565.537 432.247 568.771L429.391 589.791L420.336 588.56L423.025 568.769C423.412 565.923 422.996 563.649 421.779 561.947C420.567 560.201 418.732 559.161 416.274 558.827C413.773 558.487 411.684 558.994 410.007 560.347C408.379 561.663 407.372 563.743 406.985 566.589L404.296 586.381L395.241 585.15L401.745 537.289L410.8 538.519L408.559 555.012C409.934 553.618 411.65 552.622 413.708 552.023C415.771 551.381 417.988 551.221 420.36 551.544ZM218.632 651.289L200.651 648.846L196.507 657.044L187 655.752L209.378 612.748L219.92 614.181L230.01 661.597L220.438 660.296L218.632 651.289ZM217.158 643.712L213.192 623.938L204.094 641.936L217.158 643.712ZM236.184 644.189C236.688 640.481 237.882 637.35 239.767 634.795C241.657 632.198 244.041 630.326 246.919 629.18C249.804 627.991 252.97 627.631 256.42 628.1C260.861 628.703 264.374 630.322 266.958 632.957C269.591 635.555 271.131 638.926 271.578 643.071L261.812 641.743C261.505 640.121 260.785 638.793 259.652 637.761C258.568 636.692 257.12 636.034 255.309 635.788C252.722 635.436 250.545 636.106 248.778 637.798C247.017 639.447 245.902 641.997 245.433 645.446C244.97 648.852 245.365 651.607 246.616 653.709C247.873 655.768 249.795 656.974 252.382 657.325C256.047 657.823 258.663 656.51 260.23 653.385L269.996 654.713C268.477 658.458 266.096 661.275 262.853 663.162C259.611 665.048 255.79 665.693 251.392 665.095C247.943 664.626 244.984 663.456 242.516 661.583C240.053 659.668 238.255 657.228 237.121 654.263C235.993 651.255 235.681 647.897 236.184 644.189ZM289.387 640.748L287.031 658.081C286.867 659.289 287.027 660.211 287.512 660.848C288.045 661.447 289.001 661.84 290.381 662.028L294.585 662.599L293.548 670.231L287.856 669.458C280.225 668.421 276.913 664.194 277.92 656.777L280.267 639.509L275.998 638.929L277.009 631.491L281.278 632.071L282.482 623.21L291.602 624.449L290.397 633.31L298.417 634.4L297.407 641.838L289.387 640.748ZM310.102 631.64C308.507 631.424 307.238 630.746 306.294 629.608C305.4 628.432 305.056 627.09 305.261 625.581C305.466 624.072 306.153 622.892 307.323 622.041C308.541 621.152 309.948 620.816 311.544 621.033C313.139 621.25 314.384 621.946 315.278 623.122C316.221 624.26 316.59 625.584 316.385 627.093C316.18 628.602 315.468 629.801 314.25 630.689C313.08 631.54 311.698 631.857 310.102 631.64ZM313.985 636.515L309.116 672.347L300.061 671.116L304.93 635.285L313.985 636.515ZM334.136 667.249L346.926 640.992L356.563 642.302L338.435 676.331L327.44 674.837L319.115 637.213L328.817 638.531L334.136 667.249ZM366.821 639.348C365.226 639.131 363.957 638.454 363.013 637.316C362.119 636.14 361.775 634.798 361.98 633.289C362.185 631.78 362.872 630.6 364.042 629.748C365.26 628.86 366.667 628.524 368.263 628.741C369.858 628.958 371.103 629.654 371.997 630.83C372.94 631.968 373.309 633.291 373.104 634.801C372.899 636.31 372.187 637.508 370.969 638.397C369.799 639.248 368.417 639.565 366.821 639.348ZM370.704 644.223L365.835 680.055L356.78 678.824L361.649 642.993L370.704 644.223ZM389.182 654.31L386.826 671.643C386.662 672.851 386.822 673.773 387.307 674.409C387.84 675.009 388.797 675.402 390.176 675.59L394.38 676.161L393.343 683.793L387.652 683.019C380.02 681.982 376.708 677.756 377.715 670.339L380.062 653.07L375.794 652.49L376.804 645.052L381.073 645.632L382.277 636.772L391.397 638.011L390.193 646.872L398.213 647.962L397.202 655.4L389.182 654.31ZM439.004 653.505L409.648 703.267L400.011 701.957L410.198 685.161L400.586 648.284L410.74 649.664L416.588 675.951L429.367 652.195L439.004 653.505ZM483.186 672.42C485.666 673.24 487.584 674.796 488.941 677.089C490.299 679.381 490.796 681.864 490.432 684.537C490.104 686.952 489.21 689.004 487.751 690.694C486.341 692.347 484.444 693.538 482.062 694.268C479.679 694.999 476.957 695.156 473.895 694.74L454.427 692.094L460.562 646.949L479.189 649.481C482.251 649.897 484.814 650.75 486.878 652.04C488.985 653.337 490.479 654.945 491.36 656.865C492.284 658.791 492.594 660.875 492.289 663.118C491.932 665.748 490.921 667.85 489.258 669.425C487.638 671.005 485.614 672.003 483.186 672.42ZM467.086 666.807L475.365 667.932C477.521 668.225 479.245 667.976 480.538 667.186C481.837 666.352 482.61 665.03 482.856 663.219C483.102 661.408 482.71 659.928 481.681 658.778C480.651 657.628 479.059 656.906 476.903 656.613L468.624 655.488L467.086 666.807ZM473.604 687.191C475.803 687.489 477.576 687.203 478.924 686.333C480.315 685.468 481.14 684.087 481.398 682.19C481.661 680.249 481.22 678.652 480.072 677.398C478.931 676.102 477.261 675.304 475.062 675.005L466.137 673.792L464.484 685.951L473.604 687.191ZM511.819 700.486C508.37 700.017 505.368 698.841 502.813 696.957C500.265 695.029 498.383 692.556 497.169 689.537C495.997 686.523 495.661 683.184 496.159 679.519C496.657 675.854 497.894 672.728 499.87 670.142C501.889 667.562 504.403 665.708 507.411 664.58C510.424 663.408 513.656 663.057 517.105 663.526C520.555 663.995 523.575 665.196 526.167 667.129C528.765 669.019 530.671 671.473 531.885 674.493C533.143 677.518 533.523 680.863 533.025 684.529C532.527 688.194 531.246 691.313 529.184 693.887C527.165 696.467 524.626 698.34 521.57 699.506C518.562 700.634 515.312 700.961 511.819 700.486ZM512.891 692.595C514.53 692.818 516.113 692.638 517.642 692.055C519.219 691.435 520.547 690.386 521.627 688.908C522.706 687.43 523.401 685.548 523.711 683.263C524.174 679.857 523.623 677.125 522.058 675.068C520.542 672.973 518.491 671.75 515.904 671.399C513.317 671.047 511.013 671.678 508.993 673.292C507.023 674.869 505.806 677.36 505.343 680.767C504.88 684.173 505.363 686.917 506.793 689C508.272 691.045 510.304 692.244 512.891 692.595ZM553.064 706.091C549.614 705.622 546.612 704.446 544.058 702.562C541.509 700.634 539.628 698.161 538.413 695.142C537.242 692.128 536.905 688.789 537.403 685.124C537.901 681.458 539.138 678.333 541.115 675.747C543.134 673.167 545.647 671.313 548.655 670.185C551.669 669.013 554.9 668.662 558.35 669.131C561.799 669.6 564.82 670.8 567.412 672.734C570.009 674.624 571.915 677.078 573.13 680.098C574.387 683.123 574.767 686.468 574.269 690.133C573.771 693.799 572.491 696.918 570.428 699.492C568.409 702.072 565.871 703.945 562.814 705.111C559.806 706.239 556.556 706.566 553.064 706.091ZM554.136 698.2C555.774 698.423 557.358 698.243 558.886 697.66C560.464 697.04 561.792 695.991 562.871 694.513C563.95 693.035 564.645 691.153 564.956 688.868C565.419 685.461 564.868 682.73 563.303 680.673C561.787 678.578 559.735 677.355 557.148 677.004C554.561 676.652 552.258 677.283 550.238 678.897C548.267 680.474 547.05 682.965 546.587 686.372C546.124 689.778 546.608 692.522 548.037 694.605C549.516 696.65 551.549 697.849 554.136 698.2ZM599.691 711.835L589.606 694.918L587.531 710.182L578.477 708.952L584.981 661.09L594.036 662.321L590.335 689.55L604.431 675.986L616.202 677.585L597.977 693.421L611.462 713.434L599.691 711.835Z" fill="black"/>
<path d="M728.253 289.863L727.616 294.549L724.804 294.167C722.801 293.894 721.304 293.197 720.316 292.076C719.33 290.932 718.988 289.251 719.29 287.032L720.265 279.858L718.067 279.559L718.691 274.97L720.888 275.269L721.486 270.874L727.012 271.625L726.415 276.02L730.034 276.512L729.41 281.101L725.791 280.609L724.807 287.848C724.734 288.386 724.811 288.792 725.037 289.064C725.263 289.336 725.678 289.513 726.281 289.595L728.253 289.863Z" fill="white"/>
<path d="M711.311 277.028C712.092 276.125 713.005 275.459 714.051 275.031C715.1 274.581 716.216 274.436 717.401 274.597L716.606 280.447L715.088 280.24C713.709 280.053 712.634 280.214 711.862 280.723C711.094 281.211 710.608 282.199 710.406 283.685L709.269 292.055L703.743 291.304L706.193 273.272L711.72 274.023L711.311 277.028Z" fill="white"/>
<path d="M681.939 279.126C682.191 277.273 682.757 275.693 683.637 274.386C684.538 273.083 685.643 272.136 686.952 271.546C688.261 270.955 689.659 270.761 691.145 270.963C692.416 271.136 693.491 271.545 694.368 272.191C695.268 272.84 695.919 273.62 696.322 274.53L696.669 271.977L702.195 272.728L699.744 290.761L694.218 290.01L694.565 287.457C693.912 288.224 693.066 288.8 692.026 289.186C691.008 289.574 689.863 289.682 688.592 289.509C687.127 289.31 685.843 288.751 684.739 287.833C683.637 286.894 682.827 285.675 682.306 284.178C681.81 282.663 681.687 280.979 681.939 279.126ZM695.443 280.994C695.631 279.615 695.391 278.474 694.723 277.572C694.078 276.672 693.206 276.148 692.107 275.998C691.008 275.849 690.017 276.12 689.133 276.812C688.273 277.485 687.75 278.511 687.562 279.89C687.375 281.269 687.603 282.419 688.246 283.34C688.913 284.242 689.796 284.768 690.895 284.918C691.993 285.067 692.974 284.794 693.836 284.1C694.72 283.408 695.256 282.373 695.443 280.994Z" fill="white"/>
<path d="M673.085 268.575C675.325 268.879 677.011 269.8 678.14 271.335C679.292 272.874 679.703 274.85 679.375 277.263L677.944 287.799L672.45 287.052L673.781 277.26C673.939 276.097 673.748 275.16 673.208 274.45C672.693 273.722 671.896 273.285 670.819 273.138C669.742 272.992 668.847 273.199 668.134 273.761C667.446 274.304 667.023 275.157 666.865 276.32L665.534 286.112L660.04 285.366L661.371 275.574C661.529 274.41 661.338 273.474 660.798 272.764C660.283 272.036 659.487 271.598 658.409 271.452C657.332 271.305 656.437 271.513 655.725 272.074C655.036 272.617 654.613 273.47 654.455 274.634L653.124 284.426L647.598 283.675L650.049 265.642L655.575 266.393L655.268 268.655C655.93 267.977 656.743 267.484 657.707 267.176C658.673 266.847 659.727 266.76 660.869 266.915C662.226 267.099 663.393 267.554 664.37 268.279C665.368 269.007 666.096 269.951 666.552 271.11C667.312 270.204 668.273 269.512 669.435 269.033C670.597 268.555 671.814 268.402 673.085 268.575Z" fill="white"/>
<path d="M635.893 282.314C634.235 282.089 632.785 281.618 631.544 280.9C630.303 280.183 629.355 279.243 628.701 278.079C628.069 276.917 627.833 275.591 627.992 274.098L633.873 274.898C633.845 275.75 634.048 276.435 634.482 276.955C634.919 277.453 635.536 277.757 636.334 277.865C637.152 277.976 637.823 277.881 638.347 277.579C638.874 277.256 639.183 276.76 639.273 276.092C639.349 275.532 639.219 275.043 638.881 274.624C638.564 274.208 638.142 273.843 637.614 273.53C637.107 273.22 636.368 272.845 635.397 272.406C633.993 271.754 632.859 271.139 631.994 270.561C631.129 269.983 630.423 269.206 629.875 268.232C629.327 267.258 629.15 266.06 629.343 264.638C629.63 262.527 630.619 260.983 632.309 260.006C634.003 259.007 636.078 258.675 638.534 259.008C641.033 259.348 642.966 260.225 644.331 261.639C645.7 263.032 646.293 264.802 646.111 266.95L640.132 266.137C640.189 265.399 639.997 264.791 639.557 264.315C639.12 263.817 638.514 263.515 637.738 263.409C637.071 263.319 636.507 263.429 636.048 263.739C635.592 264.028 635.318 264.507 635.228 265.175C635.128 265.907 635.395 266.525 636.029 267.028C636.663 267.531 637.68 268.119 639.081 268.792C640.478 269.487 641.599 270.122 642.442 270.697C643.307 271.275 644.015 272.041 644.566 272.993C645.116 273.946 645.3 275.101 645.115 276.458C644.94 277.751 644.446 278.88 643.635 279.845C642.845 280.812 641.783 281.524 640.448 281.979C639.114 282.434 637.595 282.546 635.893 282.314Z" fill="white"/>
<path d="M711.547 321.854C709.975 321.64 708.611 321.18 707.456 320.475C706.301 319.769 705.431 318.905 704.846 317.882C704.264 316.838 704.009 315.728 704.081 314.553L709.542 315.295C709.522 315.928 709.744 316.474 710.208 316.932C710.673 317.39 711.282 317.671 712.036 317.773C712.725 317.867 713.271 317.809 713.672 317.601C714.098 317.373 714.34 317.044 714.399 316.613C714.469 316.096 714.251 315.682 713.745 315.372C713.241 315.041 712.407 314.642 711.241 314.176C709.989 313.699 708.955 313.24 708.137 312.8C707.322 312.338 706.65 311.709 706.122 310.913C705.597 310.096 705.418 309.073 705.585 307.845C705.725 306.811 706.133 305.912 706.807 305.148C707.506 304.365 708.438 303.801 709.604 303.454C710.792 303.111 712.151 303.043 713.68 303.251C715.943 303.559 717.644 304.36 718.784 305.656C719.946 306.955 720.498 308.544 720.44 310.424L715.334 309.73C715.333 309.093 715.12 308.56 714.696 308.129C714.293 307.701 713.715 307.436 712.961 307.334C712.315 307.246 711.802 307.308 711.422 307.519C711.045 307.709 710.827 308.02 710.769 308.451C710.698 308.968 710.915 309.392 711.418 309.724C711.943 310.059 712.77 310.434 713.898 310.851C715.187 311.377 716.228 311.87 717.022 312.329C717.818 312.766 718.477 313.404 719 314.243C719.546 315.064 719.746 316.1 719.597 317.352C719.454 318.408 719.024 319.315 718.306 320.073C717.613 320.813 716.674 321.344 715.49 321.665C714.326 321.99 713.012 322.053 711.547 321.854Z" fill="white"/>
<path d="M695.29 319.381L690.824 311.073L689.796 318.635L684.27 317.884L687.52 293.969L693.046 294.72L691.249 307.938L697.708 301.344L704.527 302.271L695.8 310.301L702.141 320.312L695.29 319.381Z" fill="white"/>
<path d="M642.901 300.413C644.177 300.871 645.143 301.672 645.8 302.814C646.459 303.935 646.7 305.153 646.521 306.467C646.264 308.363 645.391 309.78 643.903 310.719C642.439 311.639 640.522 311.938 638.153 311.616L627.585 310.18L630.668 287.494L640.88 288.882C643.185 289.195 644.913 289.967 646.062 291.199C647.233 292.433 647.695 293.955 647.449 295.765C647.268 297.1 646.761 298.162 645.93 298.948C645.121 299.738 644.111 300.226 642.901 300.413ZM634.947 297.423L638.566 297.915C639.471 298.038 640.187 297.937 640.714 297.614C641.265 297.272 641.593 296.713 641.699 295.938C641.804 295.162 641.637 294.536 641.197 294.059C640.778 293.585 640.117 293.287 639.212 293.164L635.592 292.672L634.947 297.423ZM637.789 307.025C638.716 307.151 639.454 307.043 640.005 306.701C640.581 306.34 640.923 305.761 641.031 304.964C641.14 304.167 640.955 303.506 640.478 302.98C640.023 302.457 639.332 302.133 638.405 302.007L634.398 301.462L633.717 306.472L637.789 307.025Z" fill="white"/>
<g clip-path="url(#clip1_70_2729)">
<path d="M657.967 292.577L657.965 292.577C657.835 292.559 657.703 292.567 657.577 292.599C657.45 292.632 657.332 292.688 657.228 292.766C657.122 292.844 657.033 292.943 656.967 293.055C656.9 293.167 656.857 293.292 656.84 293.421L654.846 308.095C654.772 308.633 655.161 309.133 655.711 309.209C658.033 309.53 661.858 310.533 664.167 313.653L666.254 298.296C666.279 298.114 666.255 297.936 666.185 297.782C664.455 294.003 660.294 292.899 657.967 292.577ZM676.183 310.994L678.177 296.32C678.213 296.058 678.142 295.797 677.978 295.586C677.899 295.483 677.8 295.397 677.686 295.332C677.573 295.267 677.448 295.224 677.318 295.207L677.316 295.207C674.988 294.896 670.683 294.849 668.008 298.03C667.899 298.159 667.828 298.324 667.803 298.507L665.716 313.863C668.774 311.473 672.729 311.527 675.052 311.837C675.603 311.91 676.11 311.532 676.183 310.994Z" fill="black"/>
<path d="M681.8 297.43L680.998 297.321L679.114 311.185C678.903 312.738 677.466 313.832 675.911 313.624C673.727 313.333 670.069 313.27 667.192 315.337C671.748 314.857 676.301 316.19 678.868 317.154C679.025 317.213 679.194 317.236 679.361 317.221C679.528 317.207 679.69 317.154 679.834 317.068C679.978 316.982 680.101 316.865 680.194 316.725C680.286 316.585 680.345 316.426 680.367 316.26L682.756 298.686C682.839 298.076 682.41 297.513 681.8 297.43ZM652.026 307.504L653.91 293.64L653.109 293.531C652.499 293.448 651.936 293.877 651.853 294.487L649.464 312.06C649.419 312.399 649.527 312.734 649.763 312.981C649.879 313.102 650.02 313.196 650.178 313.255C650.335 313.314 650.504 313.337 650.671 313.322C653.402 313.078 658.146 313.008 662.409 314.687C660.187 311.927 656.645 311.011 654.463 310.709C652.908 310.494 651.815 309.056 652.026 307.504Z" fill="black"/>
</g>
<g filter="url(#filter2_d_70_2729)">
<rect x="53.7822" y="209.122" width="624.682" height="835.942" transform="rotate(1.38709 53.7822 209.122)" fill="white"/>
</g>
<path d="M346.369 216.207L339.755 489.364L162.367 485.069L157.265 695.79L459.409 703.106L452.285 997.325" stroke="#08D0C2" stroke-width="3.03244"/>
<path d="M33.7429 1036.73L36.9535 904.141L550.742 975.37L663.625 829.543L658.242 1051.86L33.7429 1036.73Z" fill="#08D0C2"/>
<g opacity="0.1" filter="url(#filter3_f_70_2729)">
<rect x="53.7822" y="209.122" width="23.2487" height="835.942" transform="rotate(1.38709 53.7822 209.122)" fill="url(#paint1_linear_70_2729)"/>
</g>
<path d="M195.113 533.251L194.856 543.861L209.104 544.206L208.941 550.936L194.693 550.591L194.421 561.808L210.489 562.197L210.321 569.109L185.766 568.515L186.792 526.133L211.348 526.728L211.18 533.64L195.113 533.251ZM237.474 535.672C241.476 535.769 244.678 537.12 247.082 539.727C249.487 542.292 250.635 545.839 250.525 550.366L250.048 570.071L241.56 569.866L242.009 551.312C242.074 548.645 241.456 546.587 240.157 545.14C238.858 543.653 237.057 542.881 234.753 542.825C232.408 542.769 230.531 543.451 229.122 544.873C227.754 546.256 227.037 548.281 226.973 550.948L226.524 569.501L218.035 569.296L218.849 535.706L227.337 535.912L227.236 540.095C228.403 538.668 229.865 537.571 231.623 536.804C233.422 535.999 235.372 535.621 237.474 535.672ZM272.104 536.45C274.61 536.511 276.801 537.069 278.676 538.126C280.552 539.142 282.017 540.451 283.07 542.054L283.186 537.264L291.735 537.471L290.916 571.303C290.84 574.416 290.147 577.169 288.835 579.564C287.522 582 285.596 583.894 283.056 585.248C280.514 586.643 277.465 587.297 273.908 587.211C269.138 587.095 265.244 585.889 262.226 583.591C259.249 581.295 257.604 578.222 257.293 574.372L265.721 574.576C266.128 576.123 267.049 577.358 268.482 578.283C269.955 579.249 271.743 579.757 273.845 579.808C276.31 579.868 278.329 579.168 279.901 577.71C281.473 576.292 282.294 574.087 282.367 571.096L282.493 565.882C281.364 567.432 279.816 568.709 277.85 569.713C275.925 570.718 273.73 571.19 271.264 571.131C268.435 571.062 265.865 570.272 263.556 568.76C261.247 567.248 259.437 565.162 258.126 562.501C256.857 559.801 256.264 556.733 256.347 553.298C256.429 549.902 257.169 546.907 258.567 544.312C260.005 541.718 261.893 539.741 264.231 538.383C266.61 537.025 269.234 536.38 272.104 536.45ZM282.779 554.059C282.829 551.998 282.468 550.229 281.694 548.755C280.922 547.24 279.858 546.081 278.503 545.28C277.148 544.438 275.682 543.998 274.106 543.96C272.53 543.922 271.065 544.271 269.713 545.007C268.36 545.742 267.241 546.848 266.356 548.323C265.513 549.758 265.066 551.487 265.017 553.508C264.969 555.529 265.33 557.317 266.101 558.872C266.913 560.389 267.977 561.567 269.291 562.408C270.646 563.249 272.091 563.689 273.627 563.726C275.204 563.764 276.688 563.416 278.081 562.681C279.475 561.906 280.594 560.801 281.438 559.365C282.282 557.889 282.729 556.12 282.779 554.059ZM308.787 526.6L307.7 571.467L299.212 571.262L300.298 526.395L308.787 526.6ZM321.302 534.183C319.806 534.147 318.565 533.652 317.577 532.698C316.63 531.704 316.174 530.5 316.208 529.085C316.242 527.67 316.756 526.51 317.748 525.604C318.782 524.658 320.047 524.203 321.543 524.24C323.038 524.276 324.259 524.791 325.206 525.784C326.194 526.739 326.671 527.923 326.637 529.338C326.602 530.752 326.068 531.933 325.034 532.878C324.042 533.784 322.797 534.219 321.302 534.183ZM325.389 538.286L324.575 571.876L316.087 571.67L316.9 538.081L325.389 538.286ZM345.802 572.936C343.054 572.869 340.6 572.324 338.441 571.301C336.282 570.238 334.577 568.842 333.325 567.113C332.113 565.385 331.471 563.489 331.4 561.424L339.949 561.631C340.079 562.929 340.68 564.015 341.75 564.89C342.862 565.766 344.246 566.225 345.903 566.265C347.52 566.304 348.781 566.011 349.686 565.386C350.631 564.761 351.116 563.944 351.14 562.934C351.167 561.842 350.621 561.02 349.501 560.467C348.424 559.875 346.68 559.226 344.271 558.521C341.779 557.854 339.733 557.177 338.132 556.491C336.571 555.806 335.221 554.783 334.081 553.421C332.981 552.059 332.459 550.247 332.514 547.983C332.559 546.124 333.125 544.439 334.214 542.928C335.342 541.419 336.907 540.243 338.91 539.402C340.952 538.562 343.328 538.174 346.036 538.24C350.037 538.337 353.206 539.425 355.542 541.504C357.879 543.542 359.127 546.262 359.288 549.663L351.163 549.466C351.074 548.129 350.534 547.065 349.542 546.272C348.591 545.44 347.287 545.004 345.63 544.964C344.094 544.927 342.895 545.181 342.032 545.726C341.21 546.273 340.787 547.051 340.763 548.062C340.735 549.193 341.28 550.076 342.397 550.71C343.515 551.303 345.259 551.932 347.629 552.596C350.04 553.261 352.026 553.936 353.586 554.621C355.147 555.306 356.477 556.349 357.575 557.751C358.715 559.113 359.278 560.906 359.265 563.13C359.218 565.071 358.63 566.795 357.502 568.305C356.414 569.815 354.848 570.991 352.806 571.831C350.804 572.632 348.47 573 345.802 572.936ZM385.743 539.262C388.289 539.324 390.539 539.945 392.492 541.124C394.447 542.264 395.943 543.938 396.981 546.147C398.061 548.317 398.565 550.917 398.491 553.949L398.014 573.654L389.526 573.448L389.975 554.895C390.039 552.228 389.422 550.17 388.122 548.723C386.824 547.236 385.022 546.464 382.718 546.408C380.374 546.351 378.497 547.034 377.088 548.456C375.719 549.838 375.003 551.863 374.938 554.531L374.489 573.084L366.001 572.879L367.087 528.012L375.576 528.217L375.201 543.678C376.328 542.25 377.81 541.153 379.649 540.389C381.488 539.584 383.52 539.208 385.743 539.262ZM209.708 652.052L192.853 651.644L189.869 659.641L180.956 659.425L197.2 617.412L207.083 617.651L221.275 660.401L212.302 660.184L209.708 652.052ZM207.569 645.206L201.874 627.353L195.321 644.909L207.569 645.206ZM225.188 643.691C225.272 640.215 226.053 637.201 227.53 634.648C229.008 632.055 231.018 630.081 233.558 628.727C236.099 627.333 238.987 626.675 242.221 626.753C246.384 626.854 249.794 627.988 252.451 630.155C255.15 632.283 256.919 635.238 257.757 639.02L248.602 638.798C248.152 637.331 247.351 636.179 246.199 635.343C245.087 634.466 243.683 634.008 241.985 633.967C239.56 633.908 237.618 634.751 236.161 636.495C234.704 638.199 233.936 640.667 233.858 643.901C233.781 647.094 234.428 649.597 235.8 651.41C237.172 653.182 239.071 654.098 241.496 654.157C244.932 654.24 247.213 652.758 248.338 649.712L257.493 649.933C256.475 653.549 254.566 656.394 251.766 658.47C248.965 660.546 245.504 661.534 241.381 661.434C238.147 661.356 235.294 660.579 232.823 659.103C230.352 657.587 228.44 655.519 227.088 652.898C225.737 650.236 225.104 647.167 225.188 643.691ZM273.965 635.044L273.571 651.293C273.544 652.425 273.786 653.26 274.299 653.798C274.853 654.297 275.777 654.562 277.07 654.593L281.011 654.689L280.838 661.843L275.503 661.714C268.348 661.541 264.855 657.978 265.024 651.026L265.416 634.837L261.414 634.74L261.583 627.768L265.584 627.865L265.786 619.558L274.334 619.765L274.133 628.072L281.652 628.254L281.483 635.226L273.965 635.044ZM292.159 624.504C290.663 624.468 289.421 623.973 288.433 623.019C287.487 622.025 287.03 620.821 287.065 619.406C287.099 617.991 287.612 616.831 288.605 615.925C289.639 614.979 290.904 614.524 292.399 614.561C293.895 614.597 295.116 615.112 296.063 616.105C297.051 617.06 297.527 618.244 297.493 619.659C297.459 621.073 296.925 622.254 295.891 623.199C294.898 624.105 293.654 624.54 292.159 624.504ZM296.245 628.607L295.432 662.197L286.944 661.991L287.757 628.402L296.245 628.607ZM318.013 654.917L327.126 629.355L336.16 629.574L322.917 662.862L312.61 662.613L301.054 628.724L310.149 628.944L318.013 654.917ZM345.329 625.792C343.834 625.755 342.592 625.26 341.604 624.306C340.657 623.312 340.201 622.108 340.235 620.694C340.269 619.279 340.783 618.118 341.775 617.212C342.809 616.267 344.074 615.812 345.57 615.848C347.065 615.884 348.286 616.399 349.233 617.393C350.221 618.347 350.698 619.531 350.664 620.946C350.629 622.361 350.095 623.541 349.061 624.487C348.069 625.393 346.825 625.828 345.329 625.792ZM349.416 629.895L348.602 663.484L340.114 663.279L340.927 629.689L349.416 629.895ZM367.516 637.31L367.123 653.559C367.095 654.69 367.338 655.525 367.851 656.064C368.405 656.562 369.329 656.827 370.622 656.859L374.563 656.954L374.39 664.109L369.054 663.979C361.9 663.806 358.407 660.243 358.575 653.291L358.967 637.102L354.966 637.006L355.134 630.033L359.136 630.13L359.337 621.823L367.886 622.03L367.685 630.337L375.203 630.519L375.034 637.492L367.516 637.31ZM413.443 631.445L391.449 680.416L382.415 680.197L390.095 663.64L377.428 630.573L386.947 630.803L395.049 654.477L404.409 631.226L413.443 631.445ZM456.188 644.371C458.562 644.873 460.494 646.113 461.983 648.09C463.472 650.068 464.186 652.309 464.125 654.815C464.07 657.079 463.456 659.066 462.282 660.777C461.15 662.448 459.521 663.743 457.395 664.662C455.27 665.582 452.772 666.007 449.903 665.937L431.653 665.495L432.677 623.175L450.139 623.598C453.009 623.667 455.463 624.192 457.502 625.171C459.582 626.152 461.127 627.483 462.138 629.166C463.189 630.85 463.689 632.742 463.638 634.844C463.578 637.31 462.861 639.355 461.487 640.98C460.154 642.606 458.387 643.736 456.188 644.371ZM440.743 640.842L448.504 641.03C450.525 641.079 452.092 640.672 453.205 639.809C454.318 638.906 454.896 637.605 454.937 635.908C454.978 634.21 454.464 632.883 453.395 631.927C452.327 630.971 450.782 630.468 448.761 630.419L441 630.232L440.743 640.842ZM448.857 658.996C450.919 659.046 452.527 658.599 453.682 657.657C454.878 656.715 455.497 655.355 455.54 653.576C455.585 651.757 455.012 650.328 453.824 649.288C452.637 648.208 451.013 647.643 448.951 647.593L440.584 647.39L440.308 658.789L448.857 658.996ZM485.515 667.345C482.281 667.267 479.388 666.489 476.835 665.012C474.284 663.494 472.292 661.403 470.86 658.74C469.468 656.077 468.814 653.028 468.897 649.592C468.981 646.157 469.802 643.143 471.361 640.552C472.961 637.962 475.091 635.991 477.753 634.64C480.415 633.249 483.363 632.592 486.597 632.67C489.831 632.749 492.744 633.547 495.336 635.066C497.929 636.544 499.941 638.615 501.373 641.279C502.846 643.943 503.54 646.993 503.457 650.429C503.374 653.865 502.512 656.877 500.872 659.467C499.273 662.057 497.121 664.047 494.418 665.438C491.757 666.789 488.789 667.425 485.515 667.345ZM485.694 659.948C487.23 659.986 488.674 659.656 490.025 658.961C491.418 658.227 492.537 657.121 493.381 655.645C494.226 654.169 494.674 652.36 494.726 650.218C494.803 647.025 494.014 644.559 492.357 642.82C490.742 641.042 488.722 640.123 486.297 640.064C483.871 640.006 481.809 640.825 480.11 642.523C478.452 644.182 477.584 646.608 477.507 649.801C477.43 652.994 478.158 655.479 479.692 657.255C481.268 658.992 483.269 659.89 485.694 659.948ZM524.179 668.282C520.945 668.203 518.052 667.425 515.499 665.948C512.948 664.43 510.956 662.34 509.524 659.676C508.132 657.013 507.478 653.964 507.561 650.529C507.645 647.093 508.466 644.079 510.025 641.488C511.625 638.898 513.755 636.927 516.417 635.576C519.079 634.185 522.027 633.528 525.261 633.606C528.495 633.685 531.408 634.483 534 636.002C536.593 637.48 538.605 639.551 540.037 642.215C541.51 644.879 542.204 647.93 542.121 651.365C542.038 654.801 541.176 657.814 539.536 660.403C537.937 662.993 535.785 664.983 533.082 666.374C530.421 667.725 527.453 668.361 524.179 668.282ZM524.358 660.885C525.894 660.922 527.338 660.593 528.689 659.897C530.082 659.163 531.201 658.057 532.045 656.581C532.89 655.105 533.338 653.296 533.39 651.154C533.468 647.961 532.678 645.495 531.021 643.756C529.406 641.978 527.386 641.059 524.961 641.001C522.536 640.942 520.473 641.761 518.774 643.459C517.116 645.118 516.248 647.544 516.171 650.737C516.094 653.93 516.822 656.415 518.357 658.191C519.932 659.928 521.933 660.826 524.358 660.885ZM567.828 668.792L556.776 654.208L556.429 668.516L547.941 668.311L549.027 623.444L557.516 623.65L556.898 649.175L568.52 635.2L579.555 635.467L564.353 651.964L578.863 669.06L567.828 668.792Z" fill="black"/>
<path d="M643.174 265.859L643.068 270.251L640.432 270.188C638.554 270.142 637.101 269.652 636.072 268.718C635.045 267.764 634.556 266.246 634.606 264.166L634.769 257.44L632.709 257.391L632.813 253.089L634.873 253.139L634.973 249.018L640.154 249.144L640.054 253.264L643.447 253.346L643.343 257.648L639.95 257.566L639.785 264.352C639.773 264.857 639.885 265.223 640.122 265.451C640.359 265.679 640.761 265.8 641.326 265.814L643.174 265.859Z" fill="black"/>
<path d="M626.209 255.748C626.838 254.834 627.613 254.125 628.534 253.622C629.456 253.098 630.473 252.85 631.584 252.877L631.451 258.361L630.027 258.326C628.734 258.295 627.758 258.554 627.098 259.104C626.439 259.634 626.092 260.595 626.058 261.989L625.868 269.835L620.688 269.71L621.097 252.805L626.278 252.931L626.209 255.748Z" fill="black"/>
<path d="M599.302 260.704C599.344 258.967 599.704 257.45 600.382 256.153C601.08 254.856 602.004 253.868 603.152 253.189C604.3 252.509 605.571 252.187 606.964 252.22C608.156 252.249 609.19 252.517 610.067 253.023C610.964 253.53 611.646 254.183 612.111 254.982L612.169 252.589L617.35 252.714L616.94 269.619L611.76 269.493L611.818 267.1C611.294 267.876 610.572 268.495 609.651 268.957C608.751 269.421 607.705 269.638 606.513 269.609C605.14 269.576 603.896 269.192 602.782 268.458C601.669 267.703 600.795 266.661 600.16 265.332C599.546 263.984 599.26 262.441 599.302 260.704ZM611.965 261.041C611.996 259.749 611.657 258.72 610.948 257.955C610.259 257.19 609.4 256.796 608.37 256.771C607.34 256.746 606.452 257.098 605.707 257.828C604.982 258.538 604.605 259.539 604.573 260.832C604.542 262.124 604.87 263.163 605.559 263.948C606.268 264.712 607.137 265.107 608.167 265.132C609.197 265.157 610.075 264.805 610.8 264.074C611.545 263.345 611.933 262.334 611.965 261.041Z" fill="black"/>
<path d="M590.04 251.871C592.14 251.922 593.791 252.599 594.992 253.901C596.214 255.204 596.797 256.986 596.742 259.248L596.503 269.124L591.353 268.999L591.575 259.82C591.602 258.729 591.329 257.884 590.757 257.284C590.207 256.665 589.426 256.343 588.416 256.318C587.407 256.294 586.602 256.577 586.001 257.169C585.421 257.741 585.118 258.572 585.092 259.663L584.87 268.842L579.72 268.718L579.942 259.538C579.968 258.448 579.696 257.602 579.124 257.003C578.573 256.383 577.793 256.061 576.783 256.036C575.773 256.012 574.968 256.296 574.368 256.887C573.788 257.459 573.485 258.291 573.459 259.381L573.236 268.561L568.056 268.435L568.465 251.531L573.646 251.656L573.594 253.777C574.137 253.083 574.837 252.544 575.695 252.16C576.553 251.757 577.518 251.568 578.588 251.594C579.861 251.625 580.985 251.925 581.961 252.494C582.958 253.064 583.727 253.86 584.268 254.884C584.876 253.969 585.692 253.231 586.716 252.67C587.74 252.109 588.848 251.842 590.04 251.871Z" fill="black"/>
<path d="M557.107 268.382C555.552 268.345 554.165 268.058 552.945 267.524C551.725 266.989 550.754 266.218 550.03 265.21C549.327 264.203 548.972 263.002 548.966 261.607L554.479 261.741C554.541 262.53 554.799 263.143 555.253 263.578C555.708 263.993 556.309 264.21 557.056 264.228C557.824 264.247 558.434 264.09 558.887 263.757C559.34 263.404 559.574 262.915 559.589 262.289C559.602 261.764 559.43 261.325 559.075 260.973C558.74 260.621 558.313 260.328 557.793 260.093C557.294 259.859 556.573 259.589 555.63 259.283C554.267 258.826 553.156 258.374 552.298 257.929C551.44 257.484 550.708 256.84 550.102 255.997C549.496 255.153 549.209 254.065 549.241 252.732C549.289 250.753 550.044 249.225 551.504 248.149C552.966 247.053 554.848 246.533 557.15 246.588C559.493 246.645 561.368 247.256 562.774 248.422C564.181 249.568 564.911 251.141 564.964 253.143L559.359 253.008C559.335 252.32 559.096 251.779 558.641 251.384C558.186 250.968 557.595 250.752 556.868 250.734C556.242 250.719 555.733 250.879 555.341 251.213C554.949 251.527 554.746 251.997 554.731 252.623C554.714 253.309 555.024 253.852 555.661 254.252C556.298 254.651 557.298 255.09 558.661 255.567C560.023 256.065 561.123 256.536 561.961 256.981C562.819 257.426 563.551 258.06 564.158 258.883C564.764 259.706 565.052 260.754 565.021 262.026C564.992 263.238 564.652 264.331 564.002 265.306C563.372 266.281 562.465 267.047 561.279 267.604C560.093 268.162 558.703 268.421 557.107 268.382Z" fill="black"/>
<path d="M631.036 297.119C629.561 297.083 628.255 296.799 627.116 296.266C625.977 295.733 625.084 295.024 624.439 294.14C623.794 293.235 623.444 292.236 623.39 291.144L628.51 291.268C628.556 291.855 628.817 292.336 629.293 292.711C629.769 293.087 630.361 293.283 631.067 293.3C631.714 293.316 632.212 293.206 632.561 292.972C632.931 292.719 633.12 292.39 633.13 291.986C633.142 291.501 632.898 291.142 632.399 290.907C631.9 290.653 631.088 290.37 629.964 290.06C628.759 289.748 627.756 289.431 626.956 289.108C626.155 288.765 625.471 288.254 624.901 287.573C624.332 286.872 624.061 285.946 624.089 284.795C624.113 283.826 624.397 282.953 624.941 282.178C625.506 281.384 626.309 280.767 627.35 280.327C628.411 279.888 629.659 279.686 631.093 279.72C633.214 279.772 634.867 280.337 636.054 281.417C637.26 282.497 637.933 283.908 638.073 285.649L633.287 285.533C633.22 284.945 632.969 284.474 632.533 284.12C632.117 283.767 631.555 283.581 630.849 283.564C630.243 283.55 629.775 283.66 629.446 283.894C629.118 284.108 628.948 284.418 628.939 284.821C628.927 285.306 629.171 285.676 629.67 285.93C630.189 286.186 630.991 286.447 632.076 286.716C633.32 287.07 634.332 287.418 635.112 287.76C635.892 288.082 636.567 288.603 637.135 289.324C637.725 290.026 638.015 290.962 638.007 292.134C637.983 293.124 637.679 294.006 637.094 294.78C636.53 295.534 635.718 296.121 634.657 296.539C633.616 296.959 632.409 297.152 631.036 297.119Z" fill="black"/>
<path d="M615.768 296.507L610.79 289.293L610.618 296.382L605.438 296.256L605.98 273.838L611.161 273.964L610.861 286.354L616.147 279.601L622.54 279.756L615.306 288.068L622.191 296.662L615.768 296.507Z" fill="black"/>
<path d="M565.438 284.375C566.664 284.668 567.638 285.308 568.362 286.295C569.086 287.263 569.434 288.362 569.404 289.594C569.361 291.371 568.7 292.77 567.423 293.79C566.166 294.79 564.427 295.263 562.205 295.21L552.299 294.97L552.813 273.703L562.387 273.934C564.548 273.987 566.222 274.522 567.41 275.541C568.618 276.561 569.202 277.919 569.16 279.615C569.13 280.868 568.772 281.9 568.085 282.712C567.419 283.524 566.536 284.079 565.438 284.375ZM557.786 282.432L561.179 282.514C562.027 282.535 562.678 282.368 563.131 282.016C563.605 281.643 563.85 281.093 563.868 280.366C563.885 279.639 563.667 279.078 563.211 278.683C562.776 278.289 562.135 278.081 561.286 278.061L557.893 277.978L557.786 282.432ZM561.397 291.007C562.266 291.028 562.937 290.852 563.411 290.48C563.905 290.088 564.162 289.518 564.18 288.77C564.198 288.023 563.959 287.431 563.465 286.995C562.99 286.559 562.319 286.331 561.45 286.31L557.694 286.219L557.58 290.914L561.397 291.007Z" fill="black"/>
<g clip-path="url(#clip2_70_2729)">
<path d="M578.547 275.591L578.545 275.591C578.423 275.588 578.302 275.608 578.188 275.651C578.075 275.694 577.971 275.759 577.883 275.841C577.793 275.925 577.722 276.024 577.672 276.135C577.622 276.246 577.595 276.365 577.592 276.486L577.259 290.242C577.247 290.746 577.657 291.168 578.173 291.182C580.35 291.239 583.986 291.773 586.439 294.416L586.787 280.02C586.792 279.849 586.751 279.688 586.67 279.553C584.684 276.241 580.728 275.649 578.547 275.591ZM597.262 290.726L597.595 276.97C597.601 276.724 597.509 276.49 597.335 276.312C597.252 276.226 597.151 276.156 597.04 276.108C596.928 276.059 596.808 276.033 596.687 276.03L596.684 276.03C594.503 275.982 590.523 276.382 588.379 279.594C588.292 279.725 588.243 279.884 588.239 280.055L587.891 294.451C590.469 291.93 594.127 291.573 596.303 291.62C596.82 291.632 597.25 291.23 597.262 290.726Z" fill="#08D0C2"/>
<path d="M601.055 277.622L600.304 277.604L599.989 290.6C599.954 292.056 598.739 293.214 597.281 293.182C595.235 293.138 591.85 293.456 589.405 295.66C593.563 294.748 597.905 295.512 600.375 296.138C600.526 296.177 600.684 296.181 600.837 296.15C600.99 296.119 601.134 296.053 601.258 295.959C601.383 295.865 601.484 295.744 601.555 295.605C601.626 295.467 601.664 295.314 601.668 295.158L602.067 278.684C602.081 278.112 601.627 277.636 601.055 277.622ZM574.595 289.986L574.91 276.989L574.159 276.971C573.587 276.957 573.111 277.411 573.097 277.982L572.698 294.457C572.69 294.774 572.825 295.072 573.068 295.276C573.188 295.376 573.328 295.449 573.48 295.487C573.631 295.525 573.789 295.529 573.942 295.497C576.439 294.992 580.813 294.439 584.922 295.551C582.587 293.232 579.221 292.75 577.175 292.695C575.717 292.656 574.56 291.441 574.595 289.986Z" fill="#08D0C2"/>
</g>
</g>
<defs>
<filter id="filter0_d_70_2729" x="-25.2674" y="150.297" width="817.783" height="1012.46" filterUnits="userSpaceOnUse" color-interpolation-filters="sRGB">
<feFlood flood-opacity="0" result="BackgroundImageFix"/>
<feColorMatrix in="SourceAlpha" type="matrix" values="0 0 0 0 0 0 0 0 0 0 0 0 0 0 0 0 0 0 127 0" result="hardAlpha"/>
<feMorphology radius="4.35146" operator="dilate" in="SourceAlpha" result="effect1_dropShadow_70_2729"/>
<feOffset dx="6.52718" dy="6.52718"/>
<feGaussianBlur stdDeviation="5.43932"/>
<feColorMatrix type="matrix" values="0 0 0 0 0 0 0 0 0 0 0 0 0 0 0 0 0 0 0.15 0"/>
<feBlend mode="normal" in2="BackgroundImageFix" result="effect1_dropShadow_70_2729"/>
<feBlend mode="normal" in="SourceGraphic" in2="effect1_dropShadow_70_2729" result="shape"/>
</filter>
<filter id="filter1_f_70_2729" x="-17.6523" y="157.912" width="148.115" height="897.014" filterUnits="userSpaceOnUse" color-interpolation-filters="sRGB">
<feFlood flood-opacity="0" result="BackgroundImageFix"/>
<feBlend mode="normal" in="SourceGraphic" in2="BackgroundImageFix" result="shape"/>
<feGaussianBlur stdDeviation="0.543932" result="effect1_foregroundBlur_70_2729"/>
</filter>
<filter id="filter2_d_70_2729" x="24.844" y="200.419" width="675.195" height="881.279" filterUnits="userSpaceOnUse" color-interpolation-filters="sRGB">
<feFlood flood-opacity="0" result="BackgroundImageFix"/>
<feColorMatrix in="SourceAlpha" type="matrix" values="0 0 0 0 0 0 0 0 0 0 0 0 0 0 0 0 0 0 127 0" result="hardAlpha"/>
<feMorphology radius="4.35146" operator="dilate" in="SourceAlpha" result="effect1_dropShadow_70_2729"/>
<feOffset dx="6.52718" dy="6.52718"/>
<feGaussianBlur stdDeviation="5.43932"/>
<feColorMatrix type="matrix" values="0 0 0 0 0 0 0 0 0 0 0 0 0 0 0 0 0 0 0.15 0"/>
<feBlend mode="normal" in2="BackgroundImageFix" result="effect1_dropShadow_70_2729"/>
<feBlend mode="normal" in="SourceGraphic" in2="effect1_dropShadow_70_2729" result="shape"/>
</filter>
<filter id="filter3_f_70_2729" x="32.5361" y="208.111" width="45.4992" height="838.281" filterUnits="userSpaceOnUse" color-interpolation-filters="sRGB">
<feFlood flood-opacity="0" result="BackgroundImageFix"/>
<feBlend mode="normal" in="SourceGraphic" in2="BackgroundImageFix" result="shape"/>
<feGaussianBlur stdDeviation="0.505406" result="effect1_foregroundBlur_70_2729"/>
</filter>
<linearGradient id="paint0_linear_70_2729" x1="129.603" y1="560.485" x2="104.582" y2="560.485" gradientUnits="userSpaceOnUse">
<stop stop-opacity="0.08"/>
<stop offset="0.614583" stop-color="#272727"/>
</linearGradient>
<linearGradient id="paint1_linear_70_2729" x1="77.0309" y1="582.171" x2="53.7822" y2="582.171" gradientUnits="userSpaceOnUse">
<stop stop-opacity="0.08"/>
<stop offset="0.614583" stop-color="#272727"/>
</linearGradient>
<clipPath id="clip0_70_2729">
<rect width="960" height="1000" fill="white"/>
</clipPath>
<clipPath id="clip1_70_2729">
<rect width="31.187" height="31.187" fill="white" transform="translate(653.019 285.91) rotate(7.73884)"/>
</clipPath>
<clipPath id="clip2_70_2729">
<rect width="28.9781" height="28.9781" fill="white" transform="translate(573.292 269.942) rotate(1.38709)"/>
</clipPath>
</defs>
</svg>
