<svg width="369" height="39" viewBox="0 0 369 39" fill="none" xmlns="http://www.w3.org/2000/svg">
<path d="M2.89113 19.6039V30.7559H1.43513V19.6039H2.89113ZM9.64463 21.8279C10.7113 21.8279 11.5753 22.1532 12.2366 22.8039C12.898 23.4439 13.2286 24.3719 13.2286 25.5879V30.7559H11.7886V25.7959C11.7886 24.9212 11.57 24.2545 11.1326 23.7959C10.6953 23.3265 10.098 23.0919 9.34063 23.0919C8.57263 23.0919 7.95929 23.3319 7.50063 23.8119C7.05263 24.2919 6.82863 24.9905 6.82863 25.9079V30.7559H5.37263V21.9879H6.82863V23.2359C7.11663 22.7879 7.50596 22.4412 7.99663 22.1959C8.49796 21.9505 9.04729 21.8279 9.64463 21.8279ZM19.3286 25.1719C19.3286 24.0839 19.574 23.1079 20.0646 22.2439C20.5553 21.3692 21.222 20.6865 22.0646 20.1959C22.918 19.7052 23.862 19.4599 24.8966 19.4599C26.1126 19.4599 27.174 19.7532 28.0806 20.3399C28.9873 20.9265 29.6486 21.7585 30.0646 22.8359H28.3206C28.0113 22.1639 27.5633 21.6465 26.9766 21.2839C26.4006 20.9212 25.7073 20.7399 24.8966 20.7399C24.118 20.7399 23.4193 20.9212 22.8006 21.2839C22.182 21.6465 21.6966 22.1639 21.3446 22.8359C20.9926 23.4972 20.8166 24.2759 20.8166 25.1719C20.8166 26.0572 20.9926 26.8359 21.3446 27.5079C21.6966 28.1692 22.182 28.6812 22.8006 29.0439C23.4193 29.4065 24.118 29.5879 24.8966 29.5879C25.7073 29.5879 26.4006 29.4119 26.9766 29.0599C27.5633 28.6972 28.0113 28.1799 28.3206 27.5079H30.0646C29.6486 28.5745 28.9873 29.4012 28.0806 29.9879C27.174 30.5639 26.1126 30.8519 24.8966 30.8519C23.862 30.8519 22.918 30.6119 22.0646 30.1319C21.222 29.6412 20.5553 28.9639 20.0646 28.0999C19.574 27.2359 19.3286 26.2599 19.3286 25.1719ZM36.056 30.8999C35.2347 30.8999 34.488 30.7132 33.816 30.3399C33.1547 29.9665 32.632 29.4385 32.248 28.7559C31.8747 28.0625 31.688 27.2625 31.688 26.3559C31.688 25.4599 31.88 24.6705 32.264 23.9879C32.6587 23.2945 33.192 22.7665 33.864 22.4039C34.536 22.0305 35.288 21.8439 36.12 21.8439C36.952 21.8439 37.704 22.0305 38.376 22.4039C39.048 22.7665 39.576 23.2892 39.96 23.9719C40.3547 24.6545 40.552 25.4492 40.552 26.3559C40.552 27.2625 40.3493 28.0625 39.944 28.7559C39.5493 29.4385 39.0107 29.9665 38.328 30.3399C37.6453 30.7132 36.888 30.8999 36.056 30.8999ZM36.056 29.6199C36.5787 29.6199 37.0693 29.4972 37.528 29.2519C37.9867 29.0065 38.3547 28.6385 38.632 28.1479C38.92 27.6572 39.064 27.0599 39.064 26.3559C39.064 25.6519 38.9253 25.0545 38.648 24.5639C38.3707 24.0732 38.008 23.7105 37.56 23.4759C37.112 23.2305 36.6267 23.1079 36.104 23.1079C35.5707 23.1079 35.08 23.2305 34.632 23.4759C34.1947 23.7105 33.8427 24.0732 33.576 24.5639C33.3093 25.0545 33.176 25.6519 33.176 26.3559C33.176 27.0705 33.304 27.6732 33.56 28.1639C33.8267 28.6545 34.1787 29.0225 34.616 29.2679C35.0533 29.5025 35.5333 29.6199 36.056 29.6199ZM43.9224 18.9159V30.7559H42.4664V18.9159H43.9224ZM47.8599 18.9159V30.7559H46.4039V18.9159H47.8599ZM49.7974 26.3399C49.7974 25.4439 49.9787 24.6599 50.3414 23.9879C50.704 23.3052 51.2 22.7772 51.8294 22.4039C52.4694 22.0305 53.1787 21.8439 53.9574 21.8439C54.7254 21.8439 55.392 22.0092 55.9574 22.3399C56.5227 22.6705 56.944 23.0865 57.2214 23.5879V21.9879H58.6934V30.7559H57.2214V29.1239C56.9334 29.6359 56.5014 30.0625 55.9254 30.4039C55.36 30.7345 54.6987 30.8999 53.9414 30.8999C53.1627 30.8999 52.4587 30.7079 51.8294 30.3239C51.2 29.9399 50.704 29.4012 50.3414 28.7079C49.9787 28.0145 49.7974 27.2252 49.7974 26.3399ZM57.2214 26.3559C57.2214 25.6945 57.088 25.1185 56.8214 24.6279C56.5547 24.1372 56.192 23.7639 55.7334 23.5079C55.2854 23.2412 54.7894 23.1079 54.2454 23.1079C53.7014 23.1079 53.2054 23.2359 52.7574 23.4919C52.3094 23.7479 51.952 24.1212 51.6854 24.6119C51.4187 25.1025 51.2854 25.6785 51.2854 26.3399C51.2854 27.0119 51.4187 27.5985 51.6854 28.0999C51.952 28.5905 52.3094 28.9692 52.7574 29.2359C53.2054 29.4919 53.7014 29.6199 54.2454 29.6199C54.7894 29.6199 55.2854 29.4919 55.7334 29.2359C56.192 28.9692 56.5547 28.5905 56.8214 28.0999C57.088 27.5985 57.2214 27.0172 57.2214 26.3559ZM62.6099 23.6199C62.9085 23.0972 63.3459 22.6705 63.9219 22.3399C64.4979 22.0092 65.1539 21.8439 65.8899 21.8439C66.6792 21.8439 67.3885 22.0305 68.0179 22.4039C68.6472 22.7772 69.1432 23.3052 69.5059 23.9879C69.8685 24.6599 70.0499 25.4439 70.0499 26.3399C70.0499 27.2252 69.8685 28.0145 69.5059 28.7079C69.1432 29.4012 68.6419 29.9399 68.0019 30.3239C67.3725 30.7079 66.6685 30.8999 65.8899 30.8999C65.1325 30.8999 64.4659 30.7345 63.8899 30.4039C63.3245 30.0732 62.8979 29.6519 62.6099 29.1399V30.7559H61.1539V18.9159H62.6099V23.6199ZM68.5619 26.3399C68.5619 25.6785 68.4285 25.1025 68.1619 24.6119C67.8952 24.1212 67.5325 23.7479 67.0739 23.4919C66.6259 23.2359 66.1299 23.1079 65.5859 23.1079C65.0525 23.1079 64.5565 23.2412 64.0979 23.5079C63.6499 23.7639 63.2872 24.1425 63.0099 24.6439C62.7432 25.1345 62.6099 25.7052 62.6099 26.3559C62.6099 27.0172 62.7432 27.5985 63.0099 28.0999C63.2872 28.5905 63.6499 28.9692 64.0979 29.2359C64.5565 29.4919 65.0525 29.6199 65.5859 29.6199C66.1299 29.6199 66.6259 29.4919 67.0739 29.2359C67.5325 28.9692 67.8952 28.5905 68.1619 28.0999C68.4285 27.5985 68.5619 27.0119 68.5619 26.3399ZM75.7904 30.8999C74.969 30.8999 74.2224 30.7132 73.5504 30.3399C72.889 29.9665 72.3664 29.4385 71.9824 28.7559C71.609 28.0625 71.4224 27.2625 71.4224 26.3559C71.4224 25.4599 71.6144 24.6705 71.9984 23.9879C72.393 23.2945 72.9264 22.7665 73.5984 22.4039C74.2704 22.0305 75.0224 21.8439 75.8544 21.8439C76.6864 21.8439 77.4384 22.0305 78.1104 22.4039C78.7824 22.7665 79.3104 23.2892 79.6944 23.9719C80.089 24.6545 80.2864 25.4492 80.2864 26.3559C80.2864 27.2625 80.0837 28.0625 79.6784 28.7559C79.2837 29.4385 78.745 29.9665 78.0624 30.3399C77.3797 30.7132 76.6224 30.8999 75.7904 30.8999ZM75.7904 29.6199C76.313 29.6199 76.8037 29.4972 77.2624 29.2519C77.721 29.0065 78.089 28.6385 78.3664 28.1479C78.6544 27.6572 78.7984 27.0599 78.7984 26.3559C78.7984 25.6519 78.6597 25.0545 78.3824 24.5639C78.105 24.0732 77.7424 23.7105 77.2944 23.4759C76.8464 23.2305 76.361 23.1079 75.8384 23.1079C75.305 23.1079 74.8144 23.2305 74.3664 23.4759C73.929 23.7105 73.577 24.0732 73.3104 24.5639C73.0437 25.0545 72.9104 25.6519 72.9104 26.3559C72.9104 27.0705 73.0384 27.6732 73.2944 28.1639C73.561 28.6545 73.913 29.0225 74.3504 29.2679C74.7877 29.5025 75.2677 29.6199 75.7904 29.6199ZM83.6568 23.4119C83.9128 22.9105 84.2754 22.5212 84.7448 22.2439C85.2248 21.9665 85.8061 21.8279 86.4888 21.8279V23.3319H86.1048C84.4728 23.3319 83.6568 24.2172 83.6568 25.9879V30.7559H82.2008V21.9879H83.6568V23.4119ZM87.6255 26.3399C87.6255 25.4439 87.8068 24.6599 88.1695 23.9879C88.5322 23.3052 89.0282 22.7772 89.6575 22.4039C90.2975 22.0305 91.0068 21.8439 91.7855 21.8439C92.5535 21.8439 93.2202 22.0092 93.7855 22.3399C94.3508 22.6705 94.7722 23.0865 95.0495 23.5879V21.9879H96.5215V30.7559H95.0495V29.1239C94.7615 29.6359 94.3295 30.0625 93.7535 30.4039C93.1882 30.7345 92.5268 30.8999 91.7695 30.8999C90.9908 30.8999 90.2868 30.7079 89.6575 30.3239C89.0282 29.9399 88.5322 29.4012 88.1695 28.7079C87.8068 28.0145 87.6255 27.2252 87.6255 26.3399ZM95.0495 26.3559C95.0495 25.6945 94.9162 25.1185 94.6495 24.6279C94.3828 24.1372 94.0202 23.7639 93.5615 23.5079C93.1135 23.2412 92.6175 23.1079 92.0735 23.1079C91.5295 23.1079 91.0335 23.2359 90.5855 23.4919C90.1375 23.7479 89.7802 24.1212 89.5135 24.6119C89.2468 25.1025 89.1135 25.6785 89.1135 26.3399C89.1135 27.0119 89.2468 27.5985 89.5135 28.0999C89.7802 28.5905 90.1375 28.9692 90.5855 29.2359C91.0335 29.4919 91.5295 29.6199 92.0735 29.6199C92.6175 29.6199 93.1135 29.4919 93.5615 29.2359C94.0202 28.9692 94.3828 28.5905 94.6495 28.0999C94.9162 27.5985 95.0495 27.0172 95.0495 26.3559ZM100.758 23.1879V28.3559C100.758 28.7825 100.849 29.0865 101.03 29.2679C101.211 29.4385 101.526 29.5239 101.974 29.5239H103.046V30.7559H101.734C100.923 30.7559 100.315 30.5692 99.91 30.1959C99.5047 29.8225 99.302 29.2092 99.302 28.3559V23.1879H98.166V21.9879H99.302V19.7799H100.758V21.9879H103.046V23.1879H100.758ZM105.562 20.5639C105.285 20.5639 105.05 20.4679 104.858 20.2759C104.666 20.0839 104.57 19.8492 104.57 19.5719C104.57 19.2945 104.666 19.0599 104.858 18.8679C105.05 18.6759 105.285 18.5799 105.562 18.5799C105.829 18.5799 106.053 18.6759 106.234 18.8679C106.426 19.0599 106.522 19.2945 106.522 19.5719C106.522 19.8492 106.426 20.0839 106.234 20.2759C106.053 20.4679 105.829 20.5639 105.562 20.5639ZM106.266 21.9879V30.7559H104.81V21.9879H106.266ZM112.572 30.8999C111.75 30.8999 111.004 30.7132 110.332 30.3399C109.67 29.9665 109.148 29.4385 108.764 28.7559C108.39 28.0625 108.204 27.2625 108.204 26.3559C108.204 25.4599 108.396 24.6705 108.78 23.9879C109.174 23.2945 109.708 22.7665 110.38 22.4039C111.052 22.0305 111.804 21.8439 112.636 21.8439C113.468 21.8439 114.22 22.0305 114.892 22.4039C115.564 22.7665 116.092 23.2892 116.476 23.9719C116.87 24.6545 117.068 25.4492 117.068 26.3559C117.068 27.2625 116.865 28.0625 116.46 28.7559C116.065 29.4385 115.526 29.9665 114.844 30.3399C114.161 30.7132 113.404 30.8999 112.572 30.8999ZM112.572 29.6199C113.094 29.6199 113.585 29.4972 114.044 29.2519C114.502 29.0065 114.87 28.6385 115.148 28.1479C115.436 27.6572 115.58 27.0599 115.58 26.3559C115.58 25.6519 115.441 25.0545 115.164 24.5639C114.886 24.0732 114.524 23.7105 114.076 23.4759C113.628 23.2305 113.142 23.1079 112.62 23.1079C112.086 23.1079 111.596 23.2305 111.148 23.4759C110.71 23.7105 110.358 24.0732 110.092 24.5639C109.825 25.0545 109.692 25.6519 109.692 26.3559C109.692 27.0705 109.82 27.6732 110.076 28.1639C110.342 28.6545 110.694 29.0225 111.132 29.2679C111.569 29.5025 112.049 29.6199 112.572 29.6199ZM123.254 21.8279C124.321 21.8279 125.185 22.1532 125.846 22.8039C126.507 23.4439 126.838 24.3719 126.838 25.5879V30.7559H125.398V25.7959C125.398 24.9212 125.179 24.2545 124.742 23.7959C124.305 23.3265 123.707 23.0919 122.95 23.0919C122.182 23.0919 121.569 23.3319 121.11 23.8119C120.662 24.2919 120.438 24.9905 120.438 25.9079V30.7559H118.982V21.9879H120.438V23.2359C120.726 22.7879 121.115 22.4412 121.606 22.1959C122.107 21.9505 122.657 21.8279 123.254 21.8279ZM147.498 19.6039L144.266 30.7559H142.634L140.042 21.7799L137.354 30.7559L135.738 30.7719L132.618 19.6039H134.17L136.602 29.0599L139.29 19.6039H140.922L143.482 29.0279L145.93 19.6039H147.498ZM149.843 20.5639C149.566 20.5639 149.331 20.4679 149.139 20.2759C148.947 20.0839 148.851 19.8492 148.851 19.5719C148.851 19.2945 148.947 19.0599 149.139 18.8679C149.331 18.6759 149.566 18.5799 149.843 18.5799C150.11 18.5799 150.334 18.6759 150.515 18.8679C150.707 19.0599 150.803 19.2945 150.803 19.5719C150.803 19.8492 150.707 20.0839 150.515 20.2759C150.334 20.4679 150.11 20.5639 149.843 20.5639ZM150.547 21.9879V30.7559H149.091V21.9879H150.547ZM154.805 23.1879V28.3559C154.805 28.7825 154.896 29.0865 155.077 29.2679C155.258 29.4385 155.573 29.5239 156.021 29.5239H157.093V30.7559H155.781C154.97 30.7559 154.362 30.5692 153.957 30.1959C153.552 29.8225 153.349 29.2092 153.349 28.3559V23.1879H152.213V21.9879H153.349V19.7799H154.805V21.9879H157.093V23.1879H154.805ZM163.209 21.8279C163.87 21.8279 164.468 21.9719 165.001 22.2599C165.534 22.5372 165.95 22.9585 166.249 23.5239C166.558 24.0892 166.713 24.7772 166.713 25.5879V30.7559H165.273V25.7959C165.273 24.9212 165.054 24.2545 164.617 23.7959C164.18 23.3265 163.582 23.0919 162.825 23.0919C162.057 23.0919 161.444 23.3319 160.985 23.8119C160.537 24.2919 160.313 24.9905 160.313 25.9079V30.7559H158.857V18.9159H160.313V23.2359C160.601 22.7879 160.996 22.4412 161.497 22.1959C162.009 21.9505 162.58 21.8279 163.209 21.8279ZM178.087 30.8519C177.809 30.8519 177.575 30.7559 177.383 30.5639C177.191 30.3719 177.095 30.1372 177.095 29.8599C177.095 29.5825 177.191 29.3479 177.383 29.1559C177.575 28.9639 177.809 28.8679 178.087 28.8679C178.353 28.8679 178.577 28.9639 178.759 29.1559C178.951 29.3479 179.047 29.5825 179.047 29.8599C179.047 30.1372 178.951 30.3719 178.759 30.5639C178.577 30.7559 178.353 30.8519 178.087 30.8519ZM178.087 24.0039C177.809 24.0039 177.575 23.9079 177.383 23.7159C177.191 23.5239 177.095 23.2892 177.095 23.0119C177.095 22.7345 177.191 22.4999 177.383 22.3079C177.575 22.1159 177.809 22.0199 178.087 22.0199C178.353 22.0199 178.577 22.1159 178.759 22.3079C178.951 22.4999 179.047 22.7345 179.047 23.0119C179.047 23.2892 178.951 23.5239 178.759 23.7159C178.577 23.9079 178.353 24.0039 178.087 24.0039Z" fill="#505050"/>
<path d="M217.452 9.44067C221.144 9.46104 223.143 9.62366 224.446 10.927C225.936 12.4166 225.936 14.8146 225.936 19.6096V28.3645L225.933 30.053C225.912 33.7446 225.75 35.7437 224.446 37.0471L224.304 37.1819C222.998 38.3615 221.012 38.5138 217.452 38.5334L215.764 38.5364H200.172L198.483 38.5334C194.924 38.5138 192.938 38.3616 191.632 37.1819L191.489 37.0471C190.186 35.7437 190.023 33.7445 190.003 30.053L190 28.3645V19.6096C190 14.9643 190 12.569 191.354 11.0696L191.489 10.927C192.793 9.62357 194.792 9.46104 198.483 9.44067L200.172 9.43774H215.764L217.452 9.44067ZM200.172 11.9514C199.387 11.9514 198.691 11.9535 198.067 11.9592L216.258 20.4348C219.323 21.8628 219.323 26.2207 216.258 27.6487L198.296 36.0168C198.86 36.0208 199.482 36.0227 200.172 36.0227H215.764C218.232 36.0227 219.831 36.018 221.01 35.8596C222.116 35.7109 222.469 35.4698 222.669 35.2698L222.745 35.1858C222.927 34.9691 223.129 34.5782 223.259 33.6106C223.417 32.432 223.422 30.833 223.422 28.3645V19.6096C223.422 17.1411 223.417 15.5421 223.259 14.3635C223.129 13.396 222.927 13.005 222.745 12.7883L222.669 12.7043C222.469 12.5044 222.116 12.2632 221.01 12.1145C219.831 11.9561 218.232 11.9514 215.764 11.9514H200.172ZM203.357 18.7776C202.27 18.2713 201.024 19.0652 201.024 20.2649V27.9026C201.025 29.1018 202.27 29.8956 203.357 29.3899L211.555 25.5706C212.818 24.9818 212.818 23.1857 211.555 22.5969L203.357 18.7776Z" fill="#08D0C2"/>
<g filter="url(#filter0_i_70_2701)">
<path d="M211.581 22.5958C212.845 23.1845 212.845 24.9812 211.581 25.57L203.384 29.3891C202.297 29.8958 201.051 29.1018 201.051 27.902V20.2638C201.051 19.0639 202.297 18.2699 203.384 18.7766L211.581 22.5958Z" fill="white"/>
</g>
<path d="M221.063 3.75699C221.432 3.73767 221.794 3.84933 222.089 4.07171L222.09 4.07107L232.804 11.9633L232.81 11.9683L232.925 12.0717C233.442 12.6158 233.103 13.5661 232.307 13.6126L232.298 13.6132L218.971 14.1614L218.97 14.1602C218.601 14.1796 218.238 14.0689 217.943 13.8461L217.942 13.847L207.212 5.94447L207.205 5.93938C206.529 5.42295 206.859 4.34409 207.709 4.29509L207.717 4.29457L221.063 3.75606L221.063 3.75699Z" fill="#1B1A1A" stroke="white" stroke-width="0.966143"/>
<path d="M227.23 13.9348C227.546 13.9632 227.765 14.2776 227.67 14.5911L226.765 17.5487C226.612 18.0489 226.284 18.4923 225.82 18.7589L225.613 18.862C220.029 21.2384 213.553 19.3862 210.057 14.4889L209.728 14.0053C209.389 13.4823 209.332 12.844 209.507 12.2723L210.411 9.31467C210.507 9.0013 210.865 8.86362 211.143 9.01647L211.198 9.05062L211.198 9.05184L218.169 14.1476L218.257 14.2183C218.283 14.2402 218.298 14.2525 218.314 14.2654C218.321 14.2706 218.326 14.2745 218.33 14.2773C218.335 14.2772 218.342 14.2772 218.35 14.2765C218.371 14.2748 218.39 14.2728 218.423 14.2691C218.453 14.2659 218.493 14.2611 218.535 14.2595L227.164 13.9331L227.165 13.9324L227.23 13.9348Z" fill="#1B1A1A" stroke="white" stroke-width="0.777556"/>
<path d="M220.436 6.60454C220.618 6.5824 220.821 6.64458 220.96 6.76503L220.966 6.7709L223.081 8.66638C223.151 8.72928 223.14 8.84215 223.059 8.8907L222.877 9.0006C222.824 9.03226 222.757 9.02588 222.711 8.98485L220.627 7.11651C220.596 7.08907 220.555 7.07646 220.514 7.08204L217.762 7.45891C217.701 7.46725 217.642 7.43488 217.616 7.37911L217.527 7.1858C217.487 7.10033 217.541 7.00087 217.635 6.98808L220.427 6.60569L220.436 6.60454Z" fill="white"/>
<path d="M220.199 7.79434C220.309 7.78335 220.43 7.82171 220.512 7.8943L222.215 9.39749C222.285 9.45977 222.276 9.57252 222.195 9.6218L222.01 9.73572C221.958 9.76796 221.89 9.76215 221.844 9.7214L220.264 8.32639C220.233 8.29964 220.193 8.28728 220.153 8.29251L218.093 8.56119C218.032 8.56916 217.972 8.53629 217.947 8.4802L217.857 8.28213C217.818 8.19644 217.873 8.09754 217.966 8.08538L220.189 7.79555L220.199 7.79434Z" fill="white"/>
<path d="M219.835 9.00108C219.932 8.99052 220.028 9.01985 220.102 9.08221L221.231 10.0339C221.352 10.1366 221.336 10.3292 221.198 10.4093L219.41 11.4486C219.294 11.5162 219.145 11.4703 219.086 11.3491L218.194 9.49011C218.125 9.34686 218.218 9.17861 218.376 9.16127L219.835 9.00108Z" fill="white"/>
<path d="M231.294 21.3308C231.303 21.3753 231.269 21.4169 231.223 21.4169L229.07 21.4169C229.024 21.4169 228.99 21.3756 228.999 21.3312L229.484 18.8515C229.495 18.7955 229.564 18.7734 229.608 18.8094C229.758 18.9305 229.953 19.0416 230.139 19.0416C230.352 19.0416 230.524 18.9634 230.664 18.8342C230.708 18.7927 230.787 18.8124 230.799 18.8722L231.294 21.3308Z" fill="#1B1A1A"/>
<circle cx="230.171" cy="17.869" r="0.749125" fill="#1B1A1A"/>
<path d="M229.675 14.277C229.675 14.2295 229.713 14.1909 229.761 14.1909H230.564C230.611 14.1909 230.65 14.2295 230.65 14.277V16.7475C230.65 16.8026 230.599 16.8435 230.545 16.8315L230.481 16.8173C230.271 16.7703 230.053 16.7703 229.843 16.8173L229.78 16.8315C229.726 16.8435 229.675 16.8026 229.675 16.7475V14.277Z" fill="#1B1A1A"/>
<path d="M240.981 32.1614C240.368 32.1614 239.791 32.0803 239.251 31.9181C238.728 31.7739 238.26 31.5846 237.845 31.3504C237.431 31.1161 237.07 30.8908 236.764 30.6745C236.475 30.4402 236.259 30.251 236.115 30.1068C235.917 29.8905 235.736 29.6833 235.574 29.485C235.43 29.2868 235.358 29.0795 235.358 28.8633C235.358 28.665 235.412 28.4668 235.52 28.2685C235.646 28.0523 235.808 27.845 236.007 27.6467C236.241 27.3944 236.448 27.2232 236.629 27.1331C236.809 27.025 236.998 26.9709 237.196 26.9709C237.467 26.9709 237.701 27.07 237.899 27.2683C238.115 27.4485 238.368 27.6738 238.656 27.9441C238.8 28.0523 238.989 28.1874 239.224 28.3496C239.458 28.4938 239.728 28.62 240.035 28.7281C240.359 28.8362 240.711 28.8903 241.089 28.8903C241.594 28.8903 242.026 28.8092 242.387 28.647C242.765 28.4668 243.072 28.2145 243.306 27.89C243.558 27.5656 243.738 27.1872 243.846 26.7546C243.973 26.3041 244.036 25.8175 244.036 25.2948V14.968C244.036 14.6436 244.072 14.3372 244.144 14.0488C244.216 13.7605 244.369 13.5352 244.603 13.373C244.838 13.2108 245.216 13.1297 245.739 13.1297C246.225 13.1297 246.577 13.2108 246.793 13.373C247.027 13.5172 247.172 13.7154 247.226 13.9677C247.298 14.22 247.334 14.4994 247.334 14.8058V25.4841C247.334 26.4392 247.181 27.3223 246.874 28.1334C246.586 28.9444 246.162 29.6562 245.604 30.269C245.063 30.8637 244.396 31.3323 243.603 31.6748C242.828 31.9992 241.954 32.1614 240.981 32.1614ZM256.557 32.1884C255.691 32.1884 254.844 32.0262 254.015 31.7018C253.204 31.3594 252.465 30.8818 251.799 30.269C251.15 29.6562 250.627 28.9353 250.231 28.1063C249.852 27.2773 249.663 26.3672 249.663 25.3759C249.663 24.4207 249.843 23.5286 250.204 22.6996C250.564 21.8706 251.06 21.1407 251.69 20.5099C252.321 19.8791 253.042 19.3925 253.853 19.05C254.682 18.6896 255.565 18.5094 256.502 18.5094C257.764 18.5094 258.908 18.8158 259.936 19.4285C260.963 20.0233 261.783 20.8343 262.396 21.8615C263.009 22.8888 263.315 24.0513 263.315 25.3489C263.315 26.3762 263.126 27.3133 262.747 28.1604C262.369 28.9894 261.855 29.7103 261.206 30.3231C260.558 30.9178 259.828 31.3774 259.017 31.7018C258.224 32.0262 257.404 32.1884 256.557 32.1884ZM256.502 28.9984C257.097 28.9984 257.665 28.8542 258.206 28.5659C258.764 28.2595 259.215 27.827 259.557 27.2683C259.918 26.7096 260.098 26.0518 260.098 25.2948C260.098 24.5919 259.936 23.9702 259.611 23.4295C259.305 22.8888 258.881 22.4653 258.341 22.1589C257.8 21.8525 257.178 21.6993 256.475 21.6993C255.809 21.6993 255.205 21.8615 254.664 22.186C254.123 22.4923 253.691 22.9249 253.367 23.4836C253.06 24.0242 252.907 24.637 252.907 25.3219C252.907 26.0788 253.078 26.7366 253.421 27.2953C253.763 27.836 254.205 28.2595 254.745 28.5659C255.304 28.8542 255.89 28.9984 256.502 28.9984ZM267.008 31.9992C266.521 31.9992 266.161 31.9271 265.926 31.7829C265.71 31.6387 265.575 31.4405 265.521 31.1882C265.467 30.9358 265.44 30.6655 265.44 30.3771V20.2666C265.44 19.9782 265.467 19.7169 265.521 19.4826C265.575 19.2483 265.719 19.0591 265.953 18.9149C266.188 18.7707 266.557 18.6986 267.062 18.6986C267.584 18.6986 267.963 18.8067 268.197 19.023C268.449 19.2393 268.576 19.5817 268.576 20.0503L268.332 20.8072C268.422 20.609 268.576 20.3927 268.792 20.1584C269.008 19.9241 269.269 19.6898 269.576 19.4556C269.9 19.2213 270.261 19.032 270.657 18.8878C271.054 18.7437 271.468 18.6716 271.901 18.6716C272.495 18.6716 273.036 18.7707 273.523 18.9689C274.027 19.1672 274.469 19.4556 274.847 19.834C275.244 20.2125 275.586 20.6721 275.875 21.2127C276.181 20.7442 276.523 20.3206 276.902 19.9422C277.28 19.5457 277.722 19.2393 278.227 19.023C278.731 18.7887 279.299 18.6716 279.93 18.6716C280.975 18.6716 281.849 18.9329 282.552 19.4556C283.273 19.9782 283.813 20.7261 284.174 21.6993C284.552 22.6545 284.742 23.799 284.742 25.1326V30.3771C284.742 30.6835 284.706 30.9629 284.633 31.2152C284.579 31.4495 284.435 31.6387 284.201 31.7829C283.985 31.9271 283.624 31.9992 283.12 31.9992C282.615 31.9992 282.246 31.9181 282.011 31.7559C281.777 31.6117 281.633 31.4224 281.579 31.1882C281.525 30.9358 281.498 30.6565 281.498 30.3501V25.1056C281.498 24.4388 281.416 23.862 281.254 23.3754C281.092 22.8888 280.849 22.5104 280.524 22.24C280.218 21.9697 279.812 21.8345 279.308 21.8345C278.767 21.8345 278.299 21.9697 277.902 22.24C277.524 22.4923 277.226 22.8618 277.01 23.3484C276.794 23.835 276.686 24.4297 276.686 25.1326V30.4042C276.686 30.7106 276.641 30.9989 276.55 31.2693C276.46 31.5216 276.28 31.7108 276.01 31.837C275.757 31.9811 275.388 32.0352 274.901 31.9992C274.451 31.9811 274.117 31.891 273.901 31.7288C273.703 31.5666 273.577 31.3684 273.523 31.1341C273.487 30.8818 273.469 30.6204 273.469 30.3501V25.1056C273.469 24.4388 273.387 23.862 273.225 23.3754C273.063 22.8708 272.82 22.4923 272.495 22.24C272.189 21.9697 271.774 21.8345 271.252 21.8345C270.693 21.8345 270.216 21.9787 269.819 22.2671C269.441 22.5554 269.152 22.9429 268.954 23.4295C268.756 23.9161 268.657 24.4748 268.657 25.1056V30.4042C268.657 30.6925 268.621 30.9629 268.548 31.2152C268.494 31.4675 268.35 31.6567 268.116 31.7829C267.9 31.9271 267.53 31.9992 267.008 31.9992Z" fill="#08D0C2"/>
<path d="M297.252 32.0803C296.279 32.0803 295.333 31.9361 294.414 31.6477C293.495 31.3594 292.639 30.9449 291.846 30.4042C291.053 29.8635 290.35 29.1967 289.737 28.4037C289.142 27.5927 288.674 26.6916 288.331 25.7003C287.989 24.6911 287.818 23.5827 287.818 22.3752C287.818 21.2218 287.989 20.1584 288.331 19.1852C288.674 18.194 289.142 17.3199 289.737 16.563C290.332 15.806 291.025 15.1662 291.818 14.6436C292.629 14.1029 293.495 13.6974 294.414 13.4271C295.351 13.1387 296.306 12.9945 297.279 12.9945C298.18 12.9945 298.955 13.0846 299.604 13.2649C300.253 13.4451 300.785 13.6433 301.199 13.8596C301.614 14.0578 301.893 14.211 302.037 14.3192C302.29 14.4633 302.533 14.6346 302.767 14.8328C303.001 15.031 303.128 15.2653 303.146 15.5357C303.182 15.7339 303.164 15.8961 303.092 16.0223C303.037 16.1484 302.965 16.2836 302.875 16.4278C302.731 16.6441 302.578 16.8063 302.416 16.9144C302.271 17.0045 302.109 17.0496 301.929 17.0496C301.749 17.0496 301.587 16.9955 301.442 16.8874C301.298 16.7792 301.109 16.6531 300.875 16.5089C300.767 16.4368 300.55 16.3197 300.226 16.1575C299.902 15.9952 299.487 15.8421 298.982 15.6979C298.478 15.5357 297.865 15.4546 297.144 15.4546C296.225 15.4546 295.342 15.6258 294.495 15.9682C293.666 16.2926 292.936 16.7612 292.305 17.374C291.674 17.9867 291.179 18.7256 290.818 19.5907C290.458 20.4558 290.278 21.429 290.278 22.5104C290.278 23.6097 290.458 24.601 290.818 25.4841C291.179 26.3491 291.674 27.0881 292.305 27.7008C292.954 28.3136 293.693 28.7822 294.522 29.1066C295.351 29.431 296.225 29.5932 297.144 29.5932C297.829 29.5932 298.424 29.5211 298.928 29.3769C299.451 29.2327 299.875 29.0795 300.199 28.9173C300.541 28.7371 300.776 28.6019 300.902 28.5118C301.1 28.4037 301.271 28.2956 301.415 28.1874C301.578 28.0793 301.749 28.0252 301.929 28.0252C302.109 28.0252 302.271 28.0793 302.416 28.1874C302.578 28.2775 302.731 28.4307 302.875 28.647C302.965 28.7731 303.037 28.9173 303.092 29.0795C303.164 29.2237 303.182 29.3859 303.146 29.5661C303.128 29.8365 303.001 30.0708 302.767 30.269C302.533 30.4492 302.29 30.6204 302.037 30.7826C301.875 30.8547 301.587 31.0079 301.172 31.2422C300.776 31.4585 300.253 31.6477 299.604 31.8099C298.955 31.9902 298.171 32.0803 297.252 32.0803ZM307.525 32.0262C307.164 32.0262 306.894 31.9721 306.714 31.864C306.534 31.7739 306.407 31.6387 306.335 31.4585C306.281 31.2783 306.254 31.062 306.254 30.8097V14.4003C306.254 14.1299 306.281 13.9046 306.335 13.7244C306.389 13.5442 306.498 13.409 306.66 13.3189C306.84 13.2108 307.11 13.1567 307.471 13.1567C307.831 13.1567 308.093 13.2108 308.255 13.3189C308.435 13.409 308.552 13.5442 308.606 13.7244C308.66 13.9046 308.687 14.1209 308.687 14.3732V29.7554H317.744C317.978 29.7554 318.176 29.7824 318.338 29.8365C318.5 29.8905 318.627 29.9987 318.717 30.1609C318.825 30.3231 318.879 30.5664 318.879 30.8908C318.879 31.1972 318.834 31.4405 318.744 31.6207C318.654 31.7829 318.528 31.891 318.365 31.9451C318.203 31.9992 318.005 32.0262 317.771 32.0262H307.525ZM338.035 30.296C338.18 30.5664 338.252 30.8007 338.252 30.9989C338.27 31.1791 338.216 31.3504 338.09 31.5126C337.963 31.6567 337.765 31.7919 337.495 31.9181C337.062 32.1163 336.72 32.1614 336.467 32.0532C336.233 31.9451 336.017 31.6838 335.819 31.2693L329.06 16.8874L322.356 31.2422C322.158 31.6567 321.932 31.9181 321.68 32.0262C321.446 32.1343 321.103 32.0893 320.653 31.891C320.382 31.7829 320.184 31.6477 320.058 31.4855C319.95 31.3233 319.905 31.1251 319.923 30.8908C319.959 30.6565 320.049 30.3862 320.193 30.0798L327.952 13.8866C328.06 13.6704 328.213 13.4991 328.411 13.373C328.628 13.2288 328.853 13.1567 329.087 13.1567C329.25 13.1567 329.403 13.1838 329.547 13.2378C329.691 13.2919 329.817 13.373 329.925 13.4811C330.033 13.5893 330.124 13.7334 330.196 13.9137L338.035 30.296ZM323.978 26.6465L324.897 24.5649H333.278L334.17 26.6465H323.978ZM345.932 32.2965C345.247 32.2965 344.598 32.2154 343.986 32.0532C343.391 31.891 342.841 31.6748 342.337 31.4044C341.85 31.1161 341.417 30.8007 341.039 30.4582C340.66 30.1158 340.363 29.7734 340.147 29.431C339.949 29.1426 339.822 28.9083 339.768 28.7281C339.714 28.5298 339.723 28.3406 339.795 28.1604C339.885 27.9802 340.057 27.7819 340.309 27.5656C340.597 27.3494 340.85 27.2503 341.066 27.2683C341.282 27.2683 341.48 27.3494 341.661 27.5116C341.859 27.6738 342.057 27.89 342.255 28.1604C342.706 28.7731 343.256 29.2237 343.904 29.5121C344.553 29.7824 345.193 29.9176 345.824 29.9176C346.635 29.9176 347.356 29.8094 347.987 29.5932C348.617 29.3769 349.113 29.0525 349.473 28.62C349.852 28.1694 350.041 27.5927 350.041 26.8898C350.041 26.3131 349.897 25.8265 349.609 25.43C349.32 25.0335 348.933 24.7001 348.446 24.4297C347.96 24.1414 347.419 23.8981 346.824 23.6998C346.229 23.4836 345.626 23.2763 345.013 23.0781C344.526 22.9159 344.049 22.7356 343.58 22.5374C343.111 22.3211 342.67 22.0868 342.255 21.8345C341.841 21.5642 341.471 21.2488 341.147 20.8883C340.841 20.5279 340.597 20.1044 340.417 19.6178C340.255 19.1312 340.174 18.5634 340.174 17.9146C340.174 16.9234 340.408 16.0493 340.877 15.2924C341.363 14.5354 342.039 13.9497 342.904 13.5352C343.769 13.1026 344.77 12.8864 345.905 12.8864C346.572 12.8864 347.185 12.9495 347.743 13.0756C348.302 13.2018 348.798 13.373 349.23 13.5893C349.663 13.7875 350.032 14.0038 350.338 14.2381C350.645 14.4543 350.879 14.6616 351.041 14.8598C351.366 15.2023 351.546 15.4906 351.582 15.7249C351.618 15.9592 351.483 16.2476 351.177 16.59C350.888 16.9144 350.609 17.0856 350.338 17.1036C350.068 17.1217 349.771 16.9955 349.446 16.7252C349.104 16.3287 348.744 16.0223 348.365 15.806C348.005 15.5897 347.617 15.4456 347.203 15.3735C346.806 15.2834 346.365 15.2383 345.878 15.2383C345.409 15.2383 344.968 15.3014 344.553 15.4275C344.157 15.5357 343.805 15.7069 343.499 15.9412C343.211 16.1755 342.985 16.4638 342.823 16.8063C342.661 17.1307 342.58 17.5091 342.58 17.9417C342.58 18.4283 342.706 18.8428 342.958 19.1852C343.229 19.5276 343.58 19.825 344.013 20.0773C344.445 20.3116 344.932 20.5279 345.472 20.7261C346.013 20.9064 346.581 21.0866 347.176 21.2668C347.824 21.4651 348.464 21.7084 349.095 21.9967C349.726 22.2671 350.293 22.6095 350.798 23.024C351.303 23.4205 351.708 23.9251 352.015 24.5379C352.321 25.1506 352.474 25.9076 352.474 26.8087C352.474 27.7098 352.294 28.5028 351.933 29.1877C351.591 29.8725 351.113 30.4492 350.501 30.9178C349.888 31.3684 349.185 31.7108 348.392 31.9451C347.617 32.1794 346.797 32.2965 345.932 32.2965ZM360.901 32.2965C360.216 32.2965 359.567 32.2154 358.954 32.0532C358.36 31.891 357.81 31.6748 357.305 31.4044C356.819 31.1161 356.386 30.8007 356.008 30.4582C355.629 30.1158 355.332 29.7734 355.116 29.431C354.917 29.1426 354.791 28.9083 354.737 28.7281C354.683 28.5298 354.692 28.3406 354.764 28.1604C354.854 27.9802 355.026 27.7819 355.278 27.5656C355.566 27.3494 355.818 27.2503 356.035 27.2683C356.251 27.2683 356.449 27.3494 356.63 27.5116C356.828 27.6738 357.026 27.89 357.224 28.1604C357.675 28.7731 358.224 29.2237 358.873 29.5121C359.522 29.7824 360.162 29.9176 360.793 29.9176C361.604 29.9176 362.325 29.8094 362.955 29.5932C363.586 29.3769 364.082 29.0525 364.442 28.62C364.821 28.1694 365.01 27.5927 365.01 26.8898C365.01 26.3131 364.866 25.8265 364.577 25.43C364.289 25.0335 363.902 24.7001 363.415 24.4297C362.928 24.1414 362.388 23.8981 361.793 23.6998C361.198 23.4836 360.594 23.2763 359.982 23.0781C359.495 22.9159 359.017 22.7356 358.549 22.5374C358.08 22.3211 357.639 22.0868 357.224 21.8345C356.81 21.5642 356.44 21.2488 356.116 20.8883C355.809 20.5279 355.566 20.1044 355.386 19.6178C355.224 19.1312 355.143 18.5634 355.143 17.9146C355.143 16.9234 355.377 16.0493 355.846 15.2924C356.332 14.5354 357.008 13.9497 357.873 13.5352C358.738 13.1026 359.738 12.8864 360.874 12.8864C361.541 12.8864 362.153 12.9495 362.712 13.0756C363.271 13.2018 363.766 13.373 364.199 13.5893C364.631 13.7875 365.001 14.0038 365.307 14.2381C365.614 14.4543 365.848 14.6616 366.01 14.8598C366.335 15.2023 366.515 15.4906 366.551 15.7249C366.587 15.9592 366.452 16.2476 366.145 16.59C365.857 16.9144 365.578 17.0856 365.307 17.1036C365.037 17.1217 364.74 16.9955 364.415 16.7252C364.073 16.3287 363.712 16.0223 363.334 15.806C362.973 15.5897 362.586 15.4456 362.171 15.3735C361.775 15.2834 361.333 15.2383 360.847 15.2383C360.378 15.2383 359.937 15.3014 359.522 15.4275C359.126 15.5357 358.774 15.7069 358.468 15.9412C358.179 16.1755 357.954 16.4638 357.792 16.8063C357.63 17.1307 357.549 17.5091 357.549 17.9417C357.549 18.4283 357.675 18.8428 357.927 19.1852C358.197 19.5276 358.549 19.825 358.981 20.0773C359.414 20.3116 359.901 20.5279 360.441 20.7261C360.982 20.9064 361.55 21.0866 362.144 21.2668C362.793 21.4651 363.433 21.7084 364.064 21.9967C364.695 22.2671 365.262 22.6095 365.767 23.024C366.272 23.4205 366.677 23.9251 366.983 24.5379C367.29 25.1506 367.443 25.9076 367.443 26.8087C367.443 27.7098 367.263 28.5028 366.902 29.1877C366.56 29.8725 366.082 30.4492 365.47 30.9178C364.857 31.3684 364.154 31.7108 363.361 31.9451C362.586 32.1794 361.766 32.2965 360.901 32.2965Z" fill="#1B1A1A"/>
<defs>
<filter id="filter0_i_70_2701" x="201.051" y="18.6211" width="11.6796" height="11.1367" filterUnits="userSpaceOnUse" color-interpolation-filters="sRGB">
<feFlood flood-opacity="0" result="BackgroundImageFix"/>
<feBlend mode="normal" in="SourceGraphic" in2="BackgroundImageFix" result="shape"/>
<feColorMatrix in="SourceAlpha" type="matrix" values="0 0 0 0 0 0 0 0 0 0 0 0 0 0 0 0 0 0 127 0" result="hardAlpha"/>
<feOffset dx="0.20106" dy="0.301591"/>
<feGaussianBlur stdDeviation="0.106666"/>
<feComposite in2="hardAlpha" operator="arithmetic" k2="-1" k3="1"/>
<feColorMatrix type="matrix" values="0 0 0 0 0 0 0 0 0 0 0 0 0 0 0 0 0 0 0.24 0"/>
<feBlend mode="normal" in2="shape" result="effect1_innerShadow_70_2701"/>
</filter>
</defs>
</svg>
