<svg width="155" height="86" viewBox="0 0 155 86" fill="none" xmlns="http://www.w3.org/2000/svg">
<path d="M155 28.2473V35.471H150.666C147.577 35.471 145.169 34.7237 143.442 33.2292C141.715 31.7014 140.852 29.2271 140.852 25.8062V14.7464H137.464V7.67209H140.852V0.896729H149.371V7.67209H154.95V14.7464H149.371V25.9058C149.371 26.7361 149.57 27.3339 149.968 27.6993C150.367 28.0646 151.031 28.2473 151.961 28.2473H155Z" fill="black"/>
<path d="M126.716 12.3054C127.713 10.7776 128.958 9.58193 130.453 8.7184C131.947 7.82166 133.608 7.37329 135.435 7.37329V16.3905H133.093C130.968 16.3905 129.373 16.8555 128.31 17.7854C127.248 18.6822 126.716 20.2764 126.716 22.568V35.4711H118.197V7.6722H126.716V12.3054Z" fill="black"/>
<path d="M82.6904 21.5216C82.6904 18.6654 83.2218 16.1578 84.2846 13.999C85.3806 11.8402 86.8586 10.1795 88.7185 9.0171C90.5784 7.85466 92.6542 7.27344 94.9459 7.27344C96.9054 7.27344 98.6159 7.67199 100.077 8.46909C101.572 9.26619 102.718 10.3124 103.515 11.6077V7.67199H112.034V35.4709H103.515V31.5352C102.684 32.8305 101.522 33.8767 100.027 34.6738C98.566 35.4709 96.8556 35.8695 94.896 35.8695C92.6376 35.8695 90.5784 35.2882 88.7185 34.1258C86.8586 32.9302 85.3806 31.2529 84.2846 29.0941C83.2218 26.9021 82.6904 24.3779 82.6904 21.5216ZM103.515 21.5715C103.515 19.4458 102.917 17.7686 101.721 16.5397C100.559 15.3109 99.1307 14.6964 97.4368 14.6964C95.743 14.6964 94.2982 15.3109 93.1026 16.5397C91.9401 17.7354 91.3589 19.396 91.3589 21.5216C91.3589 23.6472 91.9401 25.3411 93.1026 26.6032C94.2982 27.832 95.743 28.4465 97.4368 28.4465C99.1307 28.4465 100.559 27.832 101.721 26.6032C102.917 25.3743 103.515 23.6971 103.515 21.5715Z" fill="black"/>
<path d="M67.1175 7.37329C70.5716 7.37329 73.3117 8.41949 75.3376 10.5119C77.3968 12.6043 78.4264 15.5104 78.4264 19.2302V35.4711H69.9572V20.376C69.9572 18.5825 69.4756 17.2042 68.5124 16.241C67.5825 15.2447 66.2872 14.7465 64.6266 14.7465C62.9659 14.7465 61.654 15.2447 60.6909 16.241C59.7609 17.2042 59.296 18.5825 59.296 20.376V35.4711H50.8267V20.376C50.8267 18.5825 50.3452 17.2042 49.382 16.241C48.4521 15.2447 47.1568 14.7465 45.4961 14.7465C43.8355 14.7465 42.5236 15.2447 41.5604 16.241C40.6305 17.2042 40.1655 18.5825 40.1655 20.376V35.4711H31.6465V7.6722H40.1655V11.1595C41.029 9.99708 42.1583 9.08374 43.5532 8.41949C44.9481 7.72202 46.5257 7.37329 48.286 7.37329C50.3784 7.37329 52.2383 7.82166 53.8657 8.7184C55.5263 9.61514 56.8216 10.8938 57.7516 12.5545C58.7147 11.0267 60.0266 9.7812 61.6873 8.81804C63.3479 7.85487 65.158 7.37329 67.1175 7.37329Z" fill="black"/>
<path d="M13.6504 35.8198C11.093 35.8198 8.80133 35.4046 6.77537 34.5743C4.7494 33.744 3.12198 32.5151 1.89312 30.8877C0.697464 29.2603 0.0664252 27.3007 0 25.0091H9.06703C9.19988 26.3044 9.64825 27.3007 10.4121 27.9982C11.176 28.6625 12.1724 28.9946 13.4013 28.9946C14.6634 28.9946 15.6597 28.7123 16.3904 28.1477C17.1211 27.5498 17.4864 26.7361 17.4864 25.7065C17.4864 24.843 17.1875 24.1289 16.5897 23.5643C16.0251 22.9997 15.311 22.5347 14.4475 22.1694C13.6172 21.8041 12.4215 21.3889 10.8605 20.9239C8.60206 20.2265 6.75876 19.529 5.33062 18.8315C3.90248 18.1341 2.67361 17.1045 1.64402 15.7428C0.614433 14.381 0.0996378 12.6042 0.0996378 10.4121C0.0996378 7.15731 1.27868 4.61655 3.63678 2.78986C5.99487 0.929952 9.06703 0 12.8533 0C16.7059 0 19.8113 0.929952 22.1694 2.78986C24.5275 4.61655 25.7896 7.17392 25.9556 10.462H16.7391C16.6727 9.33273 16.2576 8.4526 15.4937 7.82156C14.7298 7.15731 13.75 6.82518 12.5544 6.82518C11.5248 6.82518 10.6945 7.10749 10.0634 7.6721C9.43237 8.2035 9.11685 8.984 9.11685 10.0136C9.11685 11.1428 9.64825 12.023 10.7111 12.654C11.7739 13.285 13.4345 13.9659 15.6929 14.6966C17.9514 15.4605 19.7781 16.1911 21.173 16.8886C22.6012 17.5861 23.83 18.599 24.8596 19.9275C25.8892 21.256 26.404 22.9665 26.404 25.0589C26.404 27.0516 25.8892 28.8617 24.8596 30.4891C23.8632 32.1166 22.4019 33.4119 20.4756 34.375C18.5492 35.3382 16.2742 35.8198 13.6504 35.8198Z" fill="black"/>
<path d="M136.295 80.106C133.87 80.106 131.711 79.6909 129.818 78.8606C127.925 78.0303 126.431 76.901 125.335 75.4729C124.238 74.0115 123.624 72.3841 123.491 70.5906H131.911C132.01 71.5538 132.459 72.3343 133.256 72.9321C134.053 73.5299 135.033 73.8289 136.195 73.8289C137.258 73.8289 138.072 73.6296 138.636 73.231C139.234 72.7993 139.533 72.2513 139.533 71.587C139.533 70.7899 139.118 70.2087 138.287 69.8434C137.457 69.4448 136.112 69.013 134.252 68.5481C132.259 68.0831 130.599 67.6015 129.27 67.1033C127.942 66.5719 126.796 65.7582 125.833 64.6622C124.87 63.533 124.388 62.0218 124.388 60.1287C124.388 58.5345 124.82 57.0897 125.683 55.7944C126.58 54.4659 127.875 53.4197 129.569 52.6558C131.296 51.892 133.339 51.51 135.697 51.51C139.184 51.51 141.924 52.3735 143.917 54.1006C145.943 55.8276 147.105 58.1193 147.404 60.9756H139.533C139.4 60.0124 138.968 59.2485 138.238 58.6839C137.54 58.1193 136.61 57.837 135.448 57.837C134.451 57.837 133.687 58.0363 133.156 58.4348C132.625 58.8002 132.359 59.315 132.359 59.9792C132.359 60.7763 132.774 61.3741 133.604 61.7727C134.468 62.1712 135.796 62.5698 137.59 62.9684C139.649 63.4998 141.326 64.0312 142.622 64.5626C143.917 65.0607 145.046 65.8911 146.009 67.0535C147.006 68.1827 147.521 69.7105 147.554 71.6368C147.554 73.2642 147.089 74.7256 146.159 76.0209C145.262 77.283 143.95 78.2794 142.223 79.01C140.529 79.7407 138.553 80.106 136.295 80.106Z" fill="black"/>
<path d="M111.178 79.7075L102.708 68.0499V79.7075H94.1895V42.8416H102.708V63.2175L111.128 51.9086H121.64L110.082 65.8579L121.739 79.7075H111.178Z" fill="black"/>
<path d="M27.9787 61.7727C30.0047 62.2044 31.6321 63.2174 32.8609 64.8116C34.0898 66.3726 34.7042 68.1661 34.7042 70.1921C34.7042 73.1148 33.6746 75.4396 31.6155 77.1667C29.5895 78.8605 26.7498 79.7075 23.0964 79.7075H6.80566V44.7346H22.5484C26.1022 44.7346 28.8754 45.5483 30.8682 47.1757C32.8941 48.8032 33.9071 51.0118 33.9071 53.8017C33.9071 55.8608 33.3591 57.5713 32.2631 58.933C31.2003 60.2947 29.7722 61.2413 27.9787 61.7727ZM15.3247 58.8832H20.9044C22.2993 58.8832 23.3621 58.5843 24.0928 57.9864C24.8567 57.3554 25.2386 56.4421 25.2386 55.2464C25.2386 54.0507 24.8567 53.1374 24.0928 52.5064C23.3621 51.8753 22.2993 51.5598 20.9044 51.5598H15.3247V58.8832ZM21.6019 72.8325C23.03 72.8325 24.126 72.5169 24.8899 71.8859C25.687 71.2217 26.0856 70.2751 26.0856 69.0462C26.0856 67.8174 25.6704 66.8542 24.8401 66.1567C24.043 65.4593 22.9304 65.1105 21.5022 65.1105H15.3247V72.8325H21.6019Z" fill="black"/>
<g clip-path="url(#clip0_70_2685)">
<path d="M49.1733 46.8139H49.1696C48.9695 46.8134 48.7712 46.8519 48.5863 46.9271C48.4014 47.0022 48.2335 47.1126 48.0923 47.2518C47.9483 47.3919 47.8341 47.5588 47.7564 47.7426C47.6788 47.9264 47.6391 48.1235 47.6397 48.3225V70.9435C47.6397 71.773 48.3303 72.4495 49.1793 72.4516C52.7588 72.46 58.7557 73.1919 62.8928 77.439V53.7655C62.8928 53.4843 62.8196 53.2201 62.6814 53.0015C59.2859 47.6371 52.7608 46.8221 49.1733 46.8139ZM80.5334 70.9435V48.3223C80.5334 47.9175 80.3727 47.5372 80.0808 47.2516C79.9396 47.1125 79.7717 47.0022 79.5869 46.927C79.402 46.8518 79.2037 46.8133 79.0036 46.8137H78.9998C75.4124 46.8221 68.8873 47.6371 65.4917 53.0015C65.3535 53.2201 65.2804 53.4843 65.2804 53.7655V77.4388C69.4175 73.1917 75.4145 72.4598 78.9939 72.4515C79.8428 72.4493 80.5334 71.7728 80.5334 70.9435Z" fill="#08D0C2"/>
<path d="M86.2464 49.2566H85.0103V70.6287C85.0103 73.0221 83.0603 74.9737 80.6633 74.9796C77.2975 74.9877 71.7479 75.6458 67.8176 79.3657C74.6151 77.7014 81.7809 78.7833 85.8648 79.7139C86.1149 79.7716 86.3749 79.772 86.6252 79.7149C86.8756 79.6578 87.1097 79.5449 87.3102 79.3845C87.5105 79.2253 87.6723 79.0228 87.7832 78.7922C87.8942 78.5616 87.9515 78.3089 87.9508 78.053V50.961C87.951 50.0212 87.1862 49.2566 86.2464 49.2566ZM43.252 70.6287V49.2566H42.016C41.0763 49.2566 40.3115 50.0212 40.3115 50.961V78.0525C40.3115 78.5738 40.5451 79.0592 40.9522 79.384C41.1526 79.5445 41.3867 79.6575 41.6371 79.7146C41.8874 79.7716 42.1474 79.7712 42.3976 79.7134C46.4814 78.7826 53.6474 77.7009 60.4446 79.3652C56.5144 75.6455 50.9648 74.9875 47.5991 74.9795C45.2022 74.9737 43.252 73.0221 43.252 70.6287Z" fill="#08D0C2"/>
</g>
<defs>
<clipPath id="clip0_70_2685">
<rect width="47.6393" height="47.6393" fill="white" transform="translate(40.3115 37.7395)"/>
</clipPath>
</defs>
</svg>
