<svg width="112" height="28" viewBox="0 0 112 28" fill="none" xmlns="http://www.w3.org/2000/svg">
<g opacity="0.7">
<path d="M54.1367 13.4695V16.1545H52.6312C51.5583 16.1545 50.7219 15.8767 50.122 15.3212C49.5221 14.7534 49.2221 13.8337 49.2221 12.5622V8.45142H48.0454V5.82202H49.2221V3.30371H52.1813V5.82202H54.1194V8.45142H52.1813V12.5992C52.1813 12.9078 52.2505 13.13 52.3889 13.2658C52.5274 13.4016 52.7581 13.4695 53.0811 13.4695H54.1367Z" fill="#1B1A1A"/>
<path d="M44.3122 7.54412C44.6583 6.97626 45.0909 6.53186 45.61 6.2109C46.1292 5.87759 46.706 5.71094 47.3405 5.71094V9.06251H46.5272C45.7889 9.06251 45.2351 9.23533 44.8659 9.58098C44.4968 9.91429 44.3122 10.5068 44.3122 11.3586V16.1545H41.353V5.82204H44.3122V7.54412Z" fill="#1B1A1A"/>
<path d="M29.0195 10.9697C29.0195 9.90804 29.2041 8.97602 29.5733 8.17362C29.954 7.37122 30.4674 6.75398 31.1134 6.32192C31.7595 5.88986 32.4805 5.67383 33.2765 5.67383C33.9572 5.67383 34.5513 5.82196 35.0589 6.11823C35.5781 6.41451 35.9761 6.80336 36.253 7.2848V5.82196H39.2121V16.1544H36.253V14.6916C35.9646 15.173 35.5608 15.5619 35.0416 15.8582C34.534 16.1544 33.9399 16.3026 33.2592 16.3026C32.4747 16.3026 31.7595 16.0865 31.1134 15.6545C30.4674 15.2101 29.954 14.5867 29.5733 13.7843C29.2041 12.9695 29.0195 12.0313 29.0195 10.9697ZM36.253 10.9882C36.253 10.1981 36.0453 9.57473 35.63 9.11798C35.2262 8.66123 34.7302 8.43285 34.1418 8.43285C33.5534 8.43285 33.0516 8.66123 32.6363 9.11798C32.2325 9.56239 32.0306 10.1796 32.0306 10.9697C32.0306 11.7597 32.2325 12.3893 32.6363 12.8584C33.0516 13.3152 33.5534 13.5435 34.1418 13.5435C34.7302 13.5435 35.2262 13.3152 35.63 12.8584C36.0453 12.4017 36.253 11.7783 36.253 10.9882Z" fill="#1B1A1A"/>
<path d="M23.6102 5.71094C24.81 5.71094 25.7617 6.09979 26.4655 6.8775C27.1807 7.65522 27.5384 8.73537 27.5384 10.118V16.1545H24.5965V10.5439C24.5965 9.87725 24.4293 9.36495 24.0947 9.00696C23.7717 8.63662 23.3217 8.45145 22.7449 8.45145C22.1681 8.45145 21.7124 8.63662 21.3778 9.00696C21.0548 9.36495 20.8933 9.87725 20.8933 10.5439V16.1545H17.9514V10.5439C17.9514 9.87725 17.7842 9.36495 17.4496 9.00696C17.1266 8.63662 16.6767 8.45145 16.0998 8.45145C15.523 8.45145 15.0673 8.63662 14.7327 9.00696C14.4097 9.36495 14.2482 9.87725 14.2482 10.5439V16.1545H11.2891V5.82204H14.2482V7.11823C14.5482 6.68616 14.9404 6.34669 15.4249 6.09979C15.9095 5.84056 16.4575 5.71094 17.0689 5.71094C17.7957 5.71094 18.4418 5.87759 19.007 6.2109C19.5839 6.5442 20.0338 7.01947 20.3568 7.6367C20.6914 7.06885 21.1471 6.60592 21.7239 6.24793C22.3007 5.88993 22.9295 5.71094 23.6102 5.71094Z" fill="#1B1A1A"/>
<path d="M5.03793 16.2841C4.14961 16.2841 3.35359 16.1298 2.64985 15.8212C1.94612 15.5126 1.38083 15.0559 0.953973 14.451C0.538655 13.8461 0.31946 13.1178 0.296387 12.266H3.44588C3.49203 12.7474 3.64777 13.1178 3.91311 13.377C4.17845 13.6239 4.52455 13.7473 4.95141 13.7473C5.3898 13.7473 5.73589 13.6424 5.9897 13.4325C6.24351 13.2103 6.37041 12.9079 6.37041 12.5252C6.37041 12.2042 6.26658 11.9388 6.05892 11.729C5.8628 11.5191 5.61476 11.3463 5.31481 11.2105C5.02639 11.0747 4.61108 10.9204 4.06886 10.7476C3.28437 10.4883 2.64408 10.2291 2.14801 9.96987C1.65194 9.71063 1.22508 9.32795 0.867449 8.82182C0.509814 8.31569 0.330997 7.65525 0.330997 6.8405C0.330997 5.63073 0.740546 4.68636 1.55964 4.00741C2.37874 3.31611 3.44588 2.97046 4.76105 2.97046C6.0993 2.97046 7.17797 3.31611 7.99707 4.00741C8.81617 4.68636 9.25456 5.6369 9.31224 6.85902H6.11083C6.08776 6.4393 5.94355 6.11217 5.67821 5.87762C5.41287 5.63073 5.07254 5.50728 4.65722 5.50728C4.29959 5.50728 4.01117 5.61221 3.79198 5.82207C3.57278 6.01958 3.46318 6.30968 3.46318 6.69237C3.46318 7.11208 3.64777 7.43922 4.01694 7.67377C4.38611 7.90831 4.96294 8.16138 5.74743 8.43296C6.53192 8.71689 7.16643 8.98847 7.65097 9.24771C8.14704 9.50694 8.5739 9.88346 8.93153 10.3772C9.28917 10.871 9.46799 11.5068 9.46799 12.2845C9.46799 13.0252 9.28917 13.6979 8.93153 14.3028C8.58544 14.9077 8.07782 15.3892 7.4087 15.7472C6.73958 16.1052 5.94932 16.2841 5.03793 16.2841Z" fill="#1B1A1A"/>
<path d="M107.148 16.5709C106.305 16.5709 105.556 16.4166 104.898 16.1079C104.24 15.7993 103.721 15.3796 103.34 14.8488C102.96 14.3056 102.746 13.7007 102.7 13.0341H105.625C105.659 13.3921 105.815 13.6822 106.092 13.9044C106.369 14.1266 106.709 14.2377 107.113 14.2377C107.482 14.2377 107.765 14.1637 107.961 14.0155C108.169 13.8551 108.272 13.6514 108.272 13.4045C108.272 13.1082 108.128 12.8922 107.84 12.7564C107.551 12.6082 107.084 12.4478 106.438 12.2749C105.746 12.1021 105.169 11.9231 104.708 11.7379C104.246 11.5404 103.848 11.238 103.514 10.8306C103.179 10.4109 103.012 9.84922 103.012 9.14557C103.012 8.55303 103.162 8.01604 103.462 7.5346C103.773 7.04081 104.223 6.65196 104.811 6.36803C105.411 6.0841 106.121 5.94214 106.94 5.94214C108.151 5.94214 109.103 6.2631 109.795 6.90502C110.499 7.54694 110.903 8.39872 111.007 9.46036H108.272C108.226 9.10237 108.076 8.81844 107.822 8.60858C107.58 8.39872 107.257 8.29379 106.853 8.29379C106.507 8.29379 106.242 8.36786 106.057 8.516C105.873 8.65179 105.78 8.84313 105.78 9.09002C105.78 9.38629 105.925 9.6085 106.213 9.75663C106.513 9.90477 106.975 10.0529 107.597 10.201C108.313 10.3986 108.895 10.5961 109.345 10.7936C109.795 10.9788 110.187 11.2874 110.522 11.7194C110.868 12.1391 111.047 12.707 111.058 13.423C111.058 14.0279 110.897 14.571 110.574 15.0525C110.262 15.5216 109.807 15.8919 109.207 16.1635C108.618 16.4351 107.932 16.5709 107.148 16.5709Z" fill="#1B1A1A"/>
<path d="M98.4229 16.4228L95.4811 12.0898V16.4228H92.522V2.72021H95.4811V10.2936L98.4056 6.0903H102.057L98.0422 11.275L102.092 16.4228H98.4229Z" fill="#1B1A1A"/>
<path d="M69.523 9.75638C70.2268 9.91686 70.7921 10.2934 71.2189 10.8859C71.6458 11.4661 71.8592 12.1327 71.8592 12.8857C71.8592 13.9721 71.5016 14.8362 70.7863 15.4781C70.0826 16.1077 69.0962 16.4225 67.8272 16.4225H62.1685V3.42358H67.6368C68.8712 3.42358 69.8345 3.72603 70.5267 4.33091C71.2305 4.9358 71.5823 5.75672 71.5823 6.79367C71.5823 7.55904 71.392 8.19478 71.0113 8.70091C70.6421 9.20704 70.146 9.55887 69.523 9.75638ZM65.1276 8.6824H67.0657C67.5503 8.6824 67.9195 8.5713 68.1733 8.34909C68.4386 8.11454 68.5713 7.77507 68.5713 7.33066C68.5713 6.88625 68.4386 6.54678 68.1733 6.31223C67.9195 6.07768 67.5503 5.96041 67.0657 5.96041H65.1276V8.6824ZM67.308 13.8671C67.8041 13.8671 68.1848 13.7499 68.4501 13.5153C68.727 13.2684 68.8655 12.9166 68.8655 12.4599C68.8655 12.0031 68.7212 11.6451 68.4328 11.3859C68.156 11.1266 67.7695 10.997 67.2734 10.997H65.1276V13.8671H67.308Z" fill="#1B1A1A"/>
<g clip-path="url(#clip0_66_2307)">
<path d="M76.8857 3.97564H76.8845C76.815 3.97549 76.7461 3.98886 76.6819 4.01496C76.6176 4.04107 76.5593 4.0794 76.5102 4.12774C76.4602 4.17643 76.4206 4.23438 76.3936 4.29822C76.3666 4.36207 76.3528 4.43054 76.353 4.49965V12.3572C76.353 12.6453 76.5929 12.8803 76.8878 12.8811C78.1312 12.884 80.2143 13.1382 81.6513 14.6134V6.39031C81.6513 6.29264 81.6259 6.20088 81.5779 6.12495C80.3984 4.26161 78.1319 3.9785 76.8857 3.97564ZM87.7789 12.3572V4.4996C87.7789 4.35898 87.7231 4.2269 87.6217 4.12769C87.5726 4.07936 87.5143 4.04104 87.4501 4.01493C87.3859 3.98883 87.317 3.97545 87.2475 3.97559H87.2462C86.0001 3.9785 83.7335 4.26161 82.554 6.12495C82.506 6.20088 82.4807 6.29264 82.4807 6.39031V14.6134C83.9177 13.1381 86.0008 12.8839 87.2441 12.881C87.539 12.8803 87.7789 12.6453 87.7789 12.3572Z" fill="#1B1A1A"/>
<path d="M89.7629 4.82422H89.3335V12.248C89.3335 13.0793 88.6562 13.7572 87.8236 13.7593C86.6545 13.7621 84.7268 13.9907 83.3615 15.2828C85.7227 14.7047 88.2118 15.0805 89.6303 15.4037C89.7172 15.4238 89.8076 15.4239 89.8945 15.4041C89.9814 15.3843 90.0628 15.345 90.1324 15.2893C90.202 15.234 90.2582 15.1637 90.2967 15.0836C90.3353 15.0035 90.3552 14.9157 90.3549 14.8268V5.41626C90.355 5.08982 90.0893 4.82422 89.7629 4.82422ZM74.8285 12.248V4.82422H74.3992C74.0728 4.82422 73.8071 5.08982 73.8071 5.41626V14.8266C73.8071 15.0077 73.8883 15.1763 74.0297 15.2891C74.0993 15.3449 74.1806 15.3841 74.2676 15.404C74.3545 15.4238 74.4448 15.4237 74.5317 15.4036C75.9503 15.0802 78.4394 14.7045 80.8005 15.2826C79.4353 13.9905 77.5076 13.762 76.3385 13.7592C75.5059 13.7572 74.8285 13.0793 74.8285 12.248Z" fill="#1B1A1A"/>
</g>
<path d="M78.1829 24.5744C78.035 24.5744 77.8958 24.5549 77.7653 24.5157C77.6392 24.4809 77.5261 24.4352 77.426 24.3787C77.326 24.3221 77.2389 24.2678 77.165 24.2156C77.0954 24.159 77.0432 24.1133 77.0084 24.0785C76.9605 24.0263 76.917 23.9763 76.8779 23.9284C76.8431 23.8806 76.8257 23.8306 76.8257 23.7784C76.8257 23.7305 76.8387 23.6827 76.8648 23.6348C76.8953 23.5826 76.9344 23.5326 76.9823 23.4847C77.0388 23.4238 77.0889 23.3825 77.1324 23.3607C77.1759 23.3346 77.2215 23.3216 77.2694 23.3216C77.3347 23.3216 77.3912 23.3455 77.4391 23.3934C77.4913 23.4369 77.5522 23.4913 77.6218 23.5565C77.6566 23.5826 77.7022 23.6152 77.7588 23.6544C77.8153 23.6892 77.8806 23.7196 77.9545 23.7457C78.0328 23.7718 78.1177 23.7849 78.209 23.7849C78.3308 23.7849 78.4352 23.7653 78.5222 23.7262C78.6136 23.6827 78.6875 23.6218 78.7441 23.5435C78.805 23.4652 78.8485 23.3738 78.8746 23.2694C78.9051 23.1606 78.9203 23.0432 78.9203 22.917V20.4244C78.9203 20.3461 78.929 20.2721 78.9464 20.2025C78.9638 20.1329 79.0008 20.0786 79.0573 20.0394C79.1139 20.0003 79.2052 19.9807 79.3314 19.9807C79.4488 19.9807 79.5337 20.0003 79.5859 20.0394C79.6424 20.0742 79.6772 20.1221 79.6903 20.183C79.7077 20.2439 79.7164 20.3113 79.7164 20.3852V22.9627C79.7164 23.1933 79.6794 23.4064 79.6054 23.6022C79.5358 23.7979 79.4336 23.9698 79.2987 24.1177C79.1682 24.2612 79.0073 24.3743 78.8159 24.457C78.6288 24.5353 78.4178 24.5744 78.1829 24.5744ZM81.9425 24.581C81.7337 24.581 81.5292 24.5418 81.3291 24.4635C81.1333 24.3809 80.955 24.2656 80.794 24.1177C80.6374 23.9698 80.5113 23.7958 80.4156 23.5957C80.3242 23.3956 80.2785 23.1759 80.2785 22.9366C80.2785 22.7061 80.322 22.4907 80.4091 22.2906C80.4961 22.0905 80.6157 21.9143 80.7679 21.7621C80.9202 21.6098 81.0942 21.4924 81.29 21.4097C81.4901 21.3227 81.7032 21.2792 81.9294 21.2792C82.2339 21.2792 82.5102 21.3532 82.7581 21.5011C83.0061 21.6446 83.204 21.8404 83.3519 22.0883C83.4998 22.3363 83.5738 22.6169 83.5738 22.9301C83.5738 23.178 83.5281 23.4043 83.4368 23.6087C83.3454 23.8088 83.2214 23.9828 83.0648 24.1307C82.9082 24.2743 82.732 24.3852 82.5363 24.4635C82.3449 24.5418 82.1469 24.581 81.9425 24.581ZM81.9294 23.811C82.073 23.811 82.21 23.7762 82.3405 23.7066C82.4754 23.6326 82.5841 23.5282 82.6668 23.3934C82.7538 23.2585 82.7973 23.0997 82.7973 22.917C82.7973 22.7474 82.7581 22.5973 82.6798 22.4668C82.6059 22.3363 82.5036 22.2341 82.3731 22.1601C82.2426 22.0862 82.0926 22.0492 81.9229 22.0492C81.7619 22.0492 81.6162 22.0883 81.4857 22.1666C81.3552 22.2406 81.2508 22.345 81.1725 22.4798C81.0985 22.6103 81.0616 22.7583 81.0616 22.9236C81.0616 23.1063 81.1029 23.265 81.1856 23.3999C81.2682 23.5304 81.3748 23.6326 81.5053 23.7066C81.6401 23.7762 81.7815 23.811 81.9294 23.811ZM84.4651 24.5353C84.3476 24.5353 84.2606 24.5179 84.2041 24.4831C84.1519 24.4483 84.1193 24.4004 84.1062 24.3395C84.0931 24.2786 84.0866 24.2134 84.0866 24.1438V21.7033C84.0866 21.6337 84.0931 21.5707 84.1062 21.5141C84.1193 21.4576 84.1541 21.4119 84.2106 21.3771C84.2672 21.3423 84.3563 21.3249 84.4781 21.3249C84.6043 21.3249 84.6956 21.351 84.7522 21.4032C84.8131 21.4554 84.8436 21.538 84.8436 21.6511L84.7848 21.8338C84.8066 21.786 84.8436 21.7338 84.8958 21.6772C84.948 21.6207 85.011 21.5641 85.085 21.5076C85.1633 21.451 85.2503 21.4054 85.346 21.3706C85.4417 21.3358 85.5417 21.3184 85.6462 21.3184C85.7897 21.3184 85.9202 21.3423 86.0377 21.3901C86.1595 21.438 86.266 21.5076 86.3574 21.5989C86.4531 21.6903 86.5358 21.8012 86.6054 21.9317C86.6793 21.8186 86.762 21.7164 86.8533 21.625C86.9447 21.5293 87.0513 21.4554 87.1731 21.4032C87.2949 21.3466 87.4319 21.3184 87.5841 21.3184C87.8365 21.3184 88.0474 21.3814 88.2171 21.5076C88.3911 21.6337 88.5216 21.8143 88.6086 22.0492C88.7 22.2797 88.7456 22.556 88.7456 22.8779V24.1438C88.7456 24.2177 88.7369 24.2852 88.7195 24.3461C88.7065 24.4026 88.6717 24.4483 88.6151 24.4831C88.5629 24.5179 88.4759 24.5353 88.3541 24.5353C88.2323 24.5353 88.1431 24.5157 88.0866 24.4766C88.03 24.4418 87.9952 24.3961 87.9822 24.3395C87.9691 24.2786 87.9626 24.2112 87.9626 24.1373V22.8714C87.9626 22.7104 87.943 22.5712 87.9039 22.4537C87.8647 22.3363 87.806 22.2449 87.7277 22.1797C87.6537 22.1144 87.5559 22.0818 87.4341 22.0818C87.3036 22.0818 87.1905 22.1144 87.0948 22.1797C87.0034 22.2406 86.9316 22.3298 86.8794 22.4472C86.8272 22.5647 86.8011 22.7082 86.8011 22.8779V24.1503C86.8011 24.2243 86.7902 24.2939 86.7685 24.3591C86.7467 24.42 86.7032 24.4657 86.638 24.4961C86.5771 24.5309 86.4879 24.544 86.3705 24.5353C86.2617 24.5309 86.1812 24.5092 86.129 24.47C86.0812 24.4309 86.0507 24.383 86.0377 24.3265C86.029 24.2656 86.0246 24.2025 86.0246 24.1373V22.8714C86.0246 22.7104 86.005 22.5712 85.9659 22.4537C85.9267 22.3319 85.868 22.2406 85.7897 22.1797C85.7158 22.1144 85.6157 22.0818 85.4895 22.0818C85.3547 22.0818 85.2394 22.1166 85.1437 22.1862C85.0524 22.2558 84.9828 22.3493 84.9349 22.4668C84.8871 22.5842 84.8631 22.7191 84.8631 22.8714V24.1503C84.8631 24.2199 84.8544 24.2852 84.837 24.3461C84.824 24.407 84.7892 24.4526 84.7326 24.4831C84.6804 24.5179 84.5912 24.5353 84.4651 24.5353ZM91.6654 24.5549C91.4305 24.5549 91.2021 24.5201 90.9802 24.4505C90.7584 24.3809 90.5517 24.2808 90.3603 24.1503C90.1689 24.0198 89.9993 23.8588 89.8514 23.6674C89.7078 23.4717 89.5947 23.2542 89.512 23.0149C89.4294 22.7713 89.3881 22.5038 89.3881 22.2123C89.3881 21.9339 89.4294 21.6772 89.512 21.4423C89.5947 21.2031 89.7078 20.9921 89.8514 20.8094C89.9949 20.6267 90.1624 20.4723 90.3538 20.3461C90.5496 20.2156 90.7584 20.1177 90.9802 20.0525C91.2064 19.9829 91.437 19.9481 91.6719 19.9481C91.8894 19.9481 92.0765 19.9698 92.2331 20.0133C92.3897 20.0568 92.518 20.1047 92.618 20.1569C92.7181 20.2047 92.7855 20.2417 92.8203 20.2678C92.8812 20.3026 92.94 20.3439 92.9965 20.3918C93.0531 20.4396 93.0835 20.4962 93.0879 20.5614C93.0966 20.6093 93.0922 20.6484 93.0748 20.6789C93.0618 20.7093 93.0444 20.742 93.0226 20.7768C92.9878 20.829 92.9508 20.8681 92.9117 20.8942C92.8769 20.916 92.8377 20.9268 92.7942 20.9268C92.7507 20.9268 92.7116 20.9138 92.6768 20.8877C92.642 20.8616 92.5963 20.8311 92.5397 20.7963C92.5136 20.7789 92.4614 20.7507 92.3831 20.7115C92.3048 20.6724 92.2048 20.6354 92.083 20.6006C91.9612 20.5614 91.8133 20.5419 91.6393 20.5419C91.4174 20.5419 91.2042 20.5832 90.9998 20.6658C90.7997 20.7441 90.6235 20.8572 90.4712 21.0051C90.319 21.153 90.1994 21.3314 90.1124 21.5402C90.0254 21.749 89.9819 21.9839 89.9819 22.2449C89.9819 22.5103 90.0254 22.7496 90.1124 22.9627C90.1994 23.1715 90.319 23.3499 90.4712 23.4978C90.6279 23.6457 90.8062 23.7588 91.0063 23.8371C91.2064 23.9154 91.4174 23.9545 91.6393 23.9545C91.8046 23.9545 91.9481 23.9371 92.0699 23.9023C92.1961 23.8675 92.2983 23.8306 92.3766 23.7914C92.4593 23.7479 92.5158 23.7153 92.5463 23.6935C92.5941 23.6674 92.6354 23.6413 92.6702 23.6152C92.7094 23.5891 92.7507 23.5761 92.7942 23.5761C92.8377 23.5761 92.8769 23.5891 92.9117 23.6152C92.9508 23.637 92.9878 23.674 93.0226 23.7262C93.0444 23.7566 93.0618 23.7914 93.0748 23.8306C93.0922 23.8654 93.0966 23.9045 93.0879 23.948C93.0835 24.0133 93.0531 24.0698 92.9965 24.1177C92.94 24.1612 92.8812 24.2025 92.8203 24.2417C92.7812 24.2591 92.7116 24.296 92.6115 24.3526C92.5158 24.4048 92.3897 24.4505 92.2331 24.4896C92.0765 24.5331 91.8872 24.5549 91.6654 24.5549ZM94.1449 24.5418C94.0579 24.5418 93.9926 24.5288 93.9491 24.5027C93.9056 24.4809 93.8752 24.4483 93.8578 24.4048C93.8447 24.3613 93.8382 24.3091 93.8382 24.2482V20.2874C93.8382 20.2221 93.8447 20.1677 93.8578 20.1242C93.8708 20.0807 93.8969 20.0481 93.9361 20.0264C93.9796 20.0003 94.0448 19.9872 94.1318 19.9872C94.2188 19.9872 94.2819 20.0003 94.3211 20.0264C94.3646 20.0481 94.3929 20.0807 94.4059 20.1242C94.419 20.1677 94.4255 20.2199 94.4255 20.2808V23.9937H96.6114C96.668 23.9937 96.7158 24.0002 96.755 24.0133C96.7941 24.0263 96.8246 24.0524 96.8463 24.0916C96.8724 24.1307 96.8855 24.1895 96.8855 24.2678C96.8855 24.3417 96.8746 24.4004 96.8529 24.4439C96.8311 24.4831 96.8007 24.5092 96.7615 24.5222C96.7224 24.5353 96.6745 24.5418 96.618 24.5418H94.1449ZM101.509 24.1242C101.544 24.1895 101.562 24.246 101.562 24.2939C101.566 24.3374 101.553 24.3787 101.522 24.4178C101.492 24.4526 101.444 24.4853 101.379 24.5157C101.274 24.5636 101.192 24.5744 101.131 24.5483C101.074 24.5222 101.022 24.4592 100.974 24.3591L99.343 20.8877L97.7247 24.3526C97.6769 24.4526 97.6225 24.5157 97.5616 24.5418C97.5051 24.5679 97.4224 24.557 97.3137 24.5092C97.2484 24.4831 97.2006 24.4505 97.1701 24.4113C97.144 24.3722 97.1331 24.3243 97.1375 24.2678C97.1462 24.2112 97.1679 24.146 97.2027 24.072L99.0755 20.1634C99.1016 20.1112 99.1385 20.0699 99.1864 20.0394C99.2386 20.0046 99.293 19.9872 99.3495 19.9872C99.3887 19.9872 99.4257 19.9937 99.4605 20.0068C99.4953 20.0198 99.5257 20.0394 99.5518 20.0655C99.5779 20.0916 99.5997 20.1264 99.6171 20.1699L101.509 24.1242ZM98.1163 23.2433L98.3381 22.7409H100.361L100.576 23.2433H98.1163ZM103.415 24.6071C103.25 24.6071 103.093 24.5875 102.946 24.5483C102.802 24.5092 102.669 24.457 102.548 24.3917C102.43 24.3221 102.326 24.246 102.234 24.1634C102.143 24.0807 102.071 23.998 102.019 23.9154C101.971 23.8458 101.941 23.7892 101.928 23.7457C101.915 23.6979 101.917 23.6522 101.934 23.6087C101.956 23.5652 101.997 23.5174 102.058 23.4652C102.128 23.413 102.189 23.389 102.241 23.3934C102.293 23.3934 102.341 23.413 102.384 23.4521C102.432 23.4913 102.48 23.5435 102.528 23.6087C102.637 23.7566 102.769 23.8654 102.926 23.935C103.083 24.0002 103.237 24.0328 103.389 24.0328C103.585 24.0328 103.759 24.0067 103.911 23.9545C104.064 23.9023 104.183 23.824 104.27 23.7196C104.362 23.6109 104.407 23.4717 104.407 23.302C104.407 23.1628 104.372 23.0454 104.303 22.9497C104.233 22.854 104.14 22.7735 104.022 22.7082C103.905 22.6386 103.774 22.5799 103.631 22.532C103.487 22.4798 103.341 22.4298 103.194 22.382C103.076 22.3428 102.961 22.2993 102.848 22.2515C102.735 22.1993 102.628 22.1427 102.528 22.0818C102.428 22.0166 102.339 21.9404 102.26 21.8534C102.186 21.7664 102.128 21.6642 102.084 21.5467C102.045 21.4293 102.026 21.2923 102.026 21.1356C102.026 20.8964 102.082 20.6854 102.195 20.5027C102.313 20.32 102.476 20.1786 102.685 20.0786C102.893 19.9742 103.135 19.922 103.409 19.922C103.57 19.922 103.718 19.9372 103.853 19.9676C103.987 19.9981 104.107 20.0394 104.211 20.0916C104.316 20.1395 104.405 20.1917 104.479 20.2482C104.553 20.3004 104.61 20.3504 104.649 20.3983C104.727 20.481 104.77 20.5506 104.779 20.6071C104.788 20.6637 104.755 20.7333 104.681 20.8159C104.612 20.8942 104.544 20.9355 104.479 20.9399C104.414 20.9442 104.342 20.9138 104.264 20.8485C104.181 20.7528 104.094 20.6789 104.003 20.6267C103.916 20.5745 103.822 20.5397 103.722 20.5223C103.626 20.5005 103.52 20.4897 103.402 20.4897C103.289 20.4897 103.183 20.5049 103.083 20.5353C102.987 20.5614 102.902 20.6028 102.828 20.6593C102.759 20.7159 102.704 20.7855 102.665 20.8681C102.626 20.9464 102.606 21.0378 102.606 21.1422C102.606 21.2596 102.637 21.3597 102.698 21.4423C102.763 21.525 102.848 21.5968 102.952 21.6577C103.057 21.7142 103.174 21.7664 103.304 21.8143C103.435 21.8578 103.572 21.9013 103.716 21.9448C103.872 21.9926 104.027 22.0514 104.179 22.121C104.331 22.1862 104.468 22.2689 104.59 22.3689C104.712 22.4646 104.81 22.5864 104.884 22.7343C104.958 22.8822 104.995 23.0649 104.995 23.2824C104.995 23.5 104.951 23.6914 104.864 23.8567C104.781 24.022 104.666 24.1612 104.518 24.2743C104.37 24.383 104.201 24.4657 104.009 24.5222C103.822 24.5788 103.624 24.6071 103.415 24.6071ZM107.028 24.6071C106.863 24.6071 106.707 24.5875 106.559 24.5483C106.415 24.5092 106.282 24.457 106.161 24.3917C106.043 24.3221 105.939 24.246 105.847 24.1634C105.756 24.0807 105.684 23.998 105.632 23.9154C105.584 23.8458 105.554 23.7892 105.541 23.7457C105.528 23.6979 105.53 23.6522 105.547 23.6087C105.569 23.5652 105.61 23.5174 105.671 23.4652C105.741 23.413 105.802 23.389 105.854 23.3934C105.906 23.3934 105.954 23.413 105.998 23.4521C106.045 23.4913 106.093 23.5435 106.141 23.6087C106.25 23.7566 106.382 23.8654 106.539 23.935C106.696 24.0002 106.85 24.0328 107.002 24.0328C107.198 24.0328 107.372 24.0067 107.524 23.9545C107.677 23.9023 107.796 23.824 107.883 23.7196C107.975 23.6109 108.02 23.4717 108.02 23.302C108.02 23.1628 107.986 23.0454 107.916 22.9497C107.846 22.854 107.753 22.7735 107.635 22.7082C107.518 22.6386 107.387 22.5799 107.244 22.532C107.1 22.4798 106.955 22.4298 106.807 22.382C106.689 22.3428 106.574 22.2993 106.461 22.2515C106.348 22.1993 106.241 22.1427 106.141 22.0818C106.041 22.0166 105.952 21.9404 105.874 21.8534C105.8 21.7664 105.741 21.6642 105.697 21.5467C105.658 21.4293 105.639 21.2923 105.639 21.1356C105.639 20.8964 105.695 20.6854 105.808 20.5027C105.926 20.32 106.089 20.1786 106.298 20.0786C106.506 19.9742 106.748 19.922 107.022 19.922C107.183 19.922 107.331 19.9372 107.466 19.9676C107.601 19.9981 107.72 20.0394 107.825 20.0916C107.929 20.1395 108.018 20.1917 108.092 20.2482C108.166 20.3004 108.223 20.3504 108.262 20.3983C108.34 20.481 108.384 20.5506 108.392 20.6071C108.401 20.6637 108.368 20.7333 108.294 20.8159C108.225 20.8942 108.157 20.9355 108.092 20.9399C108.027 20.9442 107.955 20.9138 107.877 20.8485C107.794 20.7528 107.707 20.6789 107.616 20.6267C107.529 20.5745 107.435 20.5397 107.335 20.5223C107.239 20.5005 107.133 20.4897 107.015 20.4897C106.902 20.4897 106.796 20.5049 106.696 20.5353C106.6 20.5614 106.515 20.6028 106.441 20.6593C106.372 20.7159 106.317 20.7855 106.278 20.8681C106.239 20.9464 106.219 21.0378 106.219 21.1422C106.219 21.2596 106.25 21.3597 106.311 21.4423C106.376 21.525 106.461 21.5968 106.565 21.6577C106.67 21.7142 106.787 21.7664 106.918 21.8143C107.048 21.8578 107.185 21.9013 107.329 21.9448C107.485 21.9926 107.64 22.0514 107.792 22.121C107.944 22.1862 108.081 22.2689 108.203 22.3689C108.325 22.4646 108.423 22.5864 108.497 22.7343C108.571 22.8822 108.608 23.0649 108.608 23.2824C108.608 23.5 108.564 23.6914 108.477 23.8567C108.394 24.022 108.279 24.1612 108.131 24.2743C107.983 24.383 107.814 24.4657 107.622 24.5222C107.435 24.5788 107.237 24.6071 107.028 24.6071Z" fill="#1B1A1A"/>
<path d="M70.3808 22.7011C70.5461 22.7272 70.6962 22.7947 70.8311 22.9034C70.9703 23.0122 71.079 23.147 71.1573 23.308C71.24 23.4689 71.2813 23.6408 71.2813 23.8235C71.2813 24.054 71.2226 24.2628 71.1051 24.4499C70.9877 24.6326 70.8158 24.7783 70.5896 24.8871C70.3678 24.9915 70.1046 25.0437 69.8001 25.0437H68.1035V20.4956H69.7348C70.0437 20.4956 70.3069 20.5478 70.5244 20.6522C70.7419 20.7523 70.905 20.8893 71.0138 21.0633C71.1225 21.2373 71.1769 21.4331 71.1769 21.6506C71.1769 21.9203 71.1029 22.1443 70.955 22.3227C70.8115 22.4967 70.6201 22.6228 70.3808 22.7011ZM68.6973 22.4597H69.6957C69.9741 22.4597 70.1894 22.3945 70.3417 22.264C70.4939 22.1335 70.5701 21.9529 70.5701 21.7224C70.5701 21.4918 70.4939 21.3113 70.3417 21.1808C70.1894 21.0503 69.9697 20.985 69.6826 20.985H68.6973V22.4597ZM69.7479 24.5543C70.0437 24.5543 70.2742 24.4847 70.4395 24.3455C70.6049 24.2063 70.6875 24.0127 70.6875 23.7648C70.6875 23.5124 70.6005 23.3145 70.4265 23.171C70.2525 23.0231 70.0198 22.9491 69.7283 22.9491H68.6973V24.5543H69.7479ZM75.1852 21.4679L73.0319 26.7272H72.4185L73.1232 25.0045L71.6812 21.4679H72.3402L73.4626 24.3651L74.5718 21.4679H75.1852Z" fill="#1B1A1A"/>
</g>
<defs>
<clipPath id="clip0_66_2307">
<rect width="17.1273" height="17.1273" fill="white" transform="translate(73.8071 0.82373)"/>
</clipPath>
</defs>
</svg>
