<svg width="230" height="176" viewBox="0 0 230 176" fill="none" xmlns="http://www.w3.org/2000/svg">
<g opacity="0.5">
<g clip-path="url(#clip0_100_4728)">
<path d="M120.443 85.5854C125.093 79.7737 132.067 76.4701 139.469 76.4701H145.587C148.952 76.4701 151.705 73.7172 151.705 70.3525V9.176C151.705 5.81129 148.952 3.05835 145.587 3.05835H139.469C125.949 3.05835 114.999 14.0089 114.999 27.5289V92.3148L120.443 85.5854Z" fill="white"/>
<path d="M124.787 89.0116C127.724 88.3998 125.827 88.8892 157.823 88.7057C161.187 88.7057 163.94 85.9528 163.94 82.5881V21.4116C163.94 18.0469 161.187 15.2939 157.823 15.2939H151.705V70.3528C151.705 73.7175 148.952 76.4704 145.587 76.4704H139.47C132.863 76.4704 126.623 79.101 121.973 83.8728L114.999 91.0304L124.787 89.0116Z" fill="white"/>
<path d="M115 27.5292C115 20.7998 109.494 15.2939 102.765 15.2939H72.1765C68.8118 15.2939 66.0588 18.0469 66.0588 21.4116V82.5881C66.0588 85.9528 68.8118 88.7057 72.1765 88.7057H102.765C105.395 88.7057 107.904 89.5622 110.106 91.2139L115 94.9457V27.5292Z" fill="white"/>
<path d="M157.823 12.7358H151.706C150.269 12.7358 149.148 13.8577 149.147 15.2944C149.147 16.7312 150.269 17.853 151.706 17.853H157.823C159.812 17.853 161.383 19.4235 161.383 21.4126V82.5884C161.383 84.5775 159.812 86.1479 157.823 86.1479H127.235C122.383 86.1479 118.124 88.4536 115.399 92.0659L115 92.5952L114.601 92.0659C111.876 88.4536 107.617 86.1479 102.765 86.1479H72.1768C70.1877 86.1479 68.6172 84.5775 68.6172 82.5884V21.4126C68.6172 19.4235 70.1877 17.853 72.1768 17.853H102.765C108.118 17.853 112.441 22.1761 112.441 27.5298C112.441 28.9666 113.563 30.0884 115 30.0884C116.437 30.0884 117.559 28.9666 117.559 27.5298C117.559 23.7288 116.096 20.0783 113.482 17.3315L113.226 17.0688C110.538 14.3811 106.922 12.8347 103.132 12.7407L102.765 12.7358H72.1768C67.3753 12.7358 63.5 16.6111 63.5 21.4126V82.5884C63.5 87.3899 67.3753 91.2651 72.1768 91.2651H102.765C108.118 91.2651 112.441 95.5881 112.441 100.942C112.441 102.379 113.563 103.5 115 103.5C116.437 103.5 117.559 102.379 117.559 100.942C117.559 95.5881 121.882 91.2651 127.235 91.2651H157.823C162.625 91.2651 166.5 87.3899 166.5 82.5884V21.4126L166.488 20.9653C166.257 16.3726 162.475 12.7358 157.823 12.7358Z" fill="#5E5D5D" stroke="#EBEBEB"/>
<path d="M145.587 0.5H139.47C124.575 0.5 112.441 12.6337 112.441 27.5293V100.941C112.441 102.378 113.563 103.5 115 103.5C116.436 103.5 117.558 102.378 117.558 100.941C117.558 88.8582 127.387 79.0293 139.47 79.0293H145.587C150.389 79.0293 154.264 75.154 154.264 70.3525V9.17676C154.264 4.37525 150.389 0.5 145.587 0.5ZM145.587 5.61719C147.576 5.61719 149.147 7.18767 149.147 9.17676V70.3525C149.147 72.3416 147.576 73.9121 145.587 73.9121H139.47C131.002 73.9121 123.433 77.8145 118.446 83.9434L117.558 85.0352V27.5293C117.558 15.4461 127.387 5.61719 139.47 5.61719H145.587ZM102.764 67.7939H78.2935C76.8568 67.794 75.7351 68.916 75.7349 70.3525C75.7349 71.7893 76.8567 72.9121 78.2935 72.9121H102.764C104.201 72.9121 105.323 71.7893 105.323 70.3525C105.323 68.9159 104.201 67.7939 102.764 67.7939ZM102.764 55.5586H78.2935C76.8569 55.5586 75.7351 56.6806 75.7349 58.1172C75.7349 59.554 76.8567 60.6767 78.2935 60.6768H102.764C104.201 60.6768 105.323 59.554 105.323 58.1172C105.323 56.6806 104.201 55.5586 102.764 55.5586ZM102.764 43.3232H78.2935C76.8567 43.3233 75.7349 44.446 75.7349 45.8828C75.7351 47.3194 76.8569 48.4414 78.2935 48.4414H102.764C104.201 48.4414 105.323 47.3194 105.323 45.8828C105.323 44.446 104.201 43.3232 102.764 43.3232ZM102.764 31.0879H78.2935C76.8567 31.0879 75.7349 32.2107 75.7349 33.6475C75.7351 35.084 76.8568 36.206 78.2935 36.2061H102.764C104.201 36.2061 105.323 35.0841 105.323 33.6475C105.323 32.2107 104.201 31.0879 102.764 31.0879Z" fill="#5E5D5D" stroke="#EBEBEB"/>
</g>
<path d="M36.4047 129.382C36.055 128.709 35.5693 128.203 34.9475 127.867C34.3257 127.517 33.6068 127.342 32.7908 127.342C31.897 127.342 31.1004 127.543 30.4009 127.944C29.7014 128.346 29.1509 128.916 28.7493 129.654C28.3607 130.393 28.1664 131.247 28.1664 132.219C28.1664 133.19 28.3607 134.052 28.7493 134.803C29.1509 135.541 29.7014 136.111 30.4009 136.513C31.1004 136.915 31.897 137.115 32.7908 137.115C33.9954 137.115 34.9734 136.779 35.7247 136.105C36.476 135.431 36.9358 134.518 37.1042 133.365H32.033V131.597H39.4747V133.326C39.3322 134.376 38.9565 135.341 38.3477 136.222C37.7519 137.102 36.9682 137.808 35.9967 138.339C35.0382 138.858 33.9695 139.117 32.7908 139.117C31.5213 139.117 30.362 138.825 29.3128 138.242C28.2636 137.646 27.4281 136.824 26.8063 135.775C26.1975 134.725 25.8931 133.54 25.8931 132.219C25.8931 130.898 26.1975 129.712 26.8063 128.663C27.4281 127.614 28.2636 126.798 29.3128 126.215C30.375 125.619 31.5343 125.321 32.7908 125.321C34.2286 125.321 35.5045 125.677 36.6185 126.39C37.7454 127.089 38.5615 128.087 39.0667 129.382H36.4047ZM46.3031 139.175C45.2928 139.175 44.3795 138.948 43.5635 138.495C42.7474 138.028 42.1062 137.381 41.6399 136.552C41.1736 135.71 40.9404 134.738 40.9404 133.637C40.9404 132.549 41.1801 131.584 41.6593 130.742C42.1386 129.9 42.7928 129.253 43.6218 128.799C44.4508 128.346 45.377 128.119 46.4003 128.119C47.4236 128.119 48.3497 128.346 49.1788 128.799C50.0078 129.253 50.6619 129.9 51.1412 130.742C51.6205 131.584 51.8601 132.549 51.8601 133.637C51.8601 134.725 51.614 135.69 51.1218 136.532C50.6295 137.374 49.956 138.028 49.101 138.495C48.2591 138.948 47.3264 139.175 46.3031 139.175ZM46.3031 137.251C46.8731 137.251 47.4041 137.115 47.8964 136.843C48.4016 136.571 48.8096 136.163 49.1205 135.619C49.4313 135.075 49.5868 134.415 49.5868 133.637C49.5868 132.86 49.4378 132.206 49.1399 131.675C48.842 131.131 48.4469 130.723 47.9547 130.451C47.4624 130.179 46.9314 130.043 46.3614 130.043C45.7915 130.043 45.2604 130.179 44.7681 130.451C44.2889 130.723 43.9067 131.131 43.6218 131.675C43.3368 132.206 43.1943 132.86 43.1943 133.637C43.1943 134.79 43.4858 135.684 44.0687 136.319C44.6645 136.94 45.4093 137.251 46.3031 137.251ZM61.6812 130.101V136.027C61.6812 136.429 61.7719 136.72 61.9532 136.902C62.1475 137.07 62.4714 137.154 62.9247 137.154H64.2848V139H62.5361C61.5387 139 60.7745 138.767 60.2434 138.301C59.7123 137.834 59.4467 137.076 59.4467 136.027V130.101H58.1838V128.294H59.4467V125.632H61.6812V128.294H64.2848V130.101H61.6812ZM70.9701 139.175C69.9597 139.175 69.0465 138.948 68.2305 138.495C67.4144 138.028 66.7732 137.381 66.3069 136.552C65.8406 135.71 65.6074 134.738 65.6074 133.637C65.6074 132.549 65.8471 131.584 66.3263 130.742C66.8056 129.9 67.4598 129.253 68.2888 128.799C69.1178 128.346 70.0439 128.119 71.0673 128.119C72.0906 128.119 73.0167 128.346 73.8457 128.799C74.6748 129.253 75.3289 129.9 75.8082 130.742C76.2875 131.584 76.5271 132.549 76.5271 133.637C76.5271 134.725 76.281 135.69 75.7887 136.532C75.2965 137.374 74.6229 138.028 73.768 138.495C72.9261 138.948 71.9934 139.175 70.9701 139.175ZM70.9701 137.251C71.5401 137.251 72.0711 137.115 72.5634 136.843C73.0685 136.571 73.4766 136.163 73.7875 135.619C74.0983 135.075 74.2538 134.415 74.2538 133.637C74.2538 132.86 74.1048 132.206 73.8069 131.675C73.509 131.131 73.1139 130.723 72.6217 130.451C72.1294 130.179 71.5983 130.043 71.0284 130.043C70.4585 130.043 69.9274 130.179 69.4351 130.451C68.9559 130.723 68.5737 131.131 68.2888 131.675C68.0038 132.206 67.8613 132.86 67.8613 133.637C67.8613 134.79 68.1528 135.684 68.7357 136.319C69.3315 136.94 70.0763 137.251 70.9701 137.251ZM94.8585 139H92.6435L85.979 128.916V139H83.764V125.477H85.979L92.6435 135.541V125.477H94.8585V139ZM107.579 133.385C107.579 133.786 107.554 134.149 107.502 134.473H99.3217C99.3864 135.328 99.7038 136.014 100.274 136.532C100.844 137.051 101.543 137.31 102.372 137.31C103.564 137.31 104.406 136.811 104.898 135.813H107.288C106.964 136.798 106.375 137.608 105.52 138.242C104.678 138.864 103.629 139.175 102.372 139.175C101.349 139.175 100.429 138.948 99.6131 138.495C98.81 138.028 98.1753 137.381 97.709 136.552C97.2556 135.71 97.0289 134.738 97.0289 133.637C97.0289 132.536 97.2491 131.571 97.6895 130.742C98.1429 129.9 98.7711 129.253 99.5743 128.799C100.39 128.346 101.323 128.119 102.372 128.119C103.383 128.119 104.283 128.339 105.073 128.78C105.863 129.22 106.478 129.842 106.919 130.645C107.359 131.435 107.579 132.348 107.579 133.385ZM105.267 132.685C105.254 131.869 104.963 131.215 104.393 130.723C103.823 130.231 103.117 129.984 102.275 129.984C101.511 129.984 100.857 130.231 100.313 130.723C99.7686 131.202 99.4447 131.856 99.3411 132.685H105.267ZM114.345 133.579L117.803 139H115.297L112.985 135.367L110.808 139H108.496L111.955 133.734L108.496 128.294H111.003L113.315 131.927L115.491 128.294H117.803L114.345 133.579ZM122.039 130.101V136.027C122.039 136.429 122.13 136.72 122.311 136.902C122.506 137.07 122.83 137.154 123.283 137.154H124.643V139H122.894C121.897 139 121.133 138.767 120.602 138.301C120.071 137.834 119.805 137.076 119.805 136.027V130.101H118.542V128.294H119.805V125.632H122.039V128.294H124.643V130.101H122.039ZM141.175 129.518C141.175 130.205 141.013 130.852 140.689 131.461C140.365 132.07 139.847 132.569 139.135 132.957C138.422 133.333 137.509 133.521 136.395 133.521H133.947V139H131.732V125.496H136.395C137.431 125.496 138.306 125.677 139.018 126.04C139.743 126.39 140.281 126.869 140.631 127.478C140.993 128.087 141.175 128.767 141.175 129.518ZM136.395 131.714C137.237 131.714 137.865 131.526 138.28 131.15C138.694 130.762 138.901 130.218 138.901 129.518C138.901 128.041 138.066 127.303 136.395 127.303H133.947V131.714H136.395ZM142.549 133.598C142.549 132.523 142.769 131.571 143.21 130.742C143.663 129.913 144.272 129.272 145.036 128.819C145.813 128.352 146.668 128.119 147.601 128.119C148.443 128.119 149.175 128.288 149.796 128.624C150.431 128.948 150.936 129.356 151.312 129.848V128.294H153.546V139H151.312V137.407C150.936 137.912 150.425 138.333 149.777 138.67C149.129 139.006 148.391 139.175 147.562 139.175C146.642 139.175 145.8 138.942 145.036 138.475C144.272 137.996 143.663 137.335 143.21 136.494C142.769 135.639 142.549 134.674 142.549 133.598ZM151.312 133.637C151.312 132.899 151.157 132.258 150.846 131.714C150.548 131.17 150.153 130.755 149.66 130.47C149.168 130.185 148.637 130.043 148.067 130.043C147.497 130.043 146.966 130.185 146.474 130.47C145.982 130.742 145.58 131.15 145.269 131.694C144.971 132.225 144.822 132.86 144.822 133.598C144.822 134.337 144.971 134.984 145.269 135.541C145.58 136.098 145.982 136.526 146.474 136.824C146.979 137.109 147.51 137.251 148.067 137.251C148.637 137.251 149.168 137.109 149.66 136.824C150.153 136.539 150.548 136.124 150.846 135.58C151.157 135.023 151.312 134.376 151.312 133.637ZM160.769 128.119C161.598 128.119 162.33 128.288 162.965 128.624C163.612 128.948 164.118 129.356 164.48 129.848V128.294H166.715V139.175C166.715 140.159 166.508 141.034 166.093 141.798C165.678 142.575 165.076 143.184 164.286 143.624C163.509 144.065 162.576 144.285 161.488 144.285C160.037 144.285 158.833 143.942 157.874 143.255C156.916 142.582 156.372 141.662 156.242 140.496H158.438C158.606 141.053 158.962 141.5 159.506 141.837C160.063 142.187 160.724 142.361 161.488 142.361C162.382 142.361 163.101 142.089 163.645 141.545C164.202 141.001 164.48 140.211 164.48 139.175V137.387C164.105 137.892 163.593 138.32 162.945 138.67C162.311 139.006 161.585 139.175 160.769 139.175C159.837 139.175 158.982 138.942 158.204 138.475C157.44 137.996 156.831 137.335 156.378 136.494C155.938 135.639 155.717 134.674 155.717 133.598C155.717 132.523 155.938 131.571 156.378 130.742C156.831 129.913 157.44 129.272 158.204 128.819C158.982 128.352 159.837 128.119 160.769 128.119ZM164.48 133.637C164.48 132.899 164.325 132.258 164.014 131.714C163.716 131.17 163.321 130.755 162.829 130.47C162.337 130.185 161.805 130.043 161.236 130.043C160.666 130.043 160.134 130.185 159.642 130.47C159.15 130.742 158.748 131.15 158.438 131.694C158.14 132.225 157.991 132.86 157.991 133.598C157.991 134.337 158.14 134.984 158.438 135.541C158.748 136.098 159.15 136.526 159.642 136.824C160.147 137.109 160.679 137.251 161.236 137.251C161.805 137.251 162.337 137.109 162.829 136.824C163.321 136.539 163.716 136.124 164.014 135.58C164.325 135.023 164.48 134.376 164.48 133.637ZM179.436 133.385C179.436 133.786 179.41 134.149 179.359 134.473H171.179C171.243 135.328 171.561 136.014 172.131 136.532C172.701 137.051 173.4 137.31 174.229 137.31C175.421 137.31 176.263 136.811 176.755 135.813H179.145C178.821 136.798 178.232 137.608 177.377 138.242C176.535 138.864 175.486 139.175 174.229 139.175C173.206 139.175 172.286 138.948 171.47 138.495C170.667 138.028 170.032 137.381 169.566 136.552C169.112 135.71 168.886 134.738 168.886 133.637C168.886 132.536 169.106 131.571 169.546 130.742C170 129.9 170.628 129.253 171.431 128.799C172.247 128.346 173.18 128.119 174.229 128.119C175.239 128.119 176.14 128.339 176.93 128.78C177.72 129.22 178.335 129.842 178.776 130.645C179.216 131.435 179.436 132.348 179.436 133.385ZM177.124 132.685C177.111 131.869 176.82 131.215 176.25 130.723C175.68 130.231 174.974 129.984 174.132 129.984C173.368 129.984 172.713 130.231 172.169 130.723C171.625 131.202 171.302 131.856 171.198 132.685H177.124ZM189.247 130.101V136.027C189.247 136.429 189.338 136.72 189.52 136.902C189.714 137.07 190.038 137.154 190.491 137.154H191.851V139H190.102C189.105 139 188.341 138.767 187.81 138.301C187.279 137.834 187.013 137.076 187.013 136.027V130.101H185.75V128.294H187.013V125.632H189.247V128.294H191.851V130.101H189.247ZM198.536 139.175C197.526 139.175 196.613 138.948 195.797 138.495C194.981 138.028 194.34 137.381 193.873 136.552C193.407 135.71 193.174 134.738 193.174 133.637C193.174 132.549 193.413 131.584 193.893 130.742C194.372 129.9 195.026 129.253 195.855 128.799C196.684 128.346 197.61 128.119 198.634 128.119C199.657 128.119 200.583 128.346 201.412 128.799C202.241 129.253 202.895 129.9 203.374 130.742C203.854 131.584 204.093 132.549 204.093 133.637C204.093 134.725 203.847 135.69 203.355 136.532C202.863 137.374 202.189 138.028 201.334 138.495C200.492 138.948 199.56 139.175 198.536 139.175ZM198.536 137.251C199.106 137.251 199.637 137.115 200.13 136.843C200.635 136.571 201.043 136.163 201.354 135.619C201.665 135.075 201.82 134.415 201.82 133.637C201.82 132.86 201.671 132.206 201.373 131.675C201.075 131.131 200.68 130.723 200.188 130.451C199.696 130.179 199.165 130.043 198.595 130.043C198.025 130.043 197.494 130.179 197.001 130.451C196.522 130.723 196.14 131.131 195.855 131.675C195.57 132.206 195.428 132.86 195.428 133.637C195.428 134.79 195.719 135.684 196.302 136.319C196.898 136.94 197.643 137.251 198.536 137.251ZM35.4356 168.136C34.5289 168.136 33.7128 167.981 32.9874 167.67C32.262 167.346 31.6921 166.892 31.2776 166.31C30.8631 165.727 30.6558 165.047 30.6558 164.269H33.0263C33.0781 164.852 33.3048 165.332 33.7063 165.707C34.1208 166.083 34.6972 166.271 35.4356 166.271C36.1998 166.271 36.7957 166.089 37.2232 165.727C37.6506 165.351 37.8643 164.872 37.8643 164.289C37.8643 163.836 37.7283 163.466 37.4563 163.181C37.1972 162.896 36.8669 162.676 36.4654 162.521C36.0768 162.365 35.5327 162.197 34.8333 162.016C33.9524 161.782 33.2335 161.549 32.6765 161.316C32.1325 161.07 31.6662 160.694 31.2776 160.189C30.889 159.684 30.6947 159.01 30.6947 158.168C30.6947 157.391 30.889 156.711 31.2776 156.128C31.6662 155.545 32.2102 155.098 32.9097 154.788C33.6092 154.477 34.4188 154.321 35.3384 154.321C36.6467 154.321 37.7154 154.652 38.5444 155.312C39.3864 155.96 39.8527 156.854 39.9434 157.994H37.4952C37.4563 157.501 37.2231 157.08 36.7957 156.731C36.3682 156.381 35.8048 156.206 35.1053 156.206C34.4706 156.206 33.9524 156.368 33.5509 156.692C33.1493 157.016 32.9485 157.482 32.9485 158.091C32.9485 158.505 33.0716 158.848 33.3177 159.12C33.5768 159.38 33.9006 159.587 34.2892 159.742C34.6778 159.898 35.2089 160.066 35.8825 160.247C36.7763 160.494 37.5016 160.74 38.0586 160.986C38.6286 161.232 39.1079 161.614 39.4965 162.132C39.898 162.637 40.0988 163.317 40.0988 164.172C40.0988 164.859 39.911 165.506 39.5353 166.115C39.1726 166.724 38.6351 167.216 37.9226 167.592C37.2232 167.955 36.3941 168.136 35.4356 168.136ZM45.2966 159.101V165.027C45.2966 165.429 45.3873 165.72 45.5686 165.902C45.7629 166.07 46.0868 166.154 46.5401 166.154H47.9002V168H46.1515C45.1541 168 44.3899 167.767 43.8588 167.301C43.3277 166.834 43.0622 166.076 43.0622 165.027V159.101H41.7992V157.294H43.0622V154.632H45.2966V157.294H47.9002V159.101H45.2966ZM49.2034 162.598C49.2034 161.523 49.4236 160.571 49.864 159.742C50.3174 158.913 50.9262 158.272 51.6905 157.819C52.4677 157.352 53.3226 157.119 54.2552 157.119C55.0972 157.119 55.829 157.288 56.4508 157.624C57.0855 157.948 57.5907 158.356 57.9663 158.848V157.294H60.2008V168H57.9663V166.407C57.5907 166.912 57.079 167.333 56.4314 167.67C55.7837 168.006 55.0454 168.175 54.2164 168.175C53.2967 168.175 52.4547 167.942 51.6905 167.475C50.9262 166.996 50.3174 166.335 49.864 165.494C49.4236 164.639 49.2034 163.674 49.2034 162.598ZM57.9663 162.637C57.9663 161.899 57.8109 161.258 57.5 160.714C57.2021 160.17 56.807 159.755 56.3148 159.47C55.8226 159.185 55.2915 159.043 54.7215 159.043C54.1516 159.043 53.6205 159.185 53.1283 159.47C52.636 159.742 52.2345 160.15 51.9236 160.694C51.6257 161.225 51.4767 161.86 51.4767 162.598C51.4767 163.337 51.6257 163.984 51.9236 164.541C52.2345 165.098 52.636 165.526 53.1283 165.824C53.6335 166.109 54.1645 166.251 54.7215 166.251C55.2915 166.251 55.8226 166.109 56.3148 165.824C56.807 165.539 57.2021 165.124 57.5 164.58C57.8109 164.023 57.9663 163.376 57.9663 162.637ZM65.3252 158.848C65.649 158.304 66.0764 157.883 66.6075 157.586C67.1516 157.275 67.7928 157.119 68.5311 157.119V159.412H67.9676C67.0998 159.412 66.4391 159.632 65.9858 160.073C65.5454 160.513 65.3252 161.277 65.3252 162.365V168H63.1101V157.294H65.3252V158.848ZM73.1513 159.101V165.027C73.1513 165.429 73.242 165.72 73.4234 165.902C73.6177 166.07 73.9415 166.154 74.3949 166.154H75.755V168H74.0063C73.0089 168 72.2446 167.767 71.7135 167.301C71.1824 166.834 70.9169 166.076 70.9169 165.027V159.101H69.6539V157.294H70.9169V154.632H73.1513V157.294H75.755V159.101H73.1513ZM90.9849 165.241H85.3308L84.3593 168H82.0471L86.8852 154.477H89.4499L94.288 168H91.9564L90.9849 165.241ZM90.3631 163.434L88.1675 157.158L85.9525 163.434H90.3631ZM100.278 168.175C99.4356 168.175 98.6779 168.026 98.0043 167.728C97.3437 167.417 96.8191 167.003 96.4305 166.484C96.0419 165.953 95.8346 165.364 95.8087 164.716H98.1014C98.1403 165.17 98.354 165.552 98.7426 165.863C99.1442 166.161 99.6429 166.31 100.239 166.31C100.86 166.31 101.34 166.193 101.677 165.96C102.026 165.714 102.201 165.403 102.201 165.027C102.201 164.626 102.007 164.328 101.618 164.133C101.243 163.939 100.64 163.725 99.8113 163.492C99.0082 163.272 98.354 163.058 97.8488 162.851C97.3437 162.644 96.9033 162.326 96.5276 161.899C96.1649 161.472 95.9836 160.908 95.9836 160.209C95.9836 159.639 96.152 159.12 96.4887 158.654C96.8255 158.175 97.3048 157.799 97.9266 157.527C98.5613 157.255 99.2867 157.119 100.103 157.119C101.32 157.119 102.298 157.43 103.037 158.052C103.788 158.661 104.19 159.496 104.241 160.558H102.026C101.987 160.079 101.793 159.697 101.443 159.412C101.094 159.127 100.621 158.984 100.025 158.984C99.4421 158.984 98.9952 159.095 98.6843 159.315C98.3735 159.535 98.218 159.826 98.218 160.189C98.218 160.474 98.3216 160.714 98.5289 160.908C98.7362 161.102 98.9887 161.258 99.2867 161.374C99.5846 161.478 100.025 161.614 100.608 161.782C101.385 161.99 102.02 162.203 102.512 162.424C103.017 162.631 103.451 162.942 103.814 163.356C104.177 163.771 104.364 164.321 104.377 165.008C104.377 165.617 104.209 166.161 103.872 166.64C103.535 167.119 103.056 167.495 102.434 167.767C101.826 168.039 101.107 168.175 100.278 168.175ZM110.657 168.175C109.815 168.175 109.057 168.026 108.383 167.728C107.723 167.417 107.198 167.003 106.81 166.484C106.421 165.953 106.214 165.364 106.188 164.716H108.481C108.519 165.17 108.733 165.552 109.122 165.863C109.523 166.161 110.022 166.31 110.618 166.31C111.24 166.31 111.719 166.193 112.056 165.96C112.405 165.714 112.58 165.403 112.58 165.027C112.58 164.626 112.386 164.328 111.997 164.133C111.622 163.939 111.019 163.725 110.19 163.492C109.387 163.272 108.733 163.058 108.228 162.851C107.723 162.644 107.282 162.326 106.907 161.899C106.544 161.472 106.363 160.908 106.363 160.209C106.363 159.639 106.531 159.12 106.868 158.654C107.205 158.175 107.684 157.799 108.306 157.527C108.94 157.255 109.666 157.119 110.482 157.119C111.699 157.119 112.677 157.43 113.416 158.052C114.167 158.661 114.569 159.496 114.62 160.558H112.405C112.367 160.079 112.172 159.697 111.823 159.412C111.473 159.127 111 158.984 110.404 158.984C109.821 158.984 109.374 159.095 109.063 159.315C108.753 159.535 108.597 159.826 108.597 160.189C108.597 160.474 108.701 160.714 108.908 160.908C109.115 161.102 109.368 161.258 109.666 161.374C109.964 161.478 110.404 161.614 110.987 161.782C111.764 161.99 112.399 162.203 112.891 162.424C113.396 162.631 113.83 162.942 114.193 163.356C114.556 163.771 114.743 164.321 114.756 165.008C114.756 165.617 114.588 166.161 114.251 166.64C113.914 167.119 113.435 167.495 112.813 167.767C112.205 168.039 111.486 168.175 110.657 168.175ZM126.962 162.385C126.962 162.786 126.936 163.149 126.884 163.473H118.704C118.769 164.328 119.086 165.014 119.656 165.532C120.226 166.051 120.926 166.31 121.755 166.31C122.946 166.31 123.788 165.811 124.281 164.813H126.671C126.347 165.798 125.757 166.608 124.902 167.242C124.06 167.864 123.011 168.175 121.755 168.175C120.731 168.175 119.812 167.948 118.996 167.495C118.193 167.028 117.558 166.381 117.092 165.552C116.638 164.71 116.411 163.738 116.411 162.637C116.411 161.536 116.632 160.571 117.072 159.742C117.525 158.9 118.154 158.253 118.957 157.799C119.773 157.346 120.706 157.119 121.755 157.119C122.765 157.119 123.665 157.339 124.456 157.78C125.246 158.22 125.861 158.842 126.301 159.645C126.742 160.435 126.962 161.348 126.962 162.385ZM124.65 161.685C124.637 160.869 124.345 160.215 123.775 159.723C123.206 159.231 122.5 158.984 121.658 158.984C120.893 158.984 120.239 159.231 119.695 159.723C119.151 160.202 118.827 160.856 118.724 161.685H124.65ZM133.028 168.175C132.186 168.175 131.428 168.026 130.754 167.728C130.094 167.417 129.569 167.003 129.181 166.484C128.792 165.953 128.585 165.364 128.559 164.716H130.852C130.89 165.17 131.104 165.552 131.493 165.863C131.894 166.161 132.393 166.31 132.989 166.31C133.611 166.31 134.09 166.193 134.427 165.96C134.776 165.714 134.951 165.403 134.951 165.027C134.951 164.626 134.757 164.328 134.368 164.133C133.993 163.939 133.39 163.725 132.561 163.492C131.758 163.272 131.104 163.058 130.599 162.851C130.094 162.644 129.653 162.326 129.278 161.899C128.915 161.472 128.734 160.908 128.734 160.209C128.734 159.639 128.902 159.12 129.239 158.654C129.576 158.175 130.055 157.799 130.677 157.527C131.311 157.255 132.037 157.119 132.853 157.119C134.071 157.119 135.048 157.43 135.787 158.052C136.538 158.661 136.94 159.496 136.991 160.558H134.776C134.738 160.079 134.543 159.697 134.194 159.412C133.844 159.127 133.371 158.984 132.775 158.984C132.192 158.984 131.745 159.095 131.435 159.315C131.124 159.535 130.968 159.826 130.968 160.189C130.968 160.474 131.072 160.714 131.279 160.908C131.486 161.102 131.739 161.258 132.037 161.374C132.335 161.478 132.775 161.614 133.358 161.782C134.135 161.99 134.77 162.203 135.262 162.424C135.767 162.631 136.201 162.942 136.564 163.356C136.927 163.771 137.115 164.321 137.128 165.008C137.128 165.617 136.959 166.161 136.622 166.64C136.286 167.119 135.806 167.495 135.185 167.767C134.576 168.039 133.857 168.175 133.028 168.175ZM143.407 168.175C142.565 168.175 141.807 168.026 141.134 167.728C140.473 167.417 139.948 167.003 139.56 166.484C139.171 165.953 138.964 165.364 138.938 164.716H141.231C141.27 165.17 141.483 165.552 141.872 165.863C142.273 166.161 142.772 166.31 143.368 166.31C143.99 166.31 144.469 166.193 144.806 165.96C145.156 165.714 145.33 165.403 145.33 165.027C145.33 164.626 145.136 164.328 144.748 164.133C144.372 163.939 143.77 163.725 142.941 163.492C142.137 163.272 141.483 163.058 140.978 162.851C140.473 162.644 140.033 162.326 139.657 161.899C139.294 161.472 139.113 160.908 139.113 160.209C139.113 159.639 139.281 159.12 139.618 158.654C139.955 158.175 140.434 157.799 141.056 157.527C141.691 157.255 142.416 157.119 143.232 157.119C144.45 157.119 145.428 157.43 146.166 158.052C146.917 158.661 147.319 159.496 147.371 160.558H145.156C145.117 160.079 144.922 159.697 144.573 159.412C144.223 159.127 143.75 158.984 143.154 158.984C142.571 158.984 142.124 159.095 141.814 159.315C141.503 159.535 141.347 159.826 141.347 160.189C141.347 160.474 141.451 160.714 141.658 160.908C141.865 161.102 142.118 161.258 142.416 161.374C142.714 161.478 143.154 161.614 143.737 161.782C144.514 161.99 145.149 162.203 145.641 162.424C146.147 162.631 146.58 162.942 146.943 163.356C147.306 163.771 147.494 164.321 147.507 165.008C147.507 165.617 147.338 166.161 147.001 166.64C146.665 167.119 146.185 167.495 145.564 167.767C144.955 168.039 144.236 168.175 143.407 168.175ZM162.86 157.119C163.702 157.119 164.453 157.294 165.114 157.644C165.787 157.994 166.312 158.512 166.688 159.198C167.076 159.885 167.27 160.714 167.27 161.685V168H165.075V162.016C165.075 161.057 164.835 160.325 164.356 159.82C163.877 159.302 163.223 159.043 162.393 159.043C161.564 159.043 160.904 159.302 160.412 159.82C159.932 160.325 159.693 161.057 159.693 162.016V168H157.497V162.016C157.497 161.057 157.257 160.325 156.778 159.82C156.299 159.302 155.645 159.043 154.816 159.043C153.987 159.043 153.326 159.302 152.834 159.82C152.355 160.325 152.115 161.057 152.115 162.016V168H149.9V157.294H152.115V158.518C152.478 158.078 152.938 157.734 153.495 157.488C154.052 157.242 154.647 157.119 155.282 157.119C156.137 157.119 156.901 157.301 157.575 157.663C158.248 158.026 158.767 158.551 159.129 159.237C159.453 158.589 159.958 158.078 160.645 157.702C161.331 157.313 162.07 157.119 162.86 157.119ZM179.901 162.385C179.901 162.786 179.875 163.149 179.823 163.473H171.643C171.708 164.328 172.026 165.014 172.595 165.532C173.165 166.051 173.865 166.31 174.694 166.31C175.886 166.31 176.728 165.811 177.22 164.813H179.61C179.286 165.798 178.696 166.608 177.842 167.242C177 167.864 175.95 168.175 174.694 168.175C173.671 168.175 172.751 167.948 171.935 167.495C171.132 167.028 170.497 166.381 170.031 165.552C169.577 164.71 169.351 163.738 169.351 162.637C169.351 161.536 169.571 160.571 170.011 159.742C170.465 158.9 171.093 158.253 171.896 157.799C172.712 157.346 173.645 157.119 174.694 157.119C175.704 157.119 176.605 157.339 177.395 157.78C178.185 158.22 178.8 158.842 179.241 159.645C179.681 160.435 179.901 161.348 179.901 162.385ZM177.589 161.685C177.576 160.869 177.285 160.215 176.715 159.723C176.145 159.231 175.439 158.984 174.597 158.984C173.832 158.984 173.178 159.231 172.634 159.723C172.09 160.202 171.766 160.856 171.663 161.685H177.589ZM187.482 157.119C188.324 157.119 189.076 157.294 189.736 157.644C190.41 157.994 190.935 158.512 191.31 159.198C191.686 159.885 191.874 160.714 191.874 161.685V168H189.678V162.016C189.678 161.057 189.438 160.325 188.959 159.82C188.48 159.302 187.826 159.043 186.997 159.043C186.168 159.043 185.507 159.302 185.015 159.82C184.536 160.325 184.296 161.057 184.296 162.016V168H182.081V157.294H184.296V158.518C184.659 158.078 185.118 157.734 185.675 157.488C186.245 157.242 186.848 157.119 187.482 157.119ZM197.283 159.101V165.027C197.283 165.429 197.374 165.72 197.555 165.902C197.75 166.07 198.073 166.154 198.527 166.154H199.887V168H198.138C197.141 168 196.377 167.767 195.845 167.301C195.314 166.834 195.049 166.076 195.049 165.027V159.101H193.786V157.294H195.049V154.632H197.283V157.294H199.887V159.101H197.283Z" fill="#5E5D5D"/>
</g>
<defs>
<clipPath id="clip0_100_4728">
<rect width="104" height="104" fill="white" transform="matrix(-1 0 0 1 167 0)"/>
</clipPath>
</defs>
</svg>
