<svg width="18" height="19" viewBox="0 0 18 19" fill="none" xmlns="http://www.w3.org/2000/svg">
<g clip-path="url(#clip0_66_2328)">
<path d="M8.91967 0.85819C4.05038 0.844474 0.100089 4.79477 0.113805 9.66405C0.127521 14.4785 4.14297 18.415 8.95739 18.415H17.6707V9.70177C17.6707 4.88735 13.7341 0.871906 8.91967 0.85819ZM9.67406 14.1081C9.44431 14.3104 9.1597 14.4133 8.81679 14.4133C8.47389 14.4133 8.18927 14.3104 7.95953 14.1081C7.72978 13.9058 7.61662 13.6452 7.61662 13.3297C7.61662 13.0143 7.72978 12.7536 7.95953 12.5513C8.18927 12.349 8.47389 12.2461 8.81679 12.2461C9.1597 12.2461 9.44431 12.349 9.67406 12.5513C9.90381 12.7536 10.017 13.0143 10.017 13.3297C10.017 13.6452 9.90038 13.9024 9.67406 14.1081ZM11.7041 8.37129C11.5635 8.66276 11.3372 8.96109 11.0251 9.26285L10.2879 9.94866C10.0787 10.151 9.93124 10.3567 9.85238 10.5693C9.77008 10.7819 9.7255 11.0494 9.71864 11.3752H7.88066C7.88066 10.7511 7.95267 10.2573 8.09326 9.89723C8.23728 9.53032 8.47389 9.20798 8.77907 8.95766C9.09455 8.69362 9.33801 8.45016 9.50261 8.2307C9.66378 8.02152 9.7495 7.76434 9.7495 7.50374C9.7495 6.85907 9.47175 6.53331 8.91624 6.53331C8.6762 6.52645 8.44646 6.62932 8.29558 6.81449C8.13784 7.00309 8.05211 7.25684 8.04525 7.57917H5.87808C5.88837 6.72191 6.15583 6.05667 6.68734 5.58002C7.21885 5.10338 7.96295 4.86335 8.91967 4.86335C9.87295 4.86335 10.6136 5.08281 11.1383 5.52516C11.6629 5.96751 11.9235 6.5916 11.9235 7.40429C11.9201 7.73691 11.8481 8.06953 11.7041 8.37129Z" fill="#1B1A1A"/>
</g>
<defs>
<clipPath id="clip0_66_2328">
<rect width="17.5569" height="17.5569" fill="white" transform="translate(0.11377 0.858154)"/>
</clipPath>
</defs>
</svg>
