<svg width="35" height="35" viewBox="0 0 35 35" fill="none" xmlns="http://www.w3.org/2000/svg">
<circle cx="17.5" cy="17.5" r="14" stroke="#F2F2F2" stroke-width="7"/>
<mask id="path-2-inside-1_100_1719" fill="white">
<path d="M35 17.5C35 14.0388 33.9736 10.6554 32.0507 7.77752C30.1278 4.89966 27.3947 2.65664 24.197 1.33211C20.9993 0.00757459 17.4806 -0.338984 14.0859 0.336258C10.6913 1.0115 7.57305 2.67821 5.12563 5.12563C2.67821 7.57305 1.0115 10.6913 0.336258 14.0859C-0.338984 17.4806 0.00757463 20.9993 1.33211 24.197C2.65664 27.3947 4.89966 30.1278 7.77752 32.0507C10.6554 33.9736 14.0388 35 17.5 35V27.9904C15.4252 27.9904 13.397 27.3752 11.6718 26.2225C9.94669 25.0698 8.6021 23.4314 7.80811 21.5145C7.01411 19.5976 6.80637 17.4884 7.21114 15.4534C7.61592 13.4185 8.61503 11.5493 10.0821 10.0821C11.5493 8.61503 13.4185 7.61592 15.4534 7.21114C17.4884 6.80637 19.5976 7.01411 21.5145 7.80811C23.4314 8.6021 25.0698 9.94669 26.2225 11.6718C27.3752 13.397 27.9904 15.4252 27.9904 17.5H35Z"/>
</mask>
<path d="M35 17.5C35 14.0388 33.9736 10.6554 32.0507 7.77752C30.1278 4.89966 27.3947 2.65664 24.197 1.33211C20.9993 0.00757459 17.4806 -0.338984 14.0859 0.336258C10.6913 1.0115 7.57305 2.67821 5.12563 5.12563C2.67821 7.57305 1.0115 10.6913 0.336258 14.0859C-0.338984 17.4806 0.00757463 20.9993 1.33211 24.197C2.65664 27.3947 4.89966 30.1278 7.77752 32.0507C10.6554 33.9736 14.0388 35 17.5 35V27.9904C15.4252 27.9904 13.397 27.3752 11.6718 26.2225C9.94669 25.0698 8.6021 23.4314 7.80811 21.5145C7.01411 19.5976 6.80637 17.4884 7.21114 15.4534C7.61592 13.4185 8.61503 11.5493 10.0821 10.0821C11.5493 8.61503 13.4185 7.61592 15.4534 7.21114C17.4884 6.80637 19.5976 7.01411 21.5145 7.80811C23.4314 8.6021 25.0698 9.94669 26.2225 11.6718C27.3752 13.397 27.9904 15.4252 27.9904 17.5H35Z" stroke="#08D0C2" stroke-width="10" mask="url(#path-2-inside-1_100_1719)"/>
</svg>
