<svg width="20" height="21" viewBox="0 0 20 21" fill="none" xmlns="http://www.w3.org/2000/svg">
<g clip-path="url(#clip0_100_1700)">
<path d="M11.0468 16.9587C11.9409 15.8411 13.2821 15.2058 14.7057 15.2058H15.8821C16.5292 15.2058 17.0586 14.6764 17.0586 14.0293V2.26461C17.0586 1.61755 16.5292 1.08813 15.8821 1.08813H14.7057C12.1057 1.08813 9.99977 3.19402 9.99977 5.79402V18.2528L11.0468 16.9587Z" fill="white"/>
<path d="M11.8822 17.6176C12.4469 17.5 12.0822 17.5941 18.2352 17.5588C18.8822 17.5588 19.4116 17.0294 19.4116 16.3823V4.61763C19.4116 3.97057 18.8822 3.44116 18.2352 3.44116H17.0587V14.0294C17.0587 14.6765 16.5293 15.2059 15.8822 15.2059H14.7057C13.4352 15.2059 12.2352 15.7118 11.341 16.6294L9.99986 18.0059L11.8822 17.6176Z" fill="white"/>
<path d="M10 5.7941C10 4.49999 8.94118 3.44116 7.64706 3.44116H1.76471C1.11765 3.44116 0.588236 3.97057 0.588236 4.61763V16.3823C0.588236 17.0294 1.11765 17.5588 1.76471 17.5588H7.64706C8.15294 17.5588 8.63529 17.7235 9.05882 18.0412L10 18.7588V5.7941Z" fill="white"/>
<path d="M10 20.5001C10.3294 20.5001 10.5882 20.2413 10.5882 19.9118C10.5882 18.9354 11.3765 18.1471 12.3529 18.1471H18.2353C19.2118 18.1471 20 17.3589 20 16.3824V4.61773C20 3.64126 19.2118 2.85303 18.2353 2.85303H17.0588C16.7294 2.85303 16.4706 3.11185 16.4706 3.44126C16.4706 3.77067 16.7294 4.0295 17.0588 4.0295H18.2353C18.5647 4.0295 18.8235 4.28832 18.8235 4.61773V16.3824C18.8235 16.7119 18.5647 16.9707 18.2353 16.9707H12.3529C11.3882 16.9707 10.5412 17.4295 10 18.1471C9.45882 17.4295 8.61176 16.9707 7.64706 16.9707H1.76471C1.43529 16.9707 1.17647 16.7119 1.17647 16.3824V4.61773C1.17647 4.28832 1.43529 4.0295 1.76471 4.0295H7.64706C8.62353 4.0295 9.41176 4.81773 9.41176 5.7942C9.41176 6.12362 9.67059 6.38244 10 6.38244C10.3294 6.38244 10.5882 6.12362 10.5882 5.7942C10.5882 5.01416 10.2784 4.26606 9.72678 3.71448C9.17521 3.1629 8.42711 2.85303 7.64706 2.85303H1.76471C0.788235 2.85303 0 3.64126 0 4.61773V16.3824C0 17.3589 0.788235 18.1471 1.76471 18.1471H7.64706C8.62353 18.1471 9.41176 18.9354 9.41176 19.9118C9.41176 20.2413 9.67059 20.5001 10 20.5001Z" fill="black"/>
<path d="M9.99991 20.5C10.3293 20.5 10.5881 20.2412 10.5881 19.9118C10.5881 17.6412 12.4352 15.7941 14.7058 15.7941H15.8823C16.8587 15.7941 17.647 15.0059 17.647 14.0294V2.26471C17.647 1.28824 16.8587 0.5 15.8823 0.5H14.7058C11.7881 0.5 9.41168 2.87647 9.41168 5.79412V19.9118C9.41168 20.2412 9.6705 20.5 9.99991 20.5ZM15.8823 1.67647C16.2117 1.67647 16.4705 1.93529 16.4705 2.26471V14.0294C16.4705 14.3588 16.2117 14.6176 15.8823 14.6176H14.7058C13.047 14.6176 11.5646 15.3824 10.5881 16.5824V5.79412C10.5881 3.52353 12.4352 1.67647 14.7058 1.67647H15.8823ZM2.94109 7.55882H7.64697C7.97638 7.55882 8.23521 7.3 8.23521 6.97059C8.23521 6.64118 7.97638 6.38235 7.64697 6.38235H2.94109C2.61168 6.38235 2.35285 6.64118 2.35285 6.97059C2.35285 7.3 2.61168 7.55882 2.94109 7.55882ZM2.94109 9.91177H7.64697C7.97638 9.91177 8.23521 9.65294 8.23521 9.32353C8.23521 8.99412 7.97638 8.73529 7.64697 8.73529H2.94109C2.61168 8.73529 2.35285 8.99412 2.35285 9.32353C2.35285 9.65294 2.61168 9.91177 2.94109 9.91177ZM2.94109 12.2647H7.64697C7.97638 12.2647 8.23521 12.0059 8.23521 11.6765C8.23521 11.3471 7.97638 11.0882 7.64697 11.0882H2.94109C2.61168 11.0882 2.35285 11.3471 2.35285 11.6765C2.35285 12.0059 2.61168 12.2647 2.94109 12.2647ZM2.94109 14.6176H7.64697C7.97638 14.6176 8.23521 14.3588 8.23521 14.0294C8.23521 13.7 7.97638 13.4412 7.64697 13.4412H2.94109C2.61168 13.4412 2.35285 13.7 2.35285 14.0294C2.35285 14.3588 2.61168 14.6176 2.94109 14.6176Z" fill="black"/>
</g>
<defs>
<clipPath id="clip0_100_1700">
<rect width="20" height="20" fill="white" transform="matrix(-1 0 0 1 20 0.5)"/>
</clipPath>
</defs>
</svg>
