<svg width="20" height="21" viewBox="0 0 20 21" fill="none" xmlns="http://www.w3.org/2000/svg">
<path d="M8.95317 16.9587C8.05905 15.8411 6.71788 15.2058 5.29435 15.2058H4.11788C3.47082 15.2058 2.94141 14.6764 2.94141 14.0293V2.26461C2.94141 1.61755 3.47082 1.08813 4.11788 1.08813H5.29435C7.89435 1.08813 10.0002 3.19402 10.0002 5.79402V18.2528L8.95317 16.9587Z" fill="white"/>
<path d="M8.11779 17.6176C7.55308 17.5 7.91779 17.5941 1.76485 17.5588C1.11779 17.5588 0.588379 17.0294 0.588379 16.3823V4.61763C0.588379 3.97057 1.11779 3.44116 1.76485 3.44116H2.94132V14.0294C2.94132 14.6765 3.47073 15.2059 4.11779 15.2059H5.29426C6.56485 15.2059 7.76485 15.7118 8.65897 16.6294L10.0001 18.0059L8.11779 17.6176Z" fill="white"/>
<path d="M10 5.7941C10 4.49999 11.0588 3.44116 12.3529 3.44116H18.2353C18.8824 3.44116 19.4118 3.97057 19.4118 4.61763V16.3823C19.4118 17.0294 18.8824 17.5588 18.2353 17.5588H12.3529C11.8471 17.5588 11.3647 17.7235 10.9412 18.0412L10 18.7588V5.7941Z" fill="white"/>
<path d="M10 20.5001C9.67059 20.5001 9.41177 20.2413 9.41177 19.9118C9.41177 18.9354 8.62353 18.1471 7.64706 18.1471H1.76471C0.788235 18.1471 0 17.3589 0 16.3824V4.61773C0 3.64126 0.788235 2.85303 1.76471 2.85303H2.94118C3.27059 2.85303 3.52941 3.11185 3.52941 3.44126C3.52941 3.77067 3.27059 4.0295 2.94118 4.0295H1.76471C1.43529 4.0295 1.17647 4.28832 1.17647 4.61773V16.3824C1.17647 16.7119 1.43529 16.9707 1.76471 16.9707H7.64706C8.61176 16.9707 9.45882 17.4295 10 18.1471C10.5412 17.4295 11.3882 16.9707 12.3529 16.9707H18.2353C18.5647 16.9707 18.8235 16.7119 18.8235 16.3824V4.61773C18.8235 4.28832 18.5647 4.0295 18.2353 4.0295H12.3529C11.3765 4.0295 10.5882 4.81773 10.5882 5.7942C10.5882 6.12362 10.3294 6.38244 10 6.38244C9.67059 6.38244 9.41177 6.12362 9.41177 5.7942C9.41177 5.01416 9.72164 4.26606 10.2732 3.71448C10.8248 3.1629 11.5729 2.85303 12.3529 2.85303H18.2353C19.2118 2.85303 20 3.64126 20 4.61773V16.3824C20 17.3589 19.2118 18.1471 18.2353 18.1471H12.3529C11.3765 18.1471 10.5882 18.9354 10.5882 19.9118C10.5882 20.2413 10.3294 20.5001 10 20.5001Z" fill="black"/>
<path d="M10.0001 20.5C9.67067 20.5 9.41185 20.2412 9.41185 19.9118C9.41185 17.6412 7.56479 15.7941 5.2942 15.7941H4.11773C3.14126 15.7941 2.35303 15.0059 2.35303 14.0294V2.26471C2.35303 1.28824 3.14126 0.5 4.11773 0.5H5.2942C8.21185 0.5 10.5883 2.87647 10.5883 5.79412V19.9118C10.5883 20.2412 10.3295 20.5 10.0001 20.5ZM4.11773 1.67647C3.78832 1.67647 3.5295 1.93529 3.5295 2.26471V14.0294C3.5295 14.3588 3.78832 14.6176 4.11773 14.6176H5.2942C6.95303 14.6176 8.43538 15.3824 9.41185 16.5824V5.79412C9.41185 3.52353 7.56479 1.67647 5.2942 1.67647H4.11773ZM17.0589 7.55882H12.353C12.0236 7.55882 11.7648 7.3 11.7648 6.97059C11.7648 6.64118 12.0236 6.38235 12.353 6.38235H17.0589C17.3883 6.38235 17.6471 6.64118 17.6471 6.97059C17.6471 7.3 17.3883 7.55882 17.0589 7.55882ZM17.0589 9.91177H12.353C12.0236 9.91177 11.7648 9.65294 11.7648 9.32353C11.7648 8.99412 12.0236 8.73529 12.353 8.73529H17.0589C17.3883 8.73529 17.6471 8.99412 17.6471 9.32353C17.6471 9.65294 17.3883 9.91177 17.0589 9.91177ZM17.0589 12.2647H12.353C12.0236 12.2647 11.7648 12.0059 11.7648 11.6765C11.7648 11.3471 12.0236 11.0882 12.353 11.0882H17.0589C17.3883 11.0882 17.6471 11.3471 17.6471 11.6765C17.6471 12.0059 17.3883 12.2647 17.0589 12.2647ZM17.0589 14.6176H12.353C12.0236 14.6176 11.7648 14.3588 11.7648 14.0294C11.7648 13.7 12.0236 13.4412 12.353 13.4412H17.0589C17.3883 13.4412 17.6471 13.7 17.6471 14.0294C17.6471 14.3588 17.3883 14.6176 17.0589 14.6176Z" fill="black"/>
</svg>
